<?xml version="1.0" encoding="utf-8"?>
<!-- Generator: Adobe Illustrator 24.3.0, SVG Export Plug-In . SVG Version: 6.00 Build 0)  -->
<svg version="1.1" id="Layer_1" xmlns="http://www.w3.org/2000/svg" xmlns:xlink="http://www.w3.org/1999/xlink" x="0px" y="0px"
	 width="270px" height="270px" viewBox="0 0 270 270" enable-background="new 0 0 270 270" xml:space="preserve">
<g>
	<path d="M114.2943,113.7859c-0.7661-4.5442-1.147-9.1375-0.75-13.7482c0.2378-2.7647,1.0103-5.3897,2.4902-7.7788
		c2.8984-4.679,8.0195-6.2833,12.7061-5.7171c6.9448,0.8397,11.519,5.0334,14.9741,10.7052
		c4.8457,7.9561,7.9092,16.6362,10.1353,25.636c1.3716,5.5429,2.2881,11.1492,2.4229,18.7094
		c0.0869,2.4315-0.8667,6.37-3.6631,9.7009c-5.2578,6.2641-14.3965,7.0691-20.8315,1.898
		c-3.6191-2.9062-6.0093-6.7195-8.062-10.7832C119.1341,133.3427,115.9813,123.7979,114.2943,113.7859z M4.9999,134.4155
		C5.308,62.9521,63.1957,5.0944,134.995,5C206.68,5,265.0204,63.2689,264.9998,134.8479
		c-0.02,72.2183-58.2349,130.3726-130.6479,130.1517C62.8368,264.7804,4.6908,206.6069,4.9999,134.4155z M74.3641,136.2673
		c2.623,9.7105,7.8599,17.9226,14.3252,25.4694c1.3491,1.5744,2.6025,3.2567,3.6958,5.017c0.8101,1.3039,0.103,2.3044-1.4341,2.3179
		c-1.5347,0.0134-3.0708-0.0203-4.6064-0.0222c-3.666-0.0029-6.8901,1.2047-9.4971,3.7777
		c-2.5103,2.4777-3.4385,5.5034-2.3926,8.9498c0.5845,1.926,1.8208,2.7396,3.79,2.6924c0.9399-0.0231,1.876-0.2022,2.8145-0.2224
		c6.9604-0.1483,13.4028,1.9095,19.6108,4.7917l3.5312,1.6379c10.0088,4.6339,20.0557,9.179,30.4653,12.8615
		c11.5151,4.0734,23.2822,6.2419,35.5181,4.0887c7.1519-1.2586,13.9224-3.5533,19.8628-7.8703
		c2.5596-1.8604,4.8735-3.9915,6.4473-6.8014c1.6079-2.8706,1.5596-5.6834-0.293-8.4423c-1.4297-2.1291-2.4111-2.4556-4.7617-1.4213
		c-2.9448,1.2952-6.0322,2.0974-9.2222,2.2148c-6.397,0.2349-12.7334-0.3602-18.8442-2.3632
		c-1.9849-0.6509-3.8838-1.6765-5.6577-2.7916c-0.6411-0.4034-1.1055-1.586-1.0669-2.3853
		c0.0229-0.4747,1.1279-1.0236,1.8384-1.3183c2.499-1.0352,5.1665-1.7343,7.542-2.99
		c20.1587-10.6503,29.9712-27.7198,31.0923-50.9976c-0.3989-3.1999-0.6416-7.1818-1.4233-11.0529
		c-2.4448-12.1102-7.8291-22.8193-16.5034-31.6371c-11.6885-11.8829-26.4111-16.9183-42.7158-17.6713
		c-8.5225-0.3939-16.7876,1.4069-24.7812,4.3892c-8.9458,3.3366-17.105,7.9733-23.8418,14.8238
		c-9.043,9.1934-14.0903,20.2781-15.3198,33.1202C71.8289,121.8276,72.4266,129.0913,74.3641,136.2673z"/>
</g>
</svg>
