<?xml version="1.0" encoding="utf-8"?>
<!-- Generator: Adobe Illustrator 24.3.0, SVG Export Plug-In . SVG Version: 6.00 Build 0)  -->
<svg version="1.1" id="Layer_1" xmlns="http://www.w3.org/2000/svg" xmlns:xlink="http://www.w3.org/1999/xlink" x="0px" y="0px"
	 width="270px" height="270px" viewBox="0 0 270 270" enable-background="new 0 0 270 270" xml:space="preserve">
<g>
	<path d="M117.889,189.1859l0.519-0.4921l16.4878-16.5254l31.0132-0.0712l20.5605-20.541l-0.0068-62.3191H92.1463v82.8611h25.7427
		V189.1859z M155.0506,112.0901h11.3545v34.2719h-11.3545V112.0901z M123.5868,112.0901h11.3979v34.2642h-11.3979V112.0901z
		 M134.9998,265c71.7969,0,130-58.2005,130-130c0-71.7947-58.2031-130-130-130c-71.7964,0-130,58.2053-130,130
		C4.9999,206.7995,63.2035,265,134.9998,265z M72.0921,176.1714c0-0.371,0-0.7438,0-1.1181l0.001-15.1935
		c0-0.3997,0-0.7999,0-1.2003l0.001-12.0134c0-0.3974,0-0.7942,0-1.1904l0.001-10.4616c0-0.3764,0-0.7512,0-1.1245l0.001-9.6243
		c0-0.3372,0-0.672,0-1.0043l0.001-9.1292c0-0.2733,0-0.5432,0-0.8096l0.001-9.3256c0-0.1413,0-0.2778,0-0.4093l0.0005-2.4453
		l8.6152-23.4048h117.1621l0.0005,0.0144l0.0054,0.0998c0.0024,0.0457,0.0049,0.1015,0.0073,0.1607l0.0068,0.1809
		c0.001,0.0296,0.0015,0.0583,0.002,0.0853l0.001,1.685c0.0005,0.2734,0.0005,0.5494,0.0005,0.8277l0.0005,9.9619
		c0.0005,0.3221,0.0005,0.6459,0.0005,0.9711l0.0005,8.0467c0,0.3437,0.0005,0.6882,0.0005,1.0334l0.001,8.3906
		c0,0.3523,0,0.7046,0,1.057l0.001,6.3305c0,0.35,0,0.6996,0,1.0487l0.001,7.2266c0,0.3379,0,0.6747,0,1.0104l0.001,6.8516
		c0,0.3156,0,0.6294,0,0.9415l0.001,6.2624c0,0.283,0,0.5637,0,0.842l0.001,6.171c0,0.2343,0,0.4655,0,0.6936l0.001,6.7128
		c0,0.141,0,0.278,0,0.4106l0.0005,2.8972l-34.396,34.477l-25.0015,0.0087l-17.2305,17.1754h-17.7627v-17.1851H72.0916
		L72.0921,176.1714z"/>
</g>
</svg>
