<?xml version="1.0" encoding="utf-8"?>
<!-- Generator: Adobe Illustrator 24.3.0, SVG Export Plug-In . SVG Version: 6.00 Build 0)  -->
<svg version="1.1" id="Layer_1" xmlns="http://www.w3.org/2000/svg" xmlns:xlink="http://www.w3.org/1999/xlink" x="0px" y="0px"
	 width="270px" height="270px" viewBox="0 0 270 270" enable-background="new 0 0 270 270" xml:space="preserve">
<g>
	<path d="M135,265c71.7949,0,130-58.2006,130-130c0-71.7947-58.2051-130-130-130C63.2032,5,5,63.2053,5,135
		C5,206.7995,63.2032,265,135,265z M84.1509,70.4199c66.1118,0,119.8174,53.6062,119.8174,119.5778h-22.9648
		c0-53.2653-43.4614-96.6632-96.8525-96.6632V70.4199z M84.1509,110.9856c43.4902,0,79.1768,35.6094,79.1768,79.0121h-23.3394
		c0-14.8229-5.6431-28.938-16.2329-39.5277c-10.6274-10.5695-24.7529-16.5639-39.6045-16.5639V110.9856z M100.0635,158.2401
		c8.8403,0,15.8882,7.0529,15.8882,15.8687c0,8.8169-7.0479,15.8889-15.8882,15.8889c-8.8408,0-15.9126-7.072-15.9126-15.8889
		C84.1509,165.2929,91.2227,158.2401,100.0635,158.2401z"/>
</g>
</svg>
