<?xml version="1.0" encoding="utf-8"?>
<!-- Generator: Adobe Illustrator 24.3.0, SVG Export Plug-In . SVG Version: 6.00 Build 0)  -->
<svg version="1.1" id="Layer_1" xmlns="http://www.w3.org/2000/svg" xmlns:xlink="http://www.w3.org/1999/xlink" x="0px" y="0px"
	 width="270px" height="270px" viewBox="0 0 270 270" enable-background="new 0 0 270 270" xml:space="preserve">
<g>
	<g>
		<defs>
			<rect id="SVGID_7_" x="0" width="270" height="270"/>
		</defs>
		<clipPath id="SVGID_2_">
			<use xlink:href="#SVGID_7_"  overflow="visible"/>
		</clipPath>
		<g clip-path="url(#SVGID_2_)">
			<defs>
				<path id="SVGID_9_" d="M135.4843,79.581l0.1474,0.0014c1.5157,0.0337,2.5528,0.8975,2.9264,2.4026
					c0.2456,0.9765,0.4209,1.9982,0.444,3.0122c0.0568,2.9611,0.0192,5.9135,0.0192,8.8669h-0.0337
					c0,3.25,0.0491,6.4943-0.0231,9.7356c-0.0269,1.3058-0.2898,2.6154-1.2759,3.6159c-1.4146,1.4425-3.9106,1.0631-4.8659-0.7135
					c-0.5623-1.0554-0.7568-2.2062-0.7636-3.3781c-0.0212-6.1861-0.0375-12.3673,0.0173-18.5563
					c0.0077-0.9928,0.2523-2.0241,0.5759-2.9784c0.5758-1.6689,1.8017-2.0357,2.9794-2.0069L135.4843,79.581z M104.0764,59.2617
					c-2.4883,0.0302-4.9786,0.0128-7.4659,0.0167c-0.1753,0-0.3534,0.0173-0.5759,0.0289c0.0645,0.234,0.105,0.4256,0.1627,0.6134
					c0.9235,2.6654,1.8518,5.3309,2.7656,8.0003c0.7463,2.1734,1.4869,4.3545,2.2264,6.5317
					c0.701,2.0772,1.4435,4.1292,2.0819,6.2227c0.8031,2.6366,1.56,5.2847,2.2563,7.9454c0.3485,1.3106,0.728,2.6742,0.7424,4.0127
					c0.0751,7.0373,0.0376,14.0698,0.0231,21.1062c0,0.4873,0.1233,0.6413,0.6336,0.6339c2.3073-0.0292,4.6174-0.0089,6.9228-0.0089
					c0.8089,0,0.8089,0,0.8089-0.7877l0.0005-10.4215l0.0033-10.4171c0-0.389,0.0125-0.8011,0.1252-1.1757
					c0.6317-2.1734,1.2885-4.343,1.95-6.5077c1.195-3.9376,2.4016-7.8703,3.5928-11.8117
					c1.2914-4.2467,2.5721-8.5011,3.8528-12.7554c0.1137-0.3833,0.1974-0.7627,0.3101-1.2057c-2.7647,0-5.4118-0.0038-8.0581,0.0135
					c-0.1309,0-0.338,0.1916-0.3832,0.3332c-0.1839,0.6211-0.3236,1.2557-0.494,1.8816c-0.6847,2.6279-1.3915,5.2549-2.0694,7.8742
					c-0.8263,3.1864-1.6313,6.3777-2.4488,9.5641c-0.1397,0.5258-0.2957,1.0429-0.4594,1.6226
					c-0.1059-0.1088-0.1598-0.1415-0.1762-0.183c-0.547-2.0655-1.0804-4.1378-1.6351-6.2024
					c-0.6799-2.549-1.3703-5.1008-2.0579-7.6546l-1.1935-4.4077l-0.5879-2.2069C104.8082,59.445,104.5993,59.2533,104.0764,59.2617z
					 M156.3151,73.304l-3.0313,0.0019c-0.7136,0-0.7107,0-0.7107,0.7c0,11.0038-0.0221,22.0028,0.0222,33.0133
					c0.0086,1.5186,0.2272,3.0497,0.5402,4.5384c0.2937,1.405,1.1969,2.4614,2.5778,2.9862
					c1.3318,0.5094,2.7108,0.5094,4.0878,0.1589c2.0973-0.5297,3.7219-1.8268,5.2761-3.2443
					c0.4545-0.4227,0.9591-0.7896,1.4261-1.1594v4.0454h0.6337c2.0761,0.0039,4.1532-0.0134,6.2255,0.0116
					c0.4959,0.0087,0.5932-0.1743,0.5932-0.625c-0.0135-13.2224-0.0087-26.4487-0.0087-39.6711
					c0-0.1243,0.0434-0.2832-0.0144-0.3746c-0.0925-0.1503-0.2513-0.3631-0.3823-0.3631c-1.3849-0.0127-2.7695-0.016-4.1735-0.0167
					l-2.8398,0.0004c-0.0106,0.2792-0.0337,0.5122-0.0337,0.7376c-0.0019,10.0071,0,20.0258-0.0067,30.0358
					c0,0.2792-0.0597,0.5845-0.1974,0.8137c-0.2465,0.3919-0.5528,0.7549-0.8657,1.1054c-0.8802,0.9755-1.8566,1.8181-3.2009,2.0849
					c-1.0102,0.1954-1.8239-0.3043-2.0309-1.2972c-0.0924-0.4005-0.1444-0.8088-0.1444-1.222
					c-0.0068-10.5155-0.0049-21.0349-0.0049-31.5495l-0.0001-0.1186c-0.0025-0.5944-0.0432-0.5901-0.7067-0.5901
					c-2.0203,0-4.0406-0.0049-6.0618,0L156.3151,73.304z M141.2978,74.3189c-2.4228-1.5302-5.1143-1.7853-7.8665-1.3385
					c-3.8769,0.6249-6.4749,2.9033-7.8866,6.5231c-0.7829,2.002-0.9823,4.134-1.0237,6.2602
					c-0.0529,2.704-0.0154,5.4061-0.0154,8.1178c0,2.418,0.0039,4.8292,0,7.253c-0.0019,2.0107,0.1878,3.9876,0.6703,5.9396
					c0.648,2.6318,2.054,4.7715,4.3583,6.2024c3.4301,2.1349,7.0845,2.2274,10.7438,0.6789
					c2.3987-1.0082,4.0502-2.8648,5.0594-5.2751c0.9331-2.236,1.1623-4.6136,1.1979-6.9824
					c0.0636-4.421,0.0097-8.8381,0.0222-13.2562c0.0106-2.2264-0.052-4.4335-0.4228-6.6271
					C145.5926,78.6156,144.0576,76.0628,141.2978,74.3189z M179.6776,159.8165c-0.7569-2.8032-3.5417-3.0449-5.2009-2.028
					c-1.0497,0.6385-1.5311,1.7401-1.6351,2.8956c-0.1628,1.9231-0.1609,3.8538-0.2446,5.7769
					c-0.0145,0.3919,0.2301,0.3832,0.4949,0.3832l1.6239,0.0005l1.6203,0.0034c1.0641,0,2.1292-0.0212,3.1932,0.0086
					c0.4632,0.0126,0.6433-0.1126,0.6221-0.6047c-0.0337-0.9389,0.0414-1.8816-0.0231-2.8157l-0.0639-0.9143
					C179.9988,161.6058,179.9138,160.689,179.6776,159.8165z M148.8102,157.242l-0.1669,0.0053
					c-1.2471,0.0578-2.29,0.65-3.2038,1.5013c-0.2581,0.2417-0.3409,0.5046-0.3409,0.8464
					c0.0077,4.0089,0.0038,8.009,0.0038,12.0207c0,4.0175-0.0038,8.034,0.0077,12.0592c0,0.2292,0.0598,0.5287,0.209,0.675
					c0.8214,0.8349,1.7873,1.4059,2.9736,1.6062c1.2683,0.208,2.4306-0.2927,3.0497-1.4185
					c0.5624-1.0217,0.7415-2.1435,0.7454-3.2702c0.025-6.3816,0.0346-12.7679-0.0116-19.1485
					c-0.0058-0.989-0.2109-2.0107-0.5421-2.9323c-0.5634-1.5609-1.5995-2.0029-2.8908-1.9394L148.8102,157.242z M108.2932,137.1551
					c0.415,0,0.5624,0.104,0.5615,0.546c-0.0242,2.1648-0.0251,4.3305,0,6.4952c0.0057,0.5036-0.185,0.5961-0.6366,0.5922
					c-2.5615-0.0173-5.1191,0.0077-7.6835-0.0212c-0.5633-0.0077-0.6905,0.1666-0.6905,0.7011
					c0.0154,15.3573,0.0116,30.7108,0.0116,46.0594v0.4295c-0.207,0.0135-0.3804,0.0298-0.5508,0.0298
					c-2.2938,0-4.5866-0.0212-6.8765,0.0088c-0.5027,0.0038-0.6317-0.1339-0.6317-0.6299
					c0.0144-12.6803,0.0125-25.3683,0.0125-38.0477v-8.5385h-0.6481c-2.5095,0-5.018-0.0126-7.5227,0.0125
					c-0.4796,0.0038-0.6173-0.1339-0.6117-0.6134c0.0252-2.1474,0.0233-4.2958,0.005-6.4394
					c-0.005-0.4506,0.129-0.5845,0.5816-0.5845C91.8362,137.1638,100.0618,137.1638,108.2932,137.1551z M116.6324,151.1563
					c0.52-0.0074,0.678,0.1467,0.676,0.6763c-0.0144,10.2276-0.0125,20.4552-0.0077,30.6867c0,0.5749,0.0328,1.1507,0.0954,1.7227
					c0.1627,1.4502,1.3972,2.131,2.8388,1.5591c1.5927-0.6336,2.6424-1.8932,3.6034-3.2279
					c0.1271-0.1878,0.1001-0.4882,0.1001-0.7386c0.0068-9.8848,0.0068-19.7697,0.0068-29.6516c0-0.2041,0.0096-0.3996-0.0048-0.5912
					c-0.0203-0.314,0.1271-0.4218,0.4189-0.4218c2.1647,0.0038,4.3275,0.0086,6.4951,0c0.3169,0,0.4083,0.1377,0.3977,0.4295
					c-0.0125,0.3206-0.0019,0.6461-0.0019,0.9754c0,12.9269-0.0058,25.8643,0.0125,38.7988c0,0.5547-0.1502,0.6962-0.6943,0.6885
					c-1.9875-0.0337-3.9683-0.025-5.952,0c-0.5046,0.0038-0.7068-0.1165-0.6818-0.6587c0.0395-1.0429,0.0106-2.0944,0.0106-3.1412
					c0-0.1704-0.0173-0.3419-0.0318-0.6009c-0.8715,0.8301-1.6409,1.6024-2.4546,2.3188c-1.4223,1.2644-3.0131,2.2533-4.9092,2.5576
					c-2.2918,0.3756-4.5683-0.155-5.6304-2.2938c-0.6076-1.2143-0.7357-2.5528-0.8224-3.8798
					c-0.0789-1.3347-0.0972-2.6655-0.0972-4.004c-0.0087-10.165-0.007-20.3416-0.007-30.5191l0.0002-0.1123
					c0.0022-0.5623,0.0407-0.5589,0.6943-0.5589C112.6689,151.1701,114.6516,151.1826,116.6324,151.1563z M144.4187,137.1473
					c0.5354-0.0047,0.6982,0.1205,0.6963,0.6828c-0.0212,5.5313-0.0126,11.0452-0.0126,16.564v0.7463
					c0.5537-0.5836,0.9842-1.068,1.4349-1.5225c1.2528-1.2422,2.6731-2.2523,4.4084-2.6857
					c2.1667-0.5267,4.2351-0.3216,5.9396,1.2711c1.2037,1.1267,1.7805,2.6251,2.0684,4.2294
					c0.4719,2.6125,0.4536,5.2558,0.4468,7.9011c-0.0125,5.9135,0.0251,11.8329-0.0192,17.7512
					c-0.0164,2.1282-0.21,4.2457-0.832,6.3113c-0.9235,3.0564-4.0166,4.8293-7.1529,4.0955
					c-2.4575-0.5797-4.2255-2.131-5.8414-3.925c-0.1174-0.1204-0.2195-0.2629-0.4526-0.3419v3.2429
					c-0.0024,0.6818-0.0497,0.5281-0.778,0.5281l-4.0019-0.0003l-2.0041,0.0166c-0.4863,0.0087-0.6019-0.1252-0.6019-0.6009
					c0.0174-7.1741,0.0135-14.353,0.0135-21.5347l0.0004-10.695c-0.0002-7.1303-0.0023-14.2618-0.0139-21.3967
					c0-0.5133,0.1493-0.6376,0.6375-0.6298C140.3762,137.1763,142.3927,137.1801,144.4187,137.1473z M172.2744,151.3819
					c3.2037-1.1334,6.4229-1.0631,9.4784,0.5171c2.8485,1.4724,4.4672,3.901,5.1596,7.0037
					c0.4189,1.8854,0.5354,3.7786,0.5315,5.694c0,2.5566-0.0106,5.1172,0.0146,7.6825c0.0047,0.5084-0.1166,0.6635-0.6492,0.6635
					c-4.4893-0.0173-8.9796-0.0125-13.4718-0.0125c-0.7425,0-0.7425,0.0029-0.7425,0.7338c0,2.2687-0.0163,4.5509,0.0087,6.8197
					c0.0106,1.1719,0.1608,2.3313,0.6336,3.4243c0.6211,1.456,1.9317,2.2061,3.564,2.0559c1.4974-0.1416,2.624-1.067,2.8725-2.627
					c0.208-1.2682,0.1897-2.5827,0.2609-3.8711c0.0203-0.3794,0.0116-0.7511,0.002-1.1344
					c-0.0097-0.2716,0.0809-0.3833,0.3746-0.3833c2.234,0.0116,4.472,0.0077,6.7051,0.0038c0.2879,0,0.4506,0.0626,0.4343,0.391
					c-0.1156,2.1195-0.0029,4.2804-0.39,6.345c-0.6192,3.2914-2.6405,5.6642-5.7123,7.0402c-2.288,1.0188-4.6964,1.1142-7.15,0.701
					c-2.992-0.5046-5.3011-2.0646-6.9363-4.5885c-1.2306-1.8893-1.7304-4.0618-1.8219-6.2852
					c-0.1425-3.3116-0.1502-6.6271-0.2138-9.9397h0.0588c0-2.6366-0.0414-5.2713,0.0164-7.9078
					c0.0491-2.1186,0.2368-4.2303,0.96-6.2612C167.3151,154.4692,169.3354,152.4287,172.2744,151.3819z M147.3333,123.6481
					l-2.0729,0.0053c-9.5372,0.0337-19.0821,0.0626-28.6203,0.129c-2.5913,0.0126-5.1855,0.1137-7.7749,0.2013
					c-3.6728,0.129-7.3416,0.2744-11.0144,0.441c-2.9842,0.1214-5.9713,0.2716-9.5892,0.443
					c-1.1758,0.0202-2.9428,0.3332-4.6396,0.9716c-2.5759,0.9678-4.757,2.4854-6.5299,4.6088
					c-1.1247,1.3395-1.975,2.807-2.601,4.4383c-0.8127,2.1137-0.9341,4.3622-1.2297,6.5606
					c-0.3948,2.9284-0.6808,5.8731-0.9139,8.8131c-0.2667,3.4503-0.4651,6.8986-0.6173,10.3489
					c-0.0876,2.0723-0.0318,4.1543-0.0289,6.2275c0,1.4339-0.0202,2.886,0.0347,4.3295c0.1021,2.4565,0.234,4.9207,0.4006,7.3744
					c0.1329,2.0473,0.3024,4.0993,0.5104,6.1389c0.2301,2.261,0.4979,4.5086,0.8041,6.7571
					c0.1936,1.4136,0.3813,2.8282,0.7521,4.1966c0.6866,2.5018,2.0376,4.6376,3.9116,6.4644c2.5413,2.47,5.5505,3.9539,9.0624,4.343
					c2.1291,0.2292,4.2756,0.3158,6.4133,0.4247c3.1778,0.1705,6.3623,0.3043,9.5468,0.4381
					c1.8874,0.079,3.7729,0.1541,5.6641,0.2244c2.6241,0.0799,5.2559,0.1627,7.8838,0.2128
					c2.9361,0.0549,5.876,0.1175,8.8111,0.1096c8.3874-0.0172,16.7729-0.0634,25.1613-0.1048
					c0.8965-0.0048,1.7978-0.0424,2.7011-0.0713c3.6159-0.1127,7.2299-0.2244,10.8468-0.3544
					c2.521-0.0876,5.0382-0.1916,7.5516-0.3043c2.8446-0.1377,5.6824-0.2841,8.5251-0.4305
					c1.6332-0.0828,3.2789-0.1444,4.8572-0.6201c2.7771-0.831,5.2057-2.2524,7.1865-4.3882
					c1.6332-1.7526,2.8947-3.7459,3.4349-6.0898c0.4632-2.002,0.7675-4.0627,1.016-6.1187
					c0.3669-3.0333,0.6943-6.0821,0.8984-9.1385c0.2879-4.2881,0.5171-8.581,0.623-12.8806
					c0.0694-2.9033-0.052-5.8057-0.1897-8.7004c-0.1521-3.3405-0.3331-6.6945-0.65-10.0186
					c-0.3543-3.7662-0.778-7.5246-1.3597-11.2494c-0.5989-3.8335-2.6279-6.8861-5.6834-9.2396
					c-2.8128-2.1676-6.0503-3.1566-9.5805-3.2856c-2.4257-0.0876-4.8552-0.2292-7.279-0.3467
					c-2.6434-0.1204-5.2857-0.2667-7.9262-0.3832c-1.9635-0.0877-3.926-0.1503-5.8856-0.2138
					c-2.7531-0.0828-5.5033-0.1791-8.2603-0.2331c-2.0752-0.0375-4.1523-0.0327-6.2236-0.025L147.3333,123.6481z M135,5
					c71.7966,0,130,58.2053,130,130c0,71.7995-58.2034,130-130,130S5,206.7995,5,135C5,63.2053,63.2034,5,135,5z"/>
			</defs>
			<clipPath id="SVGID_4_">
				<use xlink:href="#SVGID_9_"  overflow="visible"/>
			</clipPath>
			<g clip-path="url(#SVGID_4_)">
				<defs>
					<rect id="SVGID_11_" x="0" width="270" height="270"/>
				</defs>
				<clipPath id="SVGID_6_">
					<use xlink:href="#SVGID_11_"  overflow="visible"/>
				</clipPath>
				<rect x="0" clip-path="url(#SVGID_6_)" width="270" height="270"/>
			</g>
		</g>
	</g>
</g>
</svg>
