<?xml version="1.0" encoding="utf-8"?>
<!-- Generator: Adobe Illustrator 24.3.0, SVG Export Plug-In . SVG Version: 6.00 Build 0)  -->
<svg version="1.1" id="Layer_1" xmlns="http://www.w3.org/2000/svg" xmlns:xlink="http://www.w3.org/1999/xlink" x="0px" y="0px"
	 width="270px" height="270px" viewBox="0 0 270 270" enable-background="new 0 0 270 270" xml:space="preserve">
<g>
	<path d="M134.9999,265c71.7969,0,130-58.2005,130-130c0-71.7947-58.2031-130-130-130c-71.7964,0-130,58.2053-130,130
		C4.9999,206.7995,63.2036,265,134.9999,265z M181.1557,186.0005c-1.502,0.3804-2.9736,0.2677-4.3833-0.3804
		c-0.5625-0.259-1.1094-0.5595-1.6392-0.8811c-9.0093-5.4639-18.7139-9.1906-28.9502-11.5825
		c-5.1733-1.2095-10.4097-2.0405-15.6982-2.5239c-5.9687-0.5441-11.9487-0.6837-17.9394-0.392
		c-4.4854,0.2186-8.9531,0.6028-13.4082,1.1719c-5.0688,0.6471-10.1006,1.5003-15.0952,2.5711
		c-1.4048,0.3005-2.7983,0.701-4.2188,0.8821c-3.7314,0.4757-7.0942-2.3997-7.4224-6.1485
		c-0.3018-3.433,2.1616-6.5116,5.6562-7.2713c6.2871-1.3684,12.6064-2.574,18.9966-3.3406c3.8931-0.468,7.8037-0.8117,11.7163-1.09
		c3.2935-0.2331,6.5981-0.2909,9.8979-0.4266c4.3857,0.0375,8.7573,0.2455,13.1177,0.6442
		c13.3901,1.223,26.3101,4.3179,38.6226,9.7991c4.1562,1.8499,8.1768,3.9587,12.0698,6.3122
		c1.4917,0.9014,2.6685,2.0675,3.3018,3.7286C187.2079,180.8168,185.0385,185.0172,181.1557,186.0005z M199.5678,150.5971
		c-0.583,3.3781-2.6851,5.5919-5.9746,6.5915c-1.9683,0.599-3.9092,0.4102-5.7651-0.493c-0.5073-0.2456-1.0034-0.5172-1.4888-0.806
		c-9.4717-5.6372-19.6074-9.6778-30.2227-12.5686c-5.9673-1.6255-12.0166-2.8745-18.1479-3.6747
		c-3.6353-0.4738-7.2944-0.7781-10.9477-1.0948c-4.5068-0.3919-9.0269-0.3948-13.5439-0.3033
		c-4.9712,0.1011-9.9214,0.4959-14.853,1.142c-5.8257,0.7627-11.5776,1.8855-17.2485,3.4205
		c-0.8706,0.2359-1.7227,0.5412-2.5903,0.7877c-5.0488,1.4387-9.6758-1.767-10.6909-6.2535
		c-0.748-3.3068,0.5586-6.7253,3.3755-8.6946c0.9097-0.6365,1.9058-1.1035,2.9668-1.4155
		c6.0693-1.7863,12.2324-3.148,18.4849-4.1157c8.0503-1.2451,16.1489-1.8316,24.293-1.8412
		c5.1997-0.0164,10.3892,0.234,15.5635,0.7183c12.916,1.2066,25.5405,3.8029,37.8086,8.062
		c8.2603,2.8677,16.1978,6.4345,23.7217,10.9007c0.752,0.4459,1.501,0.9081,2.1904,1.4417
		C199.2016,144.4929,200.1274,147.3461,199.5678,150.5971z M67.8027,90.7576c4.5498-1.3327,9.1421-2.5046,13.8057-3.3415
		c4.2471-0.7617,8.5098-1.4482,12.7886-1.9991c3.4673-0.4449,6.9619-0.7231,10.4546-0.9234
		c4.8735-0.2803,9.7559-0.4199,14.2578-0.6049c4.9565,0.1733,9.5303,0.26,14.0957,0.5094
		c7.2734,0.3958,14.5117,1.1748,21.7051,2.3275c13.8618,2.2206,27.3774,5.7046,40.3442,11.1607
		c4.8169,2.0271,9.4893,4.342,14.021,6.9478c2.4072,1.3838,4.231,3.2452,5.1616,5.9222c1.5928,4.5828-0.3457,10.3972-5.7153,12.5763
		c-2.8398,1.1517-5.6768,1.1334-8.4268-0.3062c-1.5488-0.8109-3.0498-1.7141-4.5913-2.5393
		c-7.0176-3.7556-14.416-6.5674-22.0317-8.8275c-6.6313-1.9683-13.3594-3.5389-20.1924-4.6087
		c-4.4575-0.6982-8.9326-1.3154-13.415-1.8162c-4.9941-0.5595-10.0142-0.8137-15.0386-0.9601
		c-5.2539-0.1531-10.5034-0.1011-15.7485,0.2052c-3.2954,0.1925-6.5933,0.4034-9.877,0.7395
		c-8.3481,0.8532-16.5889,2.3102-24.6665,4.6251c-0.8657,0.2485-1.7437,0.4815-2.6328,0.6173
		c-5.4292,0.8301-10.4424-2.9255-11.4243-8.3192C59.8901,97.8296,62.6274,92.2724,67.8027,90.7576z"/>
</g>
</svg>
