<?xml version="1.0" encoding="utf-8"?>
<!-- Generator: Adobe Illustrator 24.3.0, SVG Export Plug-In . SVG Version: 6.00 Build 0)  -->
<svg version="1.1" id="Layer_1" xmlns="http://www.w3.org/2000/svg" xmlns:xlink="http://www.w3.org/1999/xlink" x="0px" y="0px"
	 width="270px" height="270px" viewBox="0 0 270 270" enable-background="new 0 0 270 270" xml:space="preserve">
<g>
	<path d="M134.9999,265c71.7969,0,130-58.2053,130-130s-58.2031-130-130-130c-71.7964,0-130,58.2053-130,130
		S63.2036,265,134.9999,265z M60.9999,112.8656C60.9999,76.0268,76.6533,61,115.0302,61h39.9399
		c38.3765,0,54.0298,15.0268,54.0298,51.8656v44.2688c0,36.8387-15.6533,51.8656-54.0298,51.8656h-39.9399
		c-38.377,0-54.0303-15.0269-54.0303-51.8656V112.8656z M110.2553,134.0545c0-13.7848,11.2148-25,25-25c13.7847,0,25,11.2151,25,25
		s-11.2153,25-25,25C121.4702,159.0545,110.2553,147.8394,110.2553,134.0545z M115.5087,196h39.9824
		c16.2007,0,26.5063-2.7805,32.4312-8.75c5.5112-5.5524,8.0776-14.9537,8.0776-29.5867v-44.3266
		c0-14.633-2.5664-24.0338-8.0776-29.5861C181.9975,77.7805,171.6918,75,155.4911,75h-39.9824
		c-16.2007,0-26.5059,2.7805-32.4312,8.7505c-5.5112,5.5523-8.0776,14.9531-8.0776,29.5861v44.3266
		c0,14.633,2.5664,24.0344,8.0776,29.5867C89.0029,193.2195,99.3081,196,115.5087,196z M175.2548,87.0545
		c4.4185,0,8.0005,3.5815,8.0005,7.9998c0,4.4187-3.582,8.0002-8.0005,8.0002c-4.4175,0-7.9995-3.5815-7.9995-8.0002
		C167.2553,90.6361,170.8373,87.0545,175.2548,87.0545z M135.2553,96.0545c20.9531,0,38,17.0469,38,38c0,20.9532-17.0469,38-38,38
		s-38-17.0468-38-38C97.2553,113.1014,114.3022,96.0545,135.2553,96.0545z"/>
</g>
</svg>
