<?xml version="1.0" encoding="utf-8"?>
<!-- Generator: Adobe Illustrator 24.3.0, SVG Export Plug-In . SVG Version: 6.00 Build 0)  -->
<svg version="1.1" id="Layer_1" xmlns="http://www.w3.org/2000/svg" xmlns:xlink="http://www.w3.org/1999/xlink" x="0px" y="0px"
	 width="270px" height="270px" viewBox="0 0 270 270" enable-background="new 0 0 270 270" xml:space="preserve">
<g>
	<path d="M134.9999,5c-71.7964,0-130,58.2053-130,130c0,71.7995,58.2036,130,130,130c71.7969,0,130-58.2005,130-130
		C264.9999,63.2053,206.7968,5,134.9999,5z M207.0258,97.4367c-2.6655,11.6288-6.0986,23.0197-10.4531,34.1303
		c-4.916,12.5523-11.9492,23.8314-20.3252,34.3383c-5.2026,6.5203-10.7021,12.7756-16.7197,18.5496
		c-6.5503,6.2968-13.6504,11.8782-21.7979,15.9968c-3.7803,1.9144-7.7334,3.3713-11.977,3.8239
		c-4.9834,0.5123-9.437-0.9293-13.3267-4.0676c-3.7891-3.0574-6.3384-7.0585-8.3828-11.3851
		c-3.6753-7.775-5.8315-16.0526-7.7285-24.3957l-1.3438-5.9798l-2.6592-11.9639c-0.8896-3.9871-1.7876-7.9722-2.7129-11.9515
		c-1.1978-5.149-2.8301-10.1814-5.0322-15.0107c-1.3984-3.0468-3.1558-5.8654-5.3164-8.45
		c-2.0234-2.4122-4.6318-2.4478-7.3965-1.2393c-1.833,0.8127-3.4507,2.1031-5.1567,3.1951
		c-0.7695,0.4969-1.4878,1.0862-2.2871,1.5225c-2.0288,1.1218-3.3521,0.8531-4.8457-0.9033
		c-0.5278-0.6192-1.0352-1.2692-1.5688-1.8893c-1.8633-2.1734-1.6118-4.499-0.4902-6.8766c1.1528-2.4266,2.813-4.5085,4.7227-6.3671
		c7.0952-6.8813,14.6255-13.259,22.8364-18.7845c4.2788-2.8792,8.8691-5.1692,13.9932-6.1591
		c0.8013-0.1568,1.6172-0.2391,2.4355-0.3083l1.2275-0.1017c0.2046-0.0179,0.4087-0.0368,0.6123-0.0579
		c4.8457,0.0366,8.9814,1.5995,12.3203,5.1797c2.0693,2.2244,3.4453,4.8398,4.519,7.6382
		c1.5107,3.9559,2.4248,8.0687,2.9399,12.2585c0.603,4.9256,1.0747,9.8665,1.5898,14.8027
		c0.6021,5.6824,1.0796,11.3755,1.8057,17.0415c0.7383,5.7441,1.9702,11.3958,4.5161,16.6564
		c1.7402,3.6063,4.1313,6.6724,7.541,8.8766c0.645,0.4122,1.1182,0.4324,1.7295-0.0809
		c7.0229-5.9212,13.2388-12.5272,17.6387-20.6777c2.9502-5.4648,4.9209-11.2589,5.1621-17.5201
		c0.0918-2.4017,0.0283-4.8389-0.2153-7.2261c-0.2217-2.1532-1.7295-3.483-3.6489-4.2707
		c-2.1528-0.8783-4.4307-1.1681-6.7339-0.8889c-2.9448,0.3563-5.875,0.8176-8.8101,1.249
		c-0.9014,0.1377-1.1401-0.0809-1.0488-1.2085c0.2969-3.7527,1.2617-7.332,3.0342-10.6639
		c3.9966-7.5101,10.0928-12.8931,17.4028-17.0165c4.6187-2.6048,9.5518-4.3871,14.7827-5.2915
		c5.8066-1.0052,11.5195-0.7675,16.9526,1.7372c6.3604,2.9293,9.9937,8.1342,11.8599,14.7112
		c0.4033,1.4117,0.8657,2.859,0.915,4.3006C207.6411,94.283,207.3793,95.8921,207.0258,97.4367z"/>
</g>
</svg>
