<?xml version="1.0" encoding="utf-8"?>
<!-- Generator: Adobe Illustrator 24.3.0, SVG Export Plug-In . SVG Version: 6.00 Build 0)  -->
<svg version="1.1" id="Layer_1" xmlns="http://www.w3.org/2000/svg" xmlns:xlink="http://www.w3.org/1999/xlink" x="0px" y="0px"
	 width="270px" height="270px" viewBox="0 0 270 270" enable-background="new 0 0 270 270" xml:space="preserve">
<g>
	<g>
		<defs>
			<rect id="SVGID_73_" x="0" width="270" height="270"/>
		</defs>
		<clipPath id="SVGID_2_">
			<use xlink:href="#SVGID_73_"  overflow="visible"/>
		</clipPath>
		<g clip-path="url(#SVGID_2_)">
			<defs>
				<path id="SVGID_75_" d="M128.7407,86.5418c6.9449,0.8397,11.519,5.0334,14.9741,10.7052
					c4.8456,7.956,7.9088,16.6362,10.1352,25.636c1.3713,5.5429,2.288,11.1492,2.4228,18.7094
					c0.0867,2.4315-0.8667,6.37-3.6631,9.7009c-5.2578,6.2641-14.3963,7.0691-20.8318,1.898
					c-3.6188-2.9062-6.0089-6.7195-8.0619-10.7832c-4.5818-9.0654-7.7345-18.6102-9.4216-28.6222
					c-0.7665-4.5442-1.1469-9.1375-0.7502-13.7482c0.2379-2.7647,1.0102-5.3897,2.4902-7.7788
					C118.933,87.5799,124.054,85.9756,128.7407,86.5418z M111.6982,66.4881c-8.9459,3.3366-17.1051,7.9733-23.842,14.8238
					c-9.0432,9.1934-14.0901,20.2781-15.3198,33.1202c-0.7078,7.3955-0.1098,14.6592,1.8277,21.8352
					c2.6231,9.7105,7.8597,17.9226,14.325,25.4694c1.3491,1.5744,2.6029,3.2567,3.6958,5.017
					c0.8099,1.3039,0.103,2.3044-1.4339,2.3179c-1.535,0.0134-3.0709-0.0203-4.6068-0.0222c-3.666-0.0029-6.89,1.2047-9.4967,3.7777
					c-2.5104,2.4777-3.4387,5.5033-2.393,8.9498c0.5845,1.9259,1.821,2.7396,3.7902,2.6924
					c0.9398-0.0231,1.8759-0.2022,2.8147-0.2224c6.9603-0.1483,13.4025,1.9095,19.6108,4.7917l3.5313,1.6379
					c10.0085,4.6339,20.0553,9.179,30.4651,12.8615c11.5151,4.0733,23.2825,6.2419,35.5179,4.0887
					c7.152-1.2586,13.9226-3.5533,19.8631-7.8703c2.5595-1.8604,4.8735-3.9915,6.447-6.8014
					c1.6082-2.8706,1.56-5.6834-0.2927-8.4423c-1.43-2.1291-2.4113-2.4556-4.7619-1.4213c-2.9447,1.2952-6.032,2.0973-9.2223,2.2148
					c-6.3969,0.235-12.7332-0.3602-18.8442-2.3631c-1.9847-0.651-3.8836-1.6765-5.6574-2.7916
					c-0.6413-0.4035-1.1055-1.586-1.067-2.3853c0.0231-0.4747,1.1277-1.0236,1.8383-1.3183c2.4989-1.0352,5.1663-1.7343,7.542-2.99
					c20.1586-10.6504,29.9712-27.7198,31.0921-50.9976c-0.3987-3.1999-0.6413-7.1818-1.4233-11.0529
					c-2.4449-12.1102-7.8288-22.8193-16.5032-31.6372c-11.6885-11.8829-26.4112-16.9183-42.7161-17.6713
					C127.9569,61.705,119.6918,63.5058,111.6982,66.4881z M134.9952,5C206.6801,5,265.0202,63.2689,265,134.8479
					c-0.0202,72.2183-58.2352,130.3726-130.6481,130.1518C62.8365,264.7805,4.6909,206.6069,4.9997,134.4155
					C5.3081,62.9521,63.1957,5.0944,134.9952,5z"/>
			</defs>
			<clipPath id="SVGID_4_">
				<use xlink:href="#SVGID_75_"  overflow="visible"/>
			</clipPath>
			<g clip-path="url(#SVGID_4_)">
				<defs>
					<rect id="SVGID_77_" x="0" width="270" height="270"/>
				</defs>
				<clipPath id="SVGID_6_">
					<use xlink:href="#SVGID_77_"  overflow="visible"/>
				</clipPath>
				<rect x="-0.0015" clip-path="url(#SVGID_6_)" width="270.0015" height="270.0003"/>
			</g>
		</g>
	</g>
</g>
</svg>
