<?xml version="1.0" encoding="utf-8"?>
<!-- Generator: Adobe Illustrator 24.3.0, SVG Export Plug-In . SVG Version: 6.00 Build 0)  -->
<svg version="1.1" id="Layer_1" xmlns="http://www.w3.org/2000/svg" xmlns:xlink="http://www.w3.org/1999/xlink" x="0px" y="0px"
	 width="270px" height="270px" viewBox="0 0 270 270" enable-background="new 0 0 270 270" xml:space="preserve">
<g>
	<path d="M87.1947,167.7032c0.2563,0.3707,0.3584,1.0361,0.2178,1.4626c-1.2007,3.7421-2.4731,7.465-3.7251,11.1868
		c-1.1094,3.3059-2.2158,6.6118-3.4048,10.141c0.5747-0.1473,0.9292-0.2128,1.2729-0.3245
		c6.9082-2.209,13.8174-4.4181,20.7212-6.6473c0.6655-0.2137,1.1777-0.1522,1.79,0.2437
		c5.8501,3.7372,12.1592,6.3777,18.9385,7.9117c9.1763,2.0723,18.3477,2.0309,27.457-0.2542
		c13.5747-3.407,24.7617-10.6186,33.2163-21.7899c11.0298-14.5591,14.7373-30.9208,11.0405-48.8058
		c-2.7378-13.2446-9.5073-24.1944-19.7495-33.0258c-5.062-4.3699-10.7041-7.7874-16.9097-10.2122
		c-8.4902-3.3232-17.3013-4.7175-26.4292-3.9587c-3.5728,0.3004-7.0864,0.8715-10.5552,1.7901
		c-11.6953,3.1104-21.5464,9.1944-29.6099,18.1981c-5.0171,5.6064-8.8462,11.9282-11.4414,18.9847
		c-3.9683,10.7929-4.7666,21.8256-2.417,33.0807C79.2752,153.6824,82.5301,161,87.1947,167.7032z M107.7249,102.3556
		c1.3696-1.3135,3.0625-1.8364,4.936-1.8104c1.2896,0.0202,2.5801,0.0375,3.8696,0.0992c1.2524,0.0577,1.9604,0.9157,2.4121,1.9297
		c1.041,2.3228,1.9961,4.6868,2.981,7.0327c1.0103,2.4122,2.0063,4.8321,3.0317,7.2336c0.4976,1.1682,0.6191,2.3641-0.1118,3.4157
		c-1.3711,1.9702-2.8032,3.9067-4.3188,5.7652c-1.3154,1.613-1.4395,2.0877-0.3755,3.875
		c5.7227,9.6431,13.7339,16.6111,24.2002,20.6989c1.3965,0.5431,2.2842,0.3649,3.3311-0.884c1.812-2.158,3.585-4.3468,5.3115-6.5714
		c1.1621-1.4926,1.8882-1.8738,3.6611-1.1276c1.9502,0.8262,3.8755,1.7136,5.7954,2.6149l2.8779,1.3564
		c1.9297,0.9148,3.8286,1.8999,5.7539,2.8243c1.1274,0.5383,1.7266,1.3405,1.6655,2.6405c-0.147,3.1123-0.4014,6.2708-2.4121,8.7803
		c-2.7422,3.4377-6.4238,5.5707-10.7349,6.525c-1.25,0.2793-2.5454,0.3602-3.2808,0.4564
		c-3.9263-0.1059-7.1191-1.0208-10.2788-2.0819c-5.981-2.0155-11.8193-4.3362-17.0601-7.9772
		c-6.103-4.2409-11.3716-9.3542-15.978-15.1589c-3.1431-3.9578-6.2134-7.982-8.5283-12.5089
		c-1.9448-3.7893-3.2729-7.7499-3.2935-12.0708C101.1493,111.4296,103.4447,106.4539,107.7249,102.3556z M134.9998,265
		c71.7949,0,130-58.2005,130-130c0-71.7947-58.2051-130-130-130c-71.7964,0-130,58.2053-130,130
		C4.9999,206.7995,63.2035,265,134.9998,265z M62.0497,207.7798c4.0957-12.1921,8.2036-24.3851,12.272-36.5926
		c0.1572-0.468,0.0869-1.1584-0.1626-1.5899c-5.3423-9.2319-8.5239-19.1292-9.5093-29.7603
		c-0.7075-7.6556-0.2466-15.212,1.4609-22.6817c2.3257-10.1968,6.6694-19.4547,13.0557-27.767
		c4.605-6.0002,10.0142-11.1415,16.2222-15.4402c6.1821-4.2784,12.8809-7.488,20.0942-9.6305
		c5.4453-1.6197,10.9912-2.6328,16.6753-2.8716c0.2422-0.0106,0.4751-0.1348,0.7139-0.2061h6.5278
		c0.2061,0.0713,0.4062,0.183,0.6094,0.2061c3.2485,0.3659,6.5327,0.5258,9.7378,1.1199
		c7.5254,1.3963,14.6504,3.9857,21.3428,7.7182c7.1812,4.0069,13.4883,9.0749,18.9419,15.2321
		c5.0786,5.7354,9.1714,12.0987,12.1621,19.1418c6.8052,16.0545,7.7847,32.5414,2.8184,49.217
		c-5.0371,16.8953-15.1479,30.1649-29.9307,39.7878c-9.6631,6.2968-20.2817,9.9377-31.769,11.075
		c-7.645,0.7569-15.208,0.3245-22.6934-1.3154c-6.3584-1.3915-12.4238-3.6255-18.1567-6.7186
		c-0.6152-0.3399-1.1611-0.5229-1.9072-0.2485c-1.9097,0.6857-3.8647,1.2548-5.8013,1.874
		c-8.4526,2.7011-16.9102,5.4032-25.3584,8.1197c-2.312,0.7415-4.6108,1.5388-6.916,2.3111h-0.6143
		C61.9256,208.4346,61.9437,208.0947,62.0497,207.7798z"/>
</g>
</svg>
