<?xml version="1.0" encoding="utf-8"?>
<!-- Generator: Adobe Illustrator 24.3.0, SVG Export Plug-In . SVG Version: 6.00 Build 0)  -->
<svg version="1.1" id="Layer_1" xmlns="http://www.w3.org/2000/svg" xmlns:xlink="http://www.w3.org/1999/xlink" x="0px" y="0px"
	 width="270px" height="270px" viewBox="0 0 270 270" enable-background="new 0 0 270 270" xml:space="preserve">
<g>
	<g>
		<defs>
			<rect id="SVGID_79_" x="0" width="270" height="270"/>
		</defs>
		<clipPath id="SVGID_2_">
			<use xlink:href="#SVGID_79_"  overflow="visible"/>
		</clipPath>
		<g clip-path="url(#SVGID_2_)">
			<defs>
				<path id="SVGID_81_" d="M161.4958,61.0421c-8.2266-3.1877-16.8011-4.3004-25.6001-3.993
					c-6.0352,0.2091-11.9909,0.9489-17.7956,2.5856c-17.3608,4.8638-30.5497,14.9197-38.6902,31.1092
					c-2.7841,5.5381-4.4751,11.4105-5.1403,17.5767c-0.4339,4.0913-0.3284,8.1766,0.2043,12.2418
					c0.7176,5.5382,2.2506,10.8277,5.1133,15.6722c3.0543,5.146,7.2525,9.034,12.8402,11.345
					c2.2109,0.9162,4.0141,0.0982,4.6194-2.1338c0.7176-2.6578,1.3625-5.3358,2.0404-8.0061
					c0.2896-1.1656,0.1123-2.2396-0.6247-3.202c-0.3166-0.419-0.6391-0.8372-0.9742-1.2437
					c-2.9817-3.5546-4.7587-7.6391-5.4366-12.209c-0.8155-5.4987-0.4407-10.9453,0.9877-16.2936
					c3.3498-12.6088,10.7668-22.0425,22.6522-27.6655c11.2143-5.3097,22.9545-5.8857,34.7808-2.4352
					c13.8337,4.0392,22.4876,15.2531,23.2904,29.5179c0.244,4.3071,0.0135,8.5956-0.4803,12.8767
					c-0.7564,6.5399-2.2768,12.9027-4.9225,18.9581c-2.3359,5.3492-5.3699,10.239-9.9505,14.0027
					c-4.7647,3.9149-10.181,5.7615-16.3934,4.6808c-6.8574-1.1908-11.5832-6.8473-11.5368-13.7341
					c0.0194-2.6838,0.8552-5.2173,1.5854-7.7508c1.7441-6.0428,3.6267-12.0521,5.3244-18.1007
					c1.04-3.7184,1.8031-7.5091,1.3819-11.4172c-0.3419-3.2146-1.3617-6.1797-3.7972-8.4252
					c-3.5076-3.228-7.6931-3.7318-12.1226-2.5075c-4.6988,1.3025-7.8839,4.517-10.1936,8.6477
					c-2.6651,4.779-3.6064,9.9636-3.4021,15.3909c0.1578,4.3406,0.9801,8.5301,2.6583,12.5491
					c0.1317,0.3015,0.1182,0.7205,0.0397,1.0539c-3.5405,14.9458-6.7898,29.9664-10.6748,44.824
					C95.4301,197.3236,101.9498,213,101.9498,213l0.0145-0.0148c0.4701-0.4822,12.2687-12.7055,16.7875-29.4855
					c1.6149-5.9975,3.1193-12.026,4.6659-18.0419c0.5326-2.0683,1.0527-4.1374,1.6056-6.2914
					c0.5335,0.7465,0.9675,1.441,1.4807,2.0624c3.3101,4.0199,7.6805,6.3896,12.5895,7.8752
					c4.9031,1.4863,9.8855,1.4015,14.8932,0.6617c9.536-1.4276,17.6378-5.6893,24.3964-12.4518
					c6.5543-6.5525,10.8782-14.4411,13.7409-23.161c2.4752-7.5678,3.6131-15.3447,3.8504-23.2794
					c0.2034-6.9649-0.7902-13.7081-3.4747-20.1624C186.511,76.3347,175.9476,66.6457,161.4958,61.0421z M135,5
					c71.7966,0,130,58.2024,130,130c0,71.7966-58.2034,130-130,130S5,206.7966,5,135C5,63.2024,63.2034,5,135,5z"/>
			</defs>
			<clipPath id="SVGID_4_">
				<use xlink:href="#SVGID_81_"  overflow="visible"/>
			</clipPath>
			<g clip-path="url(#SVGID_4_)">
				<defs>
					<rect id="SVGID_83_" x="0" width="270" height="270"/>
				</defs>
				<clipPath id="SVGID_6_">
					<use xlink:href="#SVGID_83_"  overflow="visible"/>
				</clipPath>
				<rect x="0" clip-path="url(#SVGID_6_)" width="270" height="270"/>
			</g>
		</g>
	</g>
</g>
</svg>
