<?xml version="1.0" encoding="utf-8"?>
<!-- Generator: Adobe Illustrator 24.3.0, SVG Export Plug-In . SVG Version: 6.00 Build 0)  -->
<svg version="1.1" id="Layer_1" xmlns="http://www.w3.org/2000/svg" xmlns:xlink="http://www.w3.org/1999/xlink" x="0px" y="0px"
	 width="270px" height="270px" viewBox="0 0 270 270" enable-background="new 0 0 270 270" xml:space="preserve">
<g>
	<path d="M135,265c71.7964,0,130-58.2053,130-130c0-71.7966-58.2036-130-130-130C63.2032,5,5,63.2034,5,135
		C5,206.7947,63.2032,265,135,265z M97.8267,108.1381h15.625v-16.014c0-16.4157,5.6709-26.9591,16.8037-31.4427
		c5.4707-2.1647,10.1543-2.7358,15.0366-2.7358h24.2227v26.5576h-14.458c-4.293,0-7.0308,1.1787-8.397,3.5177
		c-0.9785,1.5571-1.3677,4.291-1.3677,7.9993v12.1179h24.6113l-2.9253,26.7512h-21.686v77.168h-31.8403v-77.168h-15.625V108.1381z"
		/>
</g>
</svg>
