<?xml version="1.0" encoding="utf-8"?>
<!-- Generator: Adobe Illustrator 24.3.0, SVG Export Plug-In . SVG Version: 6.00 Build 0)  -->
<svg version="1.1" id="Layer_1" xmlns="http://www.w3.org/2000/svg" xmlns:xlink="http://www.w3.org/1999/xlink" x="0px" y="0px"
	 width="270px" height="270px" viewBox="0 0 270 270" enable-background="new 0 0 270 270" xml:space="preserve">
<g>
	<path d="M135.0001,265c71.7964,0,130-58.2034,130-130c0-71.7976-58.2036-130-130-130c-71.7969,0-130,58.2024-130,130
		C5.0001,206.7966,63.2033,265,135.0001,265z M74.2697,108.3206c0.665-6.1662,2.356-12.0386,5.1401-17.5767
		c8.1406-16.1895,21.3296-26.2454,38.6904-31.1092c5.8047-1.6367,11.7602-2.3765,17.7954-2.5856
		c8.7993-0.3074,17.3735,0.8053,25.6001,3.993c14.4517,5.6036,25.0151,15.2926,31.0039,29.669
		c2.6846,6.4543,3.6782,13.1975,3.4746,20.1624c-0.2373,7.9347-1.375,15.7116-3.8501,23.2794
		c-2.8628,8.7199-7.187,16.6085-13.7412,23.161c-6.7583,6.7625-14.8604,11.0242-24.396,12.4518
		c-5.0078,0.7398-9.9902,0.8246-14.8936-0.6617c-4.9087-1.4856-9.2793-3.8553-12.5893-7.8752
		c-0.5132-0.6214-0.9473-1.3159-1.481-2.0624c-0.5527,2.154-1.0728,4.2231-1.6055,6.2914
		c-1.5464,6.0159-3.0508,12.0445-4.666,18.0419c-4.5186,16.78-16.3174,29.0033-16.7871,29.4855L101.9499,213
		c0,0-6.5195-15.6764-0.6709-38.043c3.8848-14.8576,7.1343-29.8782,10.6748-44.824c0.0781-0.3334,0.0918-0.7524-0.04-1.0539
		c-1.6782-4.019-2.5005-8.2085-2.6582-12.5491c-0.2041-5.4273,0.7368-10.6119,3.4023-15.3909
		c2.3096-4.1307,5.4946-7.3452,10.1934-8.6477c4.4297-1.2243,8.6152-0.7205,12.1226,2.5075
		c2.4355,2.2455,3.4556,5.2106,3.7974,8.4252c0.4209,3.9081-0.3418,7.6988-1.3818,11.4172
		c-1.6978,6.0486-3.5806,12.0579-5.3247,18.1007c-0.73,2.5335-1.5659,5.067-1.5854,7.7508
		c-0.0464,6.8868,4.6797,12.5433,11.5371,13.7341c6.2124,1.0807,11.6284-0.7659,16.3931-4.6808
		c4.5806-3.7637,7.6147-8.6535,9.9507-14.0027c2.6455-6.0554,4.166-12.4182,4.9224-18.9581
		c0.4941-4.2811,0.7246-8.5696,0.4805-12.8767c-0.8027-14.2648-9.4565-25.4787-23.2905-29.5179
		c-11.8262-3.4505-23.5664-2.8745-34.7808,2.4352c-11.8853,5.623-19.3022,15.0567-22.6523,27.6655
		c-1.4282,5.3483-1.8032,10.7949-0.9878,16.2936c0.6782,4.5699,2.4551,8.6544,5.437,12.209
		c0.335,0.4065,0.6577,0.8247,0.9741,1.2437c0.7368,0.9624,0.9141,2.0364,0.6245,3.202c-0.6777,2.6703-1.3228,5.3483-2.0405,8.0061
		c-0.605,2.232-2.4082,3.05-4.6191,2.1338c-5.5879-2.311-9.7861-6.199-12.8403-11.345c-2.8628-4.8445-4.3955-10.134-5.1133-15.6722
		C73.9411,116.4972,73.8356,112.4119,74.2697,108.3206z"/>
</g>
</svg>
