<?xml version="1.0" encoding="utf-8"?>
<!-- Generator: Adobe Illustrator 24.3.0, SVG Export Plug-In . SVG Version: 6.00 Build 0)  -->
<svg version="1.1" id="Layer_1" xmlns="http://www.w3.org/2000/svg" xmlns:xlink="http://www.w3.org/1999/xlink" x="0px" y="0px"
	 width="270px" height="270px" viewBox="0 0 270 270" enable-background="new 0 0 270 270" xml:space="preserve">
<g>
	<g>
		<defs>
			<rect id="SVGID_61_" width="270" height="270"/>
		</defs>
		<clipPath id="SVGID_2_">
			<use xlink:href="#SVGID_61_"  overflow="visible"/>
		</clipPath>
		<g clip-path="url(#SVGID_2_)">
			<defs>
				<path id="SVGID_63_" d="M135.2735,90.4061c6.6569,0,12.9499,1.1402,18.8769,3.4205c5.928,2.2793,10.2595,5.927,12.9952,10.9431
					c1.3684,2.4623,2.0521,4.9246,2.0521,7.3869c0,2.4613-0.935,4.5596-2.8041,6.292c-1.8701,1.7324-4.0358,2.599-6.4981,2.599
					c-2.1888,0-3.9896-0.57-5.4032-1.7102c-1.4136-1.1401-2.5307-2.5075-3.3511-4.1032c-0.8205-1.5966-1.7786-3.1922-2.8725-4.7878
					c-1.094-1.5957-2.8273-2.964-5.1981-4.1042c-2.3708-1.1392-5.3801-1.7092-9.0278-1.7092c-3.4657,0-6.863,0.7289-10.191,2.1888
					c-3.329,1.4589-4.993,3.6929-4.993,6.7022c0,2.4623,1.3453,4.4913,4.0348,6.0869c2.6905,1.5966,6.0417,2.782,10.0543,3.5572
					c4.0127,0.7752,8.3672,1.8238,13.0636,3.146c4.6964,1.3221,9.0509,2.8041,13.0635,4.445
					c4.0127,1.6419,7.3638,4.2862,10.0543,7.9339c2.6896,3.6477,4.0348,8.1168,4.0348,13.4054
					c0,4.9246-1.1401,9.2338-3.4194,12.9268c-2.2803,3.6939-5.2896,6.5886-9.0278,8.6859
					c-3.7392,2.0983-7.7288,3.6477-11.9696,4.6511c-4.24,1.0034-8.6407,1.5051-13.2003,1.5051
					c-15.9583,0-27.1758-4.7426-33.6498-14.2268c-2.7358-4.0117-4.1042-7.8876-4.1042-11.6268c0-2.5538,0.935-4.6049,2.8042-6.1553
					c1.8701-1.5503,4.081-2.3255,6.6348-2.3255c2.0059,0,3.693,0.4786,5.0613,1.4358c1.3674,0.9581,2.393,2.1888,3.0777,3.6939
					c0.6837,1.5041,1.5041,3.1007,2.4623,4.7878c0.9571,1.6872,1.9827,3.2828,3.0776,4.7869
					c1.0939,1.5051,2.8494,2.7358,5.2664,3.694c2.4161,0.9571,5.357,1.4357,8.8227,1.4357c2.6443,0,5.2212-0.3187,7.7287-0.9571
					c2.5076-0.6385,4.81-1.8692,6.9074-3.693c2.0983-1.8239,3.1469-4.0589,3.1469-6.7032c0-3.3742-1.8238-6.0416-5.4715-8.0022
					c-3.6477-1.9606-8.0937-3.4879-13.3371-4.5828c-5.2443-1.0939-10.4645-2.3939-15.6625-3.898
					c-5.1981-1.5051-9.621-4.1042-13.2687-7.7971c-3.6477-3.693-5.4716-8.5492-5.4716-14.5677c0-4.5597,1.1171-8.504,3.3511-11.8329
					c2.2341-3.328,5.175-5.9049,8.8227-7.7288c3.6477-1.8238,7.4322-3.146,11.3543-3.9664
					C127.0209,90.8164,131.0788,90.4061,135.2735,90.4061z M104.9064,66.6046c-10.3046,0-19.1051,3.6477-26.4006,10.9441
					c-7.2954,7.2954-10.9431,16.0949-10.9431,26.3996c0,6.6579,1.6871,12.9499,5.0613,18.877
					c-0.8214,4.2861-1.2316,8.5723-1.2316,12.8584c0,17.783,6.293,32.9661,18.877,45.551
					c12.585,12.585,27.7227,18.877,45.4143,18.877c3.7392,0,7.6604-0.365,11.7645-1.0939
					c5.5621,2.9178,11.4448,4.3767,17.6454,4.3767c10.3046,0,19.1051-3.6477,26.4005-10.9431
					c7.2955-7.2954,10.9432-16.095,10.9432-26.3996c0-5.6545-1.2769-11.1713-3.8297-16.5524
					c1.0024-4.7416,1.5041-9.3465,1.5041-13.8156c0-17.6916-6.292-32.8293-18.877-45.4143
					c-12.584-12.584-27.768-18.877-45.551-18.877c-4.0127,0-7.6604,0.3197-10.9431,0.9582
					C118.6306,68.5199,112.0189,66.6046,104.9064,66.6046z M135,5c71.7966,0,130,58.2053,130,130c0,71.7995-58.2034,130-130,130
					S5,206.7995,5,135C5,63.2053,63.2034,5,135,5z"/>
			</defs>
			<clipPath id="SVGID_4_">
				<use xlink:href="#SVGID_63_"  overflow="visible"/>
			</clipPath>
			<g clip-path="url(#SVGID_4_)">
				<defs>
					<rect id="SVGID_65_" width="270" height="270"/>
				</defs>
				<clipPath id="SVGID_6_">
					<use xlink:href="#SVGID_65_"  overflow="visible"/>
				</clipPath>
				<rect clip-path="url(#SVGID_6_)" fill="#0D0D0C" width="270" height="270"/>
			</g>
		</g>
	</g>
</g>
</svg>
