<?xml version="1.0" encoding="utf-8"?>
<!-- Generator: Adobe Illustrator 24.3.0, SVG Export Plug-In . SVG Version: 6.00 Build 0)  -->
<svg version="1.1" id="Layer_1" xmlns="http://www.w3.org/2000/svg" xmlns:xlink="http://www.w3.org/1999/xlink" x="0px" y="0px"
	 width="270px" height="270px" viewBox="0 0 270 270" enable-background="new 0 0 270 270" xml:space="preserve">
<g>
	<polygon points="123.4714,111.7069 123.4714,158.0581 157.5872,135 	"/>
	<path d="M135.0002,265c71.7964,0,130-58.2005,130-130c0-71.7947-58.2036-130-130-130c-71.7969,0-130,58.2053-130,130
		C5.0002,206.7995,63.2034,265,135.0002,265z M75.7083,109.8243c0-5.3329,1.647-9.8424,4.9414-13.5287
		c3.293-3.6862,7.3711-5.5293,12.2344-5.5293c11.4502-0.6279,24.7837-0.9418,39.9985-0.9418h4.2349
		c15.2158,0,28.5483,0.3139,39.9985,0.9418c4.8633,0,8.98,1.8431,12.353,5.5293c3.3721,3.6863,5.0586,8.1958,5.0586,13.5287
		c0.4707,8.4702,0.7056,16.8615,0.7056,25.1757c0,8.3142-0.2349,16.7045-0.7056,25.1757c0,5.3329-1.6865,9.8425-5.0586,13.5287
		c-3.373,3.6862-7.4897,5.5293-12.353,5.5293c-12.0771,0.6269-26.1162,0.9418-42.1157,0.9418c-16,0-30.0391-0.3149-42.1162-0.9418
		c-4.8633,0-8.981-1.8431-12.3521-5.5293c-3.3735-3.6862-5.0596-8.1958-5.0596-13.5287
		c-0.4707-8.4712-0.7056-16.8615-0.7056-25.1757C74.7668,129.5101,75.0808,121.1179,75.7083,109.8243z"/>
</g>
</svg>
