<?xml version="1.0" encoding="utf-8"?>
<!-- Generator: Adobe Illustrator 24.3.0, SVG Export Plug-In . SVG Version: 6.00 Build 0)  -->
<svg version="1.1" id="Layer_1" xmlns="http://www.w3.org/2000/svg" xmlns:xlink="http://www.w3.org/1999/xlink" x="0px" y="0px"
	 width="270px" height="270px" viewBox="0 0 270 270" enable-background="new 0 0 270 270" xml:space="preserve">
<g>
	<path d="M135.0001,265c71.7944,0,130-58.2006,130-130s-58.2056-130-130-130c-71.7949,0-130,58.2005-130,130
		S63.2052,265,135.0001,265z M67.008,188.2422c0.4336-4.3188,2.0464-8.1302,4.8755-11.4332
		c3.8818-4.5327,8.7573-7.3474,14.5225-8.7938c2.9409-0.7396,5.8984-1.2085,8.8901-0.9091c2.29,0.2418,4.5366,0.8898,6.8022,1.3549
		c0.3662,0.0771,0.728,0.1541,1.3057,0.2803v-1.6496c-0.0093-28.9621-0.0112-57.9241-0.0498-86.8814
		c0-1.3645,0.2725-2.08,1.7505-2.5403c5.9038-1.8325,11.6982-4.0136,17.6206-5.7653c4.4033-1.3009,8.9351-2.1714,13.4263-3.1537
		c3.98-0.8657,7.9736-1.7266,11.9902-2.3939c4.0781-0.677,8.186-1.1998,12.2969-1.6438c6.5181-0.7116,13.0454-1.3645,19.5771-1.92
		c3.6011-0.3101,7.2261-0.3631,10.8389-0.5325c0.4624-0.0193,0.9282,0,1.4995,0c0.0415,0.6529,0.0991,1.1613,0.0991,1.6736
		c-0.0049,34.3113-0.1763,68.6275,0.0811,102.9398c0.0806,10.6696-4.8398,17.4893-13.9092,21.9584
		c-5.0132,2.4719-10.375,3.197-15.9321,2.6606c-6.0728-0.5855-11.2236-3.0093-15.2236-7.6421
		c-3.5137-4.0733-4.5298-9.0258-3.4917-14.0506c1.4629-7.0816,6.0483-12.0341,12.377-15.3958
		c5.0835-2.7031,10.5195-3.8403,16.2397-3.3906c1.9678,0.1598,3.9028,0.7549,5.8516,1.1565
		c0.4556,0.0915,0.9053,0.2321,1.5166,0.3861c0.0317-0.5941,0.0752-1.0486,0.0752-1.5089
		c0.0049-15.3362,0.0049-30.6791,0.0049-46.021l-0.0005-0.3232c-0.0063-1.5103-0.1138-1.4668-1.8599-1.1906
		c-0.7974,0.1214-1.6201,0.0915-2.4277,0.1791c-5.9106,0.6385-11.833,1.2047-17.731,1.9587
		c-4.52,0.5807-9.0278,1.3106-13.5063,2.1571c-3.437,0.6432-6.8149,1.5821-10.2231,2.3756
		c-2.3013,0.5267-4.6328,0.9524-6.916,1.5619c-3.6353,0.9774-7.25,2.0405-10.8486,3.1441c-0.3198,0.1011-0.6431,0.7588-0.6577,1.17
		c-0.0654,1.7651-0.0078,3.535-0.0078,5.3059c-0.0029,20.9329-0.1133,41.8667,0.0366,62.7949
		c0.0723,9.8762-4.9844,16.1402-13.229,20.4745c-3.3511,1.7593-6.9526,2.7271-10.7129,3.1143h-5.7363
		c-1.1587-0.2273-2.3267-0.416-3.4775-0.6914c-5.458-1.3019-9.9688-4.0194-13.1147-8.7977
		c-1.6108-2.4478-2.2827-5.1663-2.6221-8.0099V188.2422z"/>
</g>
</svg>
