<?xml version="1.0" encoding="utf-8"?>
<!-- Generator: Adobe Illustrator 24.3.0, SVG Export Plug-In . SVG Version: 6.00 Build 0)  -->
<svg version="1.1" id="Layer_1" xmlns="http://www.w3.org/2000/svg" xmlns:xlink="http://www.w3.org/1999/xlink" x="0px" y="0px"
	 width="270px" height="270px" viewBox="0 0 270 270" enable-background="new 0 0 270 270" xml:space="preserve">
<g>
	<g>
		<defs>
			<rect id="SVGID_121_" x="0" width="270" height="270"/>
		</defs>
		<clipPath id="SVGID_2_">
			<use xlink:href="#SVGID_121_"  overflow="visible"/>
		</clipPath>
		<g clip-path="url(#SVGID_2_)">
			<defs>
				<path id="SVGID_123_" d="M192.3541,62.2607c-0.5711,0-1.0371-0.0193-1.4994,0c-3.613,0.1694-7.2376,0.2224-10.8391,0.5325
					c-6.5317,0.5556-13.0587,1.2085-19.577,1.9201c-4.1109,0.444-8.2189,0.9668-12.297,1.6438
					c-4.0166,0.6673-8.01,1.5282-11.9899,2.3939c-4.4913,0.9823-9.023,1.8528-13.4266,3.1537
					c-5.9222,1.7517-11.7164,3.9328-17.6203,5.7653c-1.4781,0.4603-1.7507,1.1758-1.7507,2.5403
					c0.0386,28.9573,0.0405,57.9193,0.0501,86.8814v1.6496c-0.5778-0.1262-0.9398-0.2032-1.3058-0.2803
					c-2.2658-0.4651-4.5124-1.1131-6.8023-1.3549c-2.9919-0.2994-5.9492,0.1695-8.8901,0.9091
					c-5.7653,1.4464-10.6407,4.2611-14.5224,8.7938c-2.8292,3.303-4.4422,7.1144-4.8755,11.4333v2.0078
					c0.339,2.8436,1.0111,5.5621,2.6221,8.0099c3.146,4.7782,7.6565,7.4957,13.1146,8.7976
					c1.1507,0.2754,2.3188,0.4641,3.4773,0.6914h5.7364c3.7604-0.3871,7.3619-1.3549,10.713-3.1142
					c8.2449-4.3343,13.3014-10.5984,13.2292-20.4745c-0.1502-20.9281-0.0395-41.8619-0.0366-62.7948
					c0-1.7709-0.0578-3.5408,0.0077-5.3059c0.0144-0.4112,0.338-1.0689,0.6577-1.17c3.5986-1.1036,7.2136-2.1667,10.8487-3.1441
					c2.2832-0.6095,4.6146-1.0352,6.916-1.5619c3.408-0.7935,6.786-1.7324,10.2229-2.3756
					c4.4787-0.8465,8.9863-1.5764,13.5065-2.1571c5.8981-0.754,11.8204-1.3202,17.731-1.9587
					c0.8079-0.0876,1.6303-0.0577,2.4276-0.1791c1.746-0.2762,1.8535-0.3197,1.8601,1.1906l0.0004,0.3232
					c0,15.3419,0,30.6848-0.0048,46.021c0,0.4603-0.0434,0.9148-0.0751,1.5089c-0.6115-0.154-1.0612-0.2946-1.5167-0.3861
					c-1.949-0.4016-3.8836-0.9967-5.8519-1.1565c-5.72-0.4497-11.156,0.6875-16.2394,3.3906
					c-6.3286,3.3617-10.9143,8.3142-12.377,15.3958c-1.0381,5.0247-0.0221,9.9773,3.4917,14.0506
					c4.0002,4.6328,9.151,7.0566,15.2235,7.6421c5.5572,0.5364,10.919-0.1888,15.9322-2.6607
					c9.0692-4.4691,13.9899-11.2888,13.9091-21.9584c-0.2572-34.3123-0.0858-68.6285-0.0809-102.9398
					C192.4533,63.422,192.3955,62.9136,192.3541,62.2607z M135,5c71.7947,0,130,58.2005,130,130s-58.2053,130-130,130
					S5,206.7995,5,135S63.2053,5,135,5z"/>
			</defs>
			<clipPath id="SVGID_4_">
				<use xlink:href="#SVGID_123_"  overflow="visible"/>
			</clipPath>
			<g clip-path="url(#SVGID_4_)">
				<defs>
					<rect id="SVGID_125_" x="0" width="270" height="270"/>
				</defs>
				<clipPath id="SVGID_6_">
					<use xlink:href="#SVGID_125_"  overflow="visible"/>
				</clipPath>
				<rect x="0" clip-path="url(#SVGID_6_)" width="270" height="270"/>
			</g>
		</g>
	</g>
</g>
</svg>
