<?xml version="1.0" encoding="utf-8"?>
<!-- Generator: Adobe Illustrator 24.3.0, SVG Export Plug-In . SVG Version: 6.00 Build 0)  -->
<svg version="1.1" id="Layer_1" xmlns="http://www.w3.org/2000/svg" xmlns:xlink="http://www.w3.org/1999/xlink" x="0px" y="0px"
	 width="270px" height="270px" viewBox="0 0 270 270" enable-background="new 0 0 270 270" xml:space="preserve">
<g>
	<g>
		<defs>
			<rect id="SVGID_25_" x="0" y="0" width="270" height="270"/>
		</defs>
		<clipPath id="SVGID_2_">
			<use xlink:href="#SVGID_25_"  overflow="visible"/>
		</clipPath>
		<g clip-path="url(#SVGID_2_)">
			<defs>
				<path id="SVGID_27_" d="M194.8106,73.6968c-5.433-2.5047-11.1463-2.7425-16.953-1.7372
					c-5.2308,0.9043-10.164,2.6867-14.7824,5.2915c-7.3099,4.1234-13.4064,9.5064-17.4027,17.0165
					c-1.7728,3.3319-2.7377,6.9112-3.0343,10.6639c-0.0915,1.1276,0.1474,1.3462,1.0487,1.2085
					c2.9351-0.4314,5.8654-0.8927,8.8101-1.249c2.3034-0.2792,4.5809,0.0106,6.734,0.8889
					c1.9192,0.7877,3.4272,2.1175,3.6487,4.2707c0.2436,2.3872,0.3072,4.8244,0.2157,7.2261
					c-0.2417,6.2612-2.2119,12.0553-5.1624,17.5201c-4.3998,8.1505-10.6157,14.7565-17.6386,20.6777
					c-0.6115,0.5133-1.0843,0.4931-1.7295,0.0809c-3.4099-2.2042-5.8009-5.2703-7.541-8.8766
					c-2.546-5.2607-3.7777-10.9123-4.5163-16.6564c-0.726-5.666-1.2037-11.3591-1.8055-17.0415
					c-0.5152-4.9362-0.9871-9.8771-1.5899-14.8027c-0.5152-4.1898-1.429-8.3026-2.9399-12.2585
					c-1.0737-2.7984-2.4498-5.4138-4.5192-7.6382c-3.3386-3.5803-7.4745-5.1432-12.3201-5.1798
					c-0.2038,0.0211-0.4079,0.04-0.6123,0.0579l-1.2278,0.1017c-0.8183,0.0693-1.6343,0.1516-2.4355,0.3084
					c-5.1239,0.9899-9.7144,3.2799-13.9928,6.1591C76.8534,85.2543,69.323,91.632,62.2279,98.5133
					c-1.9096,1.8586-3.5697,3.9405-4.7224,6.3671c-1.1219,2.3776-1.3732,4.7032,0.4901,6.8766
					c0.5335,0.6201,1.041,1.2701,1.5687,1.8893c1.4936,1.7564,2.8167,2.0251,4.8456,0.9033
					c0.7993-0.4363,1.5176-1.0256,2.287-1.5225c1.7064-1.092,3.3242-2.3824,5.1567-3.1951
					c2.7647-1.2085,5.3733-1.1729,7.3965,1.2393c2.1609,2.5846,3.9183,5.4032,5.3165,8.45
					c2.2023,4.8293,3.8345,9.8617,5.0324,15.0107c0.9252,3.9793,1.8233,7.9644,2.7125,11.9515l2.6593,11.9639l1.3439,5.9798
					c1.897,8.3431,4.0531,16.6207,7.7287,24.3957c2.0444,4.3266,4.5934,8.3277,8.3826,11.3851
					c3.8894,3.1383,8.3431,4.5798,13.3265,4.0676c4.2437-0.4526,8.1967-1.9096,11.9773-3.8239
					c8.1476-4.1186,15.2476-9.6999,21.7976-15.9967c6.0176-5.7739,11.5171-12.0293,16.72-18.5496
					c8.3758-10.5069,15.4093-21.786,20.3252-34.3383c4.3545-11.1106,7.7875-22.5015,10.453-34.1303
					c0.3534-1.5446,0.6153-3.1537,0.5595-4.7281c-0.0492-1.4416-0.5114-2.8889-0.9149-4.3006
					C204.8042,81.831,201.171,76.6261,194.8106,73.6968z M135,5c71.7966,0,130,58.2053,130,130c0,71.7995-58.2034,130-130,130
					S5,206.7995,5,135C5,63.2053,63.2034,5,135,5z"/>
			</defs>
			<clipPath id="SVGID_4_">
				<use xlink:href="#SVGID_27_"  overflow="visible"/>
			</clipPath>
			<g clip-path="url(#SVGID_4_)">
				<defs>
					<rect id="SVGID_29_" x="0" y="0" width="270" height="270"/>
				</defs>
				<clipPath id="SVGID_6_">
					<use xlink:href="#SVGID_29_"  overflow="visible"/>
				</clipPath>
				<rect x="0" y="0" clip-path="url(#SVGID_6_)" width="270" height="270"/>
			</g>
		</g>
	</g>
</g>
</svg>
