<?xml version="1.0" encoding="utf-8"?>
<!-- Generator: Adobe Illustrator 24.3.0, SVG Export Plug-In . SVG Version: 6.00 Build 0)  -->
<svg version="1.1" id="Layer_1" xmlns="http://www.w3.org/2000/svg" xmlns:xlink="http://www.w3.org/1999/xlink" x="0px" y="0px"
	 width="270px" height="270px" viewBox="0 0 270 270" enable-background="new 0 0 270 270" xml:space="preserve">
<g>
	<g>
		<defs>
			<rect id="SVGID_133_" width="270" height="270"/>
		</defs>
		<clipPath id="SVGID_2_">
			<use xlink:href="#SVGID_133_"  overflow="visible"/>
		</clipPath>
		<g clip-path="url(#SVGID_2_)">
			<defs>
				<path id="SVGID_135_" d="M135,5C63.2034,5,5,63.2024,5,135c0,71.7966,58.2034,130,130,130s130-58.2034,130-130
					C265,63.2024,206.7966,5,135,5z M146.7453,168.0576c-6.5559,9.4023-15.4614,15.5749-26.4314,18.8259
					c-6.4471,1.9105-13.0366,2.7088-19.7302,2.3487c-11.0519-0.5961-21.1033-4.1032-30.0666-10.6716
					c-6.9921-5.1239-12.4896-11.5267-16.4753-19.1996c-2.9313-5.6439-4.8437-11.6239-5.6507-17.9698
					c-0.4555-3.5793-0.6587-7.1606-0.4401-10.7361c0.6028-9.8367,3.5244-18.9309,9.021-27.1729
					c8.0051-12.0023,19.0282-19.7552,32.9536-23.3316c2.9486-0.7569,6.033-1.0564,9.0759-1.3462
					c2.4786-0.2369,4.9968-0.3091,7.4812-0.1657c6.7754,0.39,13.313,1.8133,19.5058,4.7205
					c4.7455,2.2273,9.1231,4.9718,13.0019,8.5029c0.4372,0.3978,0.9033,0.7646,1.5022,1.2692
					c-0.5488,0.4844-1.0207,0.858-1.4425,1.2798c-4.6829,4.6752-9.3696,9.3465-14.0217,14.0516
					c-0.5845,0.5912-0.9264,0.5845-1.5224,0.0356c-4.266-3.9241-9.3273-6.2939-15.0117-7.1876
					c-8.8082-1.3857-16.9,0.547-24.0798,5.8674c-7.3387,5.4388-11.7799,12.7284-13.1483,21.7629
					c-1.4387,9.49,0.9061,18.0826,6.8361,25.5975c5.3676,6.8024,12.3702,11.0404,21.0311,12.0621
					c8.345,0.9841,16.2885-0.3746,23.2941-5.3435c5.4888-3.8932,8.8457-9.2396,10.218-15.8282
					c0.0173-0.0819,0.0019-0.1705,0.0019-0.3274c-0.3515,0-0.6924,0.0009-1.0333,0c-9.1491-0.0019-18.2972-0.0048-27.4454-0.0077
					c-1.1267,0-1.1295-0.001-1.1315-1.1527c-0.0057-6.7321,0.002-13.4641-0.0308-20.1962c-0.0048-0.7983,0.2379-1.0159,1.0275-1.015
					c16.743,0.0202,33.4861,0.0212,50.2291-0.0038c0.7781-0.001,1.0747,0.2542,1.1479,0.987
					c0.2503,2.5095,0.5874,5.0113,0.779,7.5236c0.1464,1.9154,0.209,3.8452,0.1579,5.7653
					C156.0475,148.2456,153.2385,158.7457,146.7453,168.0576z M222.0798,137.4238c0,0.4381-0.3554,0.7935-0.7935,0.7935h-18.5014
					v18.5023c0,0.4382-0.3553,0.7935-0.7945,0.7935h-12.5156c-0.4381,0-0.7935-0.3553-0.7935-0.7935v-18.5023h-18.5014
					c-0.4391,0-0.7944-0.3554-0.7944-0.7935v-12.5157c0-0.4381,0.3553-0.7934,0.7944-0.7934h18.5014v-18.5024
					c0-0.4382,0.3554-0.7935,0.7935-0.7935h12.5156c0.4392,0,0.7945,0.3553,0.7945,0.7935v18.5024h18.5014
					c0.4381,0,0.7935,0.3553,0.7935,0.7934V137.4238z"/>
			</defs>
			<clipPath id="SVGID_4_">
				<use xlink:href="#SVGID_135_"  overflow="visible"/>
			</clipPath>
			<g clip-path="url(#SVGID_4_)">
				<defs>
					<rect id="SVGID_137_" width="270" height="270"/>
				</defs>
				<clipPath id="SVGID_6_">
					<use xlink:href="#SVGID_137_"  overflow="visible"/>
				</clipPath>
				<rect clip-path="url(#SVGID_6_)" width="270" height="270"/>
			</g>
		</g>
	</g>
</g>
</svg>
