<?xml version="1.0" encoding="utf-8"?>
<!-- Generator: Adobe Illustrator 24.3.0, SVG Export Plug-In . SVG Version: 6.00 Build 0)  -->
<svg version="1.1" id="Layer_1" xmlns="http://www.w3.org/2000/svg" xmlns:xlink="http://www.w3.org/1999/xlink" x="0px" y="0px"
	 width="270px" height="270px" viewBox="0 0 270 270" enable-background="new 0 0 270 270" xml:space="preserve">
<g>
	<g>
		<defs>
			<rect id="SVGID_157_" x="0" width="270" height="270"/>
		</defs>
		<clipPath id="SVGID_2_">
			<use xlink:href="#SVGID_157_"  overflow="visible"/>
		</clipPath>
		<g clip-path="url(#SVGID_2_)">
			<defs>
				<path id="SVGID_159_" d="M135.3043,97.1247c4.8591-1.4194,9.6951-1.1411,14.5504-0.0635
					c0.9803,0.2167,1.9625,0.4189,3.0776,0.6567c-0.5258,2.7897-1.0313,5.4802-1.5407,8.1708
					c-1.3809,7.3012-2.7243,14.6091-4.1552,21.9006c-1.9789,10.0813-4.9343,19.8303-10.2517,28.7204
					c-2.8148,4.707-6.1803,8.9469-10.8449,11.9879c-3.5842,2.3362-7.4514,3.4725-11.7097,2.3487
					c-4.2399-1.1199-6.6897-4.1947-8.3257-8.0379c-1.6583-3.9-2.2948-8.0195-2.3256-12.2248
					c-0.1146-15.6577,4.7012-29.6419,14.5764-41.7897C122.8281,103.2896,128.3604,99.1537,135.3043,97.1247z M159.0269,68.6933
					c-4.3757-0.2061-8.7774,0.0048-13.1637,0.1521c-5.747,0.1926-11.4073,1.1122-16.9722,2.5259
					c-24.6018,6.2554-42.4089,20.876-53.4272,43.7137c-5.2125,10.8054-8.0273,22.2627-8.7861,34.2352
					c-0.4112,6.4904-0.338,12.948,1.0756,19.3354c1.6467,7.4456,4.6444,14.2431,9.9195,19.8437
					c8.4904,9.0153,19.1273,11.9273,31.1335,10.4462c9.672-1.1931,17.7513-5.6622,24.57-12.5253
					c4.0329-4.0599,7.2926-8.6936,10.0746-13.6789c0.1829-0.3255,0.4323-0.6144,0.6509-0.9206
					c0.0857,0.0385,0.1714,0.078,0.2562,0.1165c-0.6529,8.2353-1.3058,16.4696-1.9645,24.7809h33.3349
					c0.0183-0.389,0.0356-0.6972,0.0453-1.0044c0.1993-6.6512,0.1695-13.3187,0.6558-19.9487
					c0.623-8.501,1.4078-17.0078,2.5894-25.4472c1.324-9.4631,3.1508-18.8568,4.7936-28.2746
					c1.4146-8.1129,2.8764-16.2182,4.3208-24.3273c1.2971-7.2848,2.5885-14.5716,3.9173-21.8516
					c0.156-0.8541-0.0317-1.247-0.8859-1.5108C180.6887,71.1151,169.9681,69.2113,159.0269,68.6933z M135,5
					c71.7966,0,130,58.2053,130,130c0,71.7995-58.2034,130-130,130S5,206.7995,5,135C5,63.2053,63.2034,5,135,5z"/>
			</defs>
			<clipPath id="SVGID_4_">
				<use xlink:href="#SVGID_159_"  overflow="visible"/>
			</clipPath>
			<g clip-path="url(#SVGID_4_)">
				<defs>
					<rect id="SVGID_161_" x="0" width="270" height="270"/>
				</defs>
				<clipPath id="SVGID_6_">
					<use xlink:href="#SVGID_161_"  overflow="visible"/>
				</clipPath>
				<rect x="0" clip-path="url(#SVGID_6_)" width="270" height="270"/>
			</g>
		</g>
	</g>
</g>
</svg>
