<?xml version="1.0" encoding="utf-8"?>
<!-- Generator: Adobe Illustrator 24.3.0, SVG Export Plug-In . SVG Version: 6.00 Build 0)  -->
<svg version="1.1" id="Layer_1" xmlns="http://www.w3.org/2000/svg" xmlns:xlink="http://www.w3.org/1999/xlink" x="0px" y="0px"
	 width="270px" height="270px" viewBox="0 0 270 270" enable-background="new 0 0 270 270" xml:space="preserve">
<g>
	<path d="M134.9998,265c71.7969,0,130-58.2005,130-130c0-71.7947-58.2031-130-130-130c-71.7964,0-130,58.2053-130,130
		C4.9999,206.7995,63.2035,265,134.9998,265z M160.8451,49.5216c29.1362,2.2563,52.3984,25.4184,54.7993,54.5191h-13.729
		c-2.3218-21.5097-19.522-38.6234-41.0703-40.8026V49.5216z M160.8451,72.9496c16.251,2.078,29.1411,14.8816,31.3618,31.0911
		h-13.8975c-1.9434-8.6291-8.7939-15.418-17.4644-17.2341V72.9496z M126.3353,88.4976c53.6255,0,44.4551,46.3155,22.3853,44.9145
		c-22.0732-1.3915-17.2563-21.4423-16.3232-25.6418c0.9321-4.1985-0.4673-10.1024-11.0356-10.4164
		c-10.5698-0.3091-25.1807,12.2817-25.1807,37.7684c0,25.4964-0.3477,62.8006,31.3984,62.8006s54.0913-29.067,54.0913-29.067
		l6.062,5.6005c0,0-24.8706,32.9459-67.9253,32.9459c-43.0532,0-52.3813-39.6327-52.3813-60.1534
		C67.4261,126.7349,72.7098,88.4976,126.3353,88.4976z"/>
</g>
</svg>
