<?xml version="1.0" encoding="utf-8"?>
<!-- Generator: Adobe Illustrator 24.3.0, SVG Export Plug-In . SVG Version: 6.00 Build 0)  -->
<svg version="1.1" id="Layer_1" xmlns="http://www.w3.org/2000/svg" xmlns:xlink="http://www.w3.org/1999/xlink" x="0px" y="0px"
	 width="270px" height="270px" viewBox="0 0 270 270" enable-background="new 0 0 270 270" xml:space="preserve">
<g>
	<path d="M135.0002,265c71.7993,0,130-58.2025,130-130c0-71.7966-58.2007-130-130-130c-71.7949,0-130,58.2034-130,130
		C5.0002,206.7975,63.2053,265,135.0002,265z M83.594,85.7945h102.812c6.0791,0,11.1748,5.0334,11.1748,11.1829
		c0,7.826-5.7988,14.8875-11.9434,19.1514c-10.895,7.5506-21.8613,15.0964-32.686,22.7182
		c-4.541,3.1431-12.2236,9.5729-17.8799,9.5729h-0.1426c-5.6567,0-13.3389-6.4298-17.8804-9.5729
		c-10.8237-7.6218-21.791-15.1676-32.6147-22.7182c-4.959-3.3569-12.0146-11.2541-12.0146-17.6126
		C72.4192,91.6638,76.1194,85.7945,83.594,85.7945z M72.4192,117.5241c2.0972,2.3092,4.4697,4.3363,7.0557,6.0831
		c11.5928,7.8972,23.3286,15.7945,34.7129,24.1145c5.8643,4.3304,13.1299,9.645,20.7412,9.645h0.1426
		c7.6118,0,14.8765-5.3146,20.7412-9.645c11.3838-8.2487,23.1196-16.2173,34.7842-24.1145
		c2.5142-1.7468,4.8867-3.7739,6.9839-6.0831v55.4985c0,6.1495-5.0293,11.1829-11.1748,11.1829H83.594
		c-6.1455,0-11.1748-5.0334-11.1748-11.1829V117.5241z"/>
</g>
</svg>
