<?xml version="1.0" encoding="utf-8"?>
<!-- Generator: Adobe Illustrator 24.3.0, SVG Export Plug-In . SVG Version: 6.00 Build 0)  -->
<svg version="1.1" id="Layer_1" xmlns="http://www.w3.org/2000/svg" xmlns:xlink="http://www.w3.org/1999/xlink" x="0px" y="0px"
	 width="270px" height="270px" viewBox="0 0 270 270" enable-background="new 0 0 270 270" xml:space="preserve">
<g>
	<path d="M134.9999,265c71.7969,0,130-58.2005,130-130c0-71.7947-58.2031-130-130-130c-71.7964,0-130,58.2053-130,130
		C4.9999,206.7995,63.2036,265,134.9999,265z M66.6777,149.3202c0.7588-11.9725,3.5737-23.4298,8.7861-34.2352
		c11.0181-22.8377,28.8252-37.4583,53.4272-43.7137c5.5649-1.4137,11.2251-2.3333,16.9722-2.5259
		c4.3862-0.1473,8.7881-0.3582,13.1636-0.1521c10.9414,0.518,21.6621,2.4218,32.1382,5.6603
		c0.854,0.2638,1.0415,0.6567,0.8857,1.5108c-1.3286,7.28-2.6201,14.5668-3.9175,21.8516
		c-1.4443,8.1091-2.9062,16.2144-4.3208,24.3273c-1.6426,9.4178-3.4692,18.8115-4.7935,28.2746
		c-1.1816,8.4395-1.9663,16.9462-2.5894,25.4472c-0.4863,6.63-0.4565,13.2976-0.6558,19.9488
		c-0.0098,0.3072-0.0269,0.6153-0.0454,1.0043h-33.335c0.6587-8.3113,1.3115-16.5456,1.9644-24.7809
		c-0.0845-0.0385-0.1704-0.078-0.2559-0.1165c-0.2188,0.3062-0.4683,0.5952-0.6509,0.9206
		c-2.7822,4.9853-6.042,9.619-10.0747,13.6789c-6.8188,6.863-14.8979,11.3322-24.5698,12.5253
		c-12.0063,1.481-22.6431-1.431-31.1338-10.4462c-5.2749-5.6006-8.2729-12.3981-9.9194-19.8438
		C66.3398,162.2682,66.2665,155.8106,66.6777,149.3202z M106.1044,162.8084c-1.6582-3.9-2.2949-8.0195-2.3257-12.2248
		c-0.1147-15.6577,4.7012-29.6419,14.5767-41.7897c4.4727-5.5043,10.0049-9.6402,16.9487-11.6692
		c4.8594-1.4194,9.6953-1.1411,14.5508-0.0635c0.98,0.2167,1.9624,0.4189,3.0771,0.6567c-0.5254,2.7897-1.0312,5.4802-1.5405,8.1708
		c-1.3809,7.3012-2.7241,14.6091-4.1553,21.9006c-1.979,10.0813-4.9341,19.8303-10.2515,28.7204
		c-2.8149,4.707-6.1807,8.9469-10.8447,11.9879c-3.5845,2.3362-7.4517,3.4725-11.71,2.3487
		C110.1904,169.7264,107.7407,166.6516,106.1044,162.8084z"/>
</g>
</svg>
