<?xml version="1.0" encoding="utf-8"?>
<!-- Generator: Adobe Illustrator 24.3.0, SVG Export Plug-In . SVG Version: 6.00 Build 0)  -->
<svg version="1.1" id="Layer_1" xmlns="http://www.w3.org/2000/svg" xmlns:xlink="http://www.w3.org/1999/xlink" x="0px" y="0px"
	 width="270px" height="270px" viewBox="0 0 270 270" enable-background="new 0 0 270 270" xml:space="preserve">
<g>
	<path d="M135,265c71.7964,0,130-58.2005,130-130c0-71.7947-58.2036-130-130-130C63.2032,5,5,63.2053,5,135
		C5,206.7995,63.2032,265,135,265z M152.5733,74.0059c0-0.7-0.0029-0.7,0.7104-0.7c2.021-0.0049,4.0415,0,6.062,0
		c0.6631,0,0.7041-0.0043,0.7065,0.5901v0.1187c0,10.5146-0.002,21.034,0.0049,31.5495c0,0.4131,0.0522,0.8215,0.1445,1.222
		c0.207,0.9929,1.0205,1.4926,2.0308,1.2972c1.3442-0.2668,2.3208-1.1094,3.2012-2.0849c0.3125-0.3505,0.6191-0.7135,0.8657-1.1054
		c0.1377-0.2292,0.1973-0.5345,0.1973-0.8137c0.0068-10.01,0.0049-20.0287,0.0068-30.0358c0-0.2254,0.0229-0.4584,0.0337-0.7376
		l2.8398-0.0004c1.4038,0.0007,2.7886,0.004,4.1733,0.0167c0.1309,0,0.2896,0.2128,0.3823,0.3631
		c0.0576,0.0914,0.0142,0.2503,0.0142,0.3746c0,13.2224-0.0044,26.4487,0.0088,39.6711c0,0.4507-0.0972,0.6337-0.5933,0.625
		c-2.0723-0.025-4.1494-0.0077-6.2256-0.0116h-0.6333v-4.0454c-0.4673,0.3698-0.9717,0.7367-1.4263,1.1594
		c-1.5542,1.4175-3.1787,2.7146-5.2759,3.2443c-1.3774,0.3505-2.7563,0.3505-4.0879-0.1589
		c-1.3809-0.5248-2.2842-1.5812-2.5781-2.9862c-0.313-1.4887-0.5312-3.0198-0.54-4.5384
		C152.5508,96.0087,152.5733,85.0097,152.5733,74.0059z M124.521,85.7637c0.0415-2.1262,0.2407-4.2582,1.0239-6.2602
		c1.4116-3.6198,4.0093-5.8982,7.8862-6.5231c2.7524-0.4468,5.4438-0.1917,7.8667,1.3385c2.7598,1.7439,4.2949,4.2967,4.8369,7.4957
		c0.3706,2.1936,0.4331,4.4007,0.4229,6.6271c-0.0127,4.4181,0.041,8.8352-0.0225,13.2562
		c-0.0356,2.3688-0.2646,4.7464-1.1978,6.9824c-1.0093,2.4103-2.6606,4.2669-5.0596,5.2751
		c-3.6592,1.5485-7.3135,1.456-10.7437-0.6789c-2.3042-1.4309-3.7104-3.5706-4.3584-6.2025
		c-0.4824-1.952-0.6719-3.9289-0.6704-5.9396c0.0039-2.4238,0-4.835,0-7.253C124.5054,91.1698,124.4683,88.4677,124.521,85.7637z
		 M96.6104,59.2784c2.4873-0.0039,4.9775,0.0135,7.4658-0.0167c0.5229-0.0084,0.7319,0.1833,0.8535,0.6551l0.5879,2.2069
		l1.1934,4.4077c0.6875,2.5538,1.3779,5.1056,2.0581,7.6546c0.5547,2.0646,1.0879,4.1369,1.6348,6.2024
		c0.0166,0.0415,0.0703,0.0742,0.1763,0.183c0.1636-0.5797,0.3198-1.0968,0.4595-1.6226c0.8174-3.1864,1.6226-6.3777,2.4487-9.5641
		c0.6777-2.6193,1.3848-5.2463,2.0693-7.8742c0.1704-0.6259,0.3101-1.2605,0.4941-1.8816c0.0454-0.1416,0.2524-0.3332,0.3833-0.3332
		c2.646-0.0173,5.2935-0.0135,8.0581-0.0135c-0.1128,0.443-0.1963,0.8224-0.3101,1.2057c-1.2808,4.2543-2.5615,8.5087-3.853,12.7554
		c-1.1909,3.9413-2.3975,7.8741-3.5928,11.8116c-0.6616,2.1647-1.3184,4.3344-1.9502,6.5078
		c-0.1123,0.3746-0.125,0.7867-0.125,1.1757l-0.0034,10.4171l-0.0005,10.4215c0,0.7877,0,0.7877-0.8086,0.7877
		c-2.3057,0-4.6157-0.0203-6.9229,0.0089c-0.5103,0.0074-0.6338-0.1465-0.6338-0.6339c0.0146-7.0364,0.0522-14.0689-0.0229-21.1062
		c-0.0146-1.3385-0.394-2.7021-0.7427-4.0127c-0.6963-2.6607-1.4531-5.3088-2.2559-7.9454
		c-0.6387-2.0935-1.3809-4.1455-2.082-6.2227c-0.7397-2.1772-1.48-4.3583-2.2266-6.5317c-0.9136-2.6694-1.8418-5.3349-2.7656-8.0003
		c-0.0576-0.1878-0.0981-0.3794-0.1626-0.6134C96.2569,59.2957,96.4351,59.2784,96.6104,59.2784z M71.7305,160.609
		c0.1523-3.4503,0.3506-6.8986,0.6172-10.3489c0.2329-2.94,0.519-5.8847,0.9141-8.8131c0.2954-2.1984,0.417-4.4469,1.2295-6.5606
		c0.626-1.6313,1.4761-3.0988,2.6011-4.4383c1.7729-2.1234,3.9536-3.641,6.5298-4.6088c1.6968-0.6384,3.4639-0.9514,4.6396-0.9716
		c3.6177-0.1714,6.605-0.3216,9.5889-0.443c3.6729-0.1666,7.3418-0.312,11.0146-0.441c2.5894-0.0876,5.1836-0.1887,7.7749-0.2013
		c9.5381-0.0664,19.083-0.0953,28.6201-0.129c2.0713-0.0077,4.1484-0.0125,6.2236,0.025c2.7573,0.054,5.5073,0.1503,8.2603,0.2331
		c1.96,0.0635,3.9224,0.1261,5.8857,0.2138c2.6406,0.1165,5.2827,0.2628,7.9263,0.3832c2.4238,0.1175,4.853,0.2591,7.2788,0.3467
		c3.5303,0.129,6.7676,1.118,9.5806,3.2856c3.0557,2.3535,5.0845,5.4061,5.6836,9.2396c0.5815,3.7248,1.0054,7.4832,1.3594,11.2494
		c0.3169,3.3241,0.498,6.6781,0.6499,10.0186c0.1377,2.8947,0.2593,5.7971,0.1899,8.7004c-0.106,4.2996-0.335,8.5925-0.623,12.8806
		c-0.2041,3.0565-0.5312,6.1052-0.8984,9.1385c-0.2485,2.056-0.5527,4.1167-1.0161,6.1187c-0.54,2.3438-1.8013,4.3372-3.4346,6.0898
		c-1.981,2.1358-4.4097,3.5572-7.1865,4.3882c-1.5781,0.4757-3.2241,0.5374-4.8574,0.6202
		c-2.8428,0.1464-5.6802,0.2927-8.5249,0.4304c-2.5137,0.1127-5.0308,0.2167-7.5518,0.3043
		c-3.6167,0.13-7.231,0.2417-10.8467,0.3544c-0.9033,0.0289-1.8047,0.0664-2.7012,0.0712
		c-8.3882,0.0414-16.7739,0.0876-25.1611,0.1048c-2.9351,0.0079-5.875-0.0547-8.811-0.1096
		c-2.6279-0.05-5.2598-0.1329-7.8838-0.2128c-1.8916-0.0703-3.7769-0.1454-5.6641-0.2244
		c-3.1846-0.1339-6.3691-0.2677-9.5469-0.4381c-2.1377-0.1088-4.2842-0.1955-6.4136-0.4247c-3.5117-0.389-6.521-1.873-9.0625-4.343
		c-1.874-1.8267-3.2251-3.9626-3.9116-6.4644c-0.3706-1.3684-0.5586-2.783-0.752-4.1966c-0.3062-2.2485-0.5737-4.4961-0.8042-6.7571
		c-0.208-2.0396-0.3774-4.0916-0.5103-6.1389c-0.1665-2.4537-0.2983-4.9178-0.4004-7.3744
		c-0.0552-1.4435-0.0347-2.8956-0.0347-4.3295C71.6988,164.7633,71.6426,162.6813,71.7305,160.609z M137.7164,191.4114
		c0,0.4757,0.1157,0.6096,0.6021,0.6009l2.0039-0.0167l4.002,0.0002c0.7285,0,0.7759,0.1537,0.7783-0.5281v-3.2429
		c0.2329,0.079,0.335,0.2215,0.4521,0.3419c1.6162,1.794,3.3843,3.3453,5.8418,3.925c3.1362,0.7338,6.2295-1.0391,7.1528-4.0955
		c0.6221-2.0656,0.8154-4.1831,0.832-6.3112c0.0444-5.9184,0.0063-11.8377,0.019-17.7513c0.0068-2.6453,0.0254-5.2886-0.4468-7.9011
		c-0.2876-1.6043-0.8647-3.1027-2.0684-4.2294c-1.7046-1.5927-3.7729-1.7978-5.9395-1.2711
		c-1.7354,0.4334-3.1558,1.4435-4.4087,2.6857c-0.4507,0.4545-0.8809,0.9389-1.4346,1.5225v-0.7463
		c0-5.5188-0.0088-11.0327,0.0127-16.564c0.0015-0.5623-0.1611-0.6875-0.6968-0.6828c-2.0259,0.0328-4.0425,0.029-6.0645,0.0078
		c-0.4883-0.0078-0.6377,0.1165-0.6377,0.6298c0.0117,7.1349,0.0137,14.2664,0.0142,21.3967l-0.0005,10.695
		C137.73,177.0584,137.7339,184.2373,137.7164,191.4114z M145.4395,158.7486c0.9141-0.8513,1.9565-1.4435,3.2036-1.5013
		c1.2915-0.0635,2.3276,0.3785,2.8911,1.9394c0.3311,0.9216,0.5361,1.9433,0.542,2.9323
		c0.0464,6.3806,0.0366,12.7669,0.0117,19.1485c-0.0039,1.1266-0.1831,2.2485-0.7456,3.2702
		c-0.6191,1.1257-1.7812,1.6265-3.0498,1.4185c-1.186-0.2003-2.1519-0.7714-2.9731-1.6062
		c-0.1494-0.1464-0.2095-0.4459-0.2095-0.675c-0.0112-4.0252-0.0073-8.0417-0.0073-12.0592c0-4.0117,0.0039-8.0118-0.0039-12.0207
		C145.0987,159.2532,145.1812,158.9903,145.4395,158.7486z M132.0591,103.124c-0.021-6.1861-0.0376-12.3673,0.0171-18.5563
		c0.0078-0.9928,0.2524-2.0241,0.5762-2.9785c0.5757-1.6689,1.8018-2.0356,2.9795-2.0069c1.5156,0.0338,2.5527,0.8975,2.9263,2.4026
		c0.2456,0.9765,0.4209,1.9982,0.4438,3.0121c0.0566,2.9611,0.0195,5.9135,0.0195,8.8669h-0.0342
		c0,3.25,0.0493,6.4943-0.0229,9.7356c-0.0269,1.3058-0.2896,2.6154-1.2759,3.6159c-1.4146,1.4425-3.9106,1.0631-4.8657-0.7135
		C132.2603,105.4467,132.066,104.2959,132.0591,103.124z M165.4405,181.5554c0.0913,2.2235,0.5908,4.3959,1.8218,6.2853
		c1.6353,2.5239,3.9443,4.0839,6.936,4.5885c2.4536,0.4131,4.8623,0.3178,7.1504-0.701c3.0713-1.376,5.0928-3.7488,5.7119-7.0402
		c0.3872-2.0646,0.2744-4.2255,0.3901-6.345c0.0161-0.3284-0.1465-0.3909-0.4341-0.3909c-2.2334,0.0038-4.4712,0.0077-6.7051-0.0038
		c-0.2939,0-0.3848,0.1117-0.375,0.3832c0.0098,0.3832,0.0186,0.7549-0.002,1.1344c-0.0713,1.2884-0.0527,2.6028-0.2607,3.8711
		c-0.2485,1.56-1.375,2.4854-2.8726,2.627c-1.6323,0.1502-2.9429-0.5999-3.564-2.0559c-0.4727-1.093-0.623-2.2524-0.6338-3.4243
		c-0.0249-2.2687-0.0088-4.551-0.0088-6.8197c0-0.7309,0-0.7338,0.7427-0.7338c4.4922,0,8.9824-0.0048,13.4717,0.0125
		c0.5327,0,0.6538-0.155,0.6494-0.6635c-0.0254-2.5653-0.0146-5.1259-0.0146-7.6825c0.0039-1.9154-0.1128-3.8086-0.5317-5.694
		c-0.6924-3.1027-2.311-5.5313-5.1592-7.0037c-3.0557-1.5802-6.2749-1.6505-9.4785-0.5172
		c-2.939,1.0468-4.9595,3.0873-6.0127,6.0648c-0.7231,2.0309-0.9111,4.1426-0.96,6.2612c-0.0581,2.6365-0.0166,5.2712-0.0166,7.9078
		h-0.0586C165.2901,174.9283,165.2979,178.2438,165.4405,181.5554z M172.8418,160.6841c0.1035-1.1555,0.585-2.2571,1.6348-2.8956
		c1.6592-1.0169,4.4443-0.7752,5.2012,2.028c0.2358,0.8725,0.3213,1.7893,0.3867,2.7055l0.064,0.9143
		c0.0645,0.9341-0.0107,1.8768,0.0229,2.8157c0.021,0.4921-0.1592,0.6173-0.6221,0.6047c-1.064-0.0298-2.1289-0.0085-3.1934-0.0085
		l-1.6201-0.0034l-1.624-0.0005c-0.2646,0-0.5093,0.0087-0.4946-0.3832C172.6807,164.5379,172.6788,162.6072,172.8418,160.6841z
		 M109.9996,182.3605c-0.0088-10.165-0.0068-20.3417-0.0068-30.5192v-0.1123c0.0024-0.5623,0.0405-0.5589,0.6943-0.5589
		c1.9819,0,3.9644,0.0125,5.9453-0.0138c0.52-0.0074,0.6782,0.1467,0.6763,0.6763c-0.0146,10.2276-0.0127,20.4552-0.0078,30.6867
		c0,0.5749,0.0327,1.1508,0.0952,1.7227c0.1626,1.4503,1.3975,2.131,2.8389,1.5591c1.5928-0.6337,2.6426-1.8932,3.6035-3.2278
		c0.127-0.1878,0.1001-0.4882,0.1001-0.7386c0.0068-9.8848,0.0068-19.7697,0.0068-29.6516c0-0.2041,0.0093-0.3996-0.0049-0.5912
		c-0.0205-0.314,0.127-0.4218,0.4189-0.4218c2.1646,0.0038,4.3271,0.0086,6.4951,0c0.3169,0,0.4082,0.1377,0.3975,0.4295
		c-0.0122,0.3206-0.002,0.6461-0.002,0.9754c0,12.9269-0.0059,25.8643,0.0127,38.7988c0,0.5547-0.1504,0.6962-0.6943,0.6885
		c-1.9873-0.0337-3.9683-0.025-5.9521,0c-0.5044,0.0038-0.7065-0.1165-0.6816-0.6587c0.0396-1.0428,0.0107-2.0944,0.0107-3.1412
		c0-0.1704-0.0176-0.3419-0.0317-0.6009c-0.8716,0.8301-1.6411,1.6024-2.4546,2.3188c-1.4224,1.2643-3.0132,2.2533-4.9092,2.5576
		c-2.292,0.3755-4.5684-0.155-5.6309-2.2938c-0.6074-1.2143-0.7354-2.5529-0.8223-3.8798
		C110.0181,185.0298,109.9996,183.699,109.9996,182.3605z M83.0269,144.179c0.0249-2.1474,0.0229-4.2958,0.0049-6.4394
		c-0.0049-0.4506,0.1289-0.5845,0.5815-0.5845c8.2227,0.0087,16.4482,0.0087,24.6797,0c0.415,0,0.5625,0.1039,0.5615,0.546
		c-0.0239,2.1648-0.0249,4.3305,0,6.4952c0.0059,0.5036-0.1846,0.5961-0.6362,0.5922c-2.5615-0.0173-5.1191,0.0077-7.6836-0.0212
		c-0.5635-0.0077-0.6904,0.1666-0.6904,0.7011c0.0151,15.3573,0.0112,30.7108,0.0112,46.0594v0.4294
		c-0.207,0.0135-0.3804,0.0298-0.5508,0.0298c-2.2935,0-4.5864-0.0212-6.8765,0.0088c-0.5024,0.0037-0.6313-0.134-0.6313-0.6299
		c0.0142-12.6803,0.0122-25.3683,0.0122-38.0477v-8.5385h-0.6479c-2.5098,0-5.0181-0.0126-7.5225,0.0125
		C83.1587,144.7962,83.021,144.6585,83.0269,144.179z"/>
</g>
</svg>
