<?xml version="1.0" encoding="utf-8"?>
<!-- Generator: Adobe Illustrator 24.3.0, SVG Export Plug-In . SVG Version: 6.00 Build 0)  -->
<svg version="1.1" id="Layer_1" xmlns="http://www.w3.org/2000/svg" xmlns:xlink="http://www.w3.org/1999/xlink" x="0px" y="0px"
	 width="270px" height="270px" viewBox="0 0 270 270" enable-background="new 0 0 270 270" xml:space="preserve">
<g>
	<g>
		<defs>
			<rect id="SVGID_85_" x="0" width="270" height="270"/>
		</defs>
		<clipPath id="SVGID_2_">
			<use xlink:href="#SVGID_85_"  overflow="visible"/>
		</clipPath>
		<g clip-path="url(#SVGID_2_)">
			<defs>
				<path id="SVGID_87_" d="M135,5C63.2034,5,5,63.2034,5,135s58.2034,130,130,130s130-58.2034,130-130S206.7966,5,135,5
					 M202.5018,125.1951l-1.2259,7.9339c-3.3703,21.8091-22.1414,37.9012-44.2086,37.9012h-10.3606
					c-2.9014,0-5.3762,2.1012-5.848,4.9641l-5.6257,34.1447c-0.5171,3.1383-3.2307,5.4417-6.4123,5.4417h-24.9408
					c-2.4661,0-4.3506-2.2023-3.9703-4.6396l2.3005-14.7218H71.091c-2.4199,0-4.265-2.1667-3.8798-4.5558l21.112-131.0332
					c0.5181-3.2163,3.2943-5.5804,6.551-5.5804h48.8607c35.9031,0,49.1766,17.4171,46.75,37.1656l-0.547,4.4508
					c-0.0241,0.1974-0.053,0.3929-0.079,0.5903C199.0496,103.1924,204.2573,113.837,202.5018,125.1951"/>
			</defs>
			<clipPath id="SVGID_4_">
				<use xlink:href="#SVGID_87_"  overflow="visible"/>
			</clipPath>
			<g clip-path="url(#SVGID_4_)">
				<defs>
					<rect id="SVGID_89_" x="0" width="270" height="270"/>
				</defs>
				<clipPath id="SVGID_6_">
					<use xlink:href="#SVGID_89_"  overflow="visible"/>
				</clipPath>
				<rect x="0" clip-path="url(#SVGID_6_)" width="270" height="270"/>
			</g>
		</g>
		<g clip-path="url(#SVGID_2_)">
			<defs>
				<path id="SVGID_91_" d="M103.8799,215.5807c-2.2543,0-4.0232-1.8402-4.0194-4.0175c0-0.2051,0.0164-0.4122,0.0491-0.6221
					l2.3005-14.7218l7.2396-45.9767c0.0019-0.0115,0.0039-0.024,0.0048-0.0356c-0.0009,0.0116-0.0029,0.0241-0.0048,0.0356
					l0.0048-0.0356c0.5836-3.7026,3.8191-6.4326,7.5708-6.4326h19.6618c26.9013,0,49.6061-19.916,53.1719-46.5178
					c7.9974,5.1653,12.9779,13.8946,12.9808,23.5579c0,1.4425-0.1098,2.9053-0.338,4.3805l-1.2259,7.9339
					c-3.3703,21.8091-22.1414,37.9012-44.2086,37.9012h-10.3606c-2.9014,0-5.3762,2.1012-5.848,4.9641l-5.6257,34.1447
					c-0.5171,3.1383-3.2307,5.4417-6.4123,5.4417H103.8799z"/>
			</defs>
			<clipPath id="SVGID_8_">
				<use xlink:href="#SVGID_91_"  overflow="visible"/>
			</clipPath>
			<g clip-path="url(#SVGID_8_)">
				<defs>
					<rect id="SVGID_93_" x="0" width="270" height="270"/>
				</defs>
				<clipPath id="SVGID_10_">
					<use xlink:href="#SVGID_93_"  overflow="visible"/>
				</clipPath>
				<rect x="94.8605" y="92.2567" opacity="0.5" clip-path="url(#SVGID_10_)" fill="#1A1A1A" width="112.9793" height="128.324"/>
			</g>
		</g>
		<g clip-path="url(#SVGID_2_)">
			<defs>
				<path id="SVGID_95_" d="M109.4545,150.2071l8.9979-57.9386l54.3689,0.1079c6.4702,0,12.2855,1.8113,17.0377,4.8803
					c-3.5658,26.6018-26.2706,46.5178-53.1719,46.5178h-19.6618C113.2736,143.7745,110.0381,146.5045,109.4545,150.2071"/>
			</defs>
			<clipPath id="SVGID_12_">
				<use xlink:href="#SVGID_95_"  overflow="visible"/>
			</clipPath>
			<g clip-path="url(#SVGID_12_)">
				<defs>
					<rect id="SVGID_97_" x="0" width="270" height="270"/>
				</defs>
				<clipPath id="SVGID_14_">
					<use xlink:href="#SVGID_97_"  overflow="visible"/>
				</clipPath>
				<rect x="104.4545" y="87.2685" opacity="0.3" clip-path="url(#SVGID_14_)" fill="#242424" width="90.4045" height="67.9386"/>
			</g>
		</g>
		<g clip-path="url(#SVGID_2_)">
			<defs>
				<path id="SVGID_99_" d="M109.4545,150.2071L109.4545,150.2071c0.5836-3.7026,3.8191-6.4326,7.5708-6.4326h19.6618
					c26.9013,0,49.6061-19.916,53.1719-46.5178c-3.5658,26.6018-26.2706,46.5178-53.1719,46.5178h-19.6618
					C113.2736,143.7745,110.0381,146.5045,109.4545,150.2071"/>
			</defs>
			<clipPath id="SVGID_16_">
				<use xlink:href="#SVGID_99_"  overflow="visible"/>
			</clipPath>
			<g clip-path="url(#SVGID_16_)">
				<defs>
					<rect id="SVGID_101_" x="0" width="270" height="270"/>
				</defs>
				<clipPath id="SVGID_18_">
					<use xlink:href="#SVGID_101_"  overflow="visible"/>
				</clipPath>
				<rect x="104.4545" y="92.2567" clip-path="url(#SVGID_18_)" fill="#1A1918" width="90.4045" height="62.9504"/>
			</g>
		</g>
	</g>
</g>
</svg>
