<?xml version="1.0" encoding="utf-8"?>
<!-- Generator: Adobe Illustrator 24.3.0, SVG Export Plug-In . SVG Version: 6.00 Build 0)  -->
<svg version="1.1" id="Layer_1" xmlns="http://www.w3.org/2000/svg" xmlns:xlink="http://www.w3.org/1999/xlink" x="0px" y="0px"
	 width="270px" height="270px" viewBox="0 0 270 270" enable-background="new 0 0 270 270" xml:space="preserve">
<g>
</g>
<path d="M135,5C63.2032,5,5,63.2034,5,135c0,71.7995,58.2031,130,130,130c71.7993,0,130-58.2005,130-130
	C265.0001,63.2034,206.7994,5,135,5z M217.2663,95.5521c-4.0156,5.8522-8.8702,10.898-14.5817,15.1109
	c-0.4443,0.3279-0.5985,0.6626-0.5891,1.1965c0.0347,1.9296,0.0555,3.8604,0.0244,5.7898
	c-0.0898,5.5488-0.8385,11.0231-2.0531,16.428c-2.6174,11.647-7.2667,22.4247-13.9845,32.3012
	c-4.454,6.5489-9.6929,12.3996-15.7233,17.5304c-5.5537,4.7249-11.627,8.6593-18.2198,11.784
	c-9.9631,4.7219-20.4651,7.3661-31.4475,8.159c-1.3396,0.0967-2.6792,0.1956-4.0192,0.2934c-2.2886,0-4.5772,0-6.8658,0
	c-0.3257-0.0463-0.65-0.1231-0.9765-0.1345c-4.3458-0.1515-8.6429-0.7169-12.9038-1.5571
	c-9.9567-1.9629-19.2874-5.5721-28.0268-10.7204c-0.8168-0.4809-1.6098-1.0015-2.4135-1.5036
	c8.2423,0.7858,16.311,0.1823,24.2457-2.0434c7.9275-2.2237,15.1324-5.8669,21.7447-11.0149
	c-15.2421-0.5664-25.7396-10.8555-29.0953-21.7344c4.6209,0.8064,9.1778,0.715,13.7076-0.548
	c-7.2261-1.6951-13.2173-5.3641-17.8545-11.1392c-4.6376-5.7761-6.8419-12.4167-6.8725-19.9456
	c4.4288,2.3903,8.9969,3.7145,14.0824,3.9055c-16.0625-11.335-16.4206-30.7268-9.5161-41.6633
	c7.9857,9.7071,17.5446,17.4487,28.7453,23.1318c11.1876,5.6764,23.0491,8.8075,35.6219,9.4621
	c-0.0257-0.2192-0.028-0.2943-0.0433-0.3665c-0.9183-4.2475-0.9819-8.5105-0.1421-12.7711
	c1.129-5.7283,3.6629-10.7593,7.6167-15.0687c4.2678-4.6518,9.4556-7.7696,15.5903-9.2467c1.815-0.437,3.6891-0.6285,5.5361-0.9326
	c1.3224,0,2.6445,0,3.9669,0c1.5259,0.2334,3.068,0.3905,4.5749,0.7133c6.1134,1.3097,11.3667,4.2117,15.7459,8.6784
	c0.3099,0.316,0.5895,0.4746,1.0572,0.3741c5.2483-1.1269,10.2973-2.8259,15.1009-5.2294c1.3522-0.6766,2.6778-1.407,4.1852-2.2023
	c-2.5042,7.3918-6.9866,13.0016-13.395,17.1356c6.0349-0.6775,11.8001-2.297,17.3854-4.6324
	C217.426,95.2973,217.3511,95.4283,217.2663,95.5521z"/>
</svg>
