<?xml version="1.0" encoding="utf-8"?>
<!-- Generator: Adobe Illustrator 24.3.0, SVG Export Plug-In . SVG Version: 6.00 Build 0)  -->
<svg version="1.1" id="Layer_1" xmlns="http://www.w3.org/2000/svg" xmlns:xlink="http://www.w3.org/1999/xlink" x="0px" y="0px"
	 width="270px" height="270px" viewBox="0 0 270 270" enable-background="new 0 0 270 270" xml:space="preserve">
<g>
	<g>
		<defs>
			<rect id="SVGID_1_" width="270" height="270"/>
		</defs>
		<clipPath id="SVGID_2_">
			<use xlink:href="#SVGID_1_"  overflow="visible"/>
		</clipPath>
		<g clip-path="url(#SVGID_2_)">
			<defs>
				<path id="SVGID_3_" d="M123.4714,111.7069L157.5873,135l-34.1159,23.0581V111.7069z M137.1176,89.8245h-4.2352
					c-15.2148,0-28.548,0.3139-39.9986,0.9418c-4.863,0-8.9411,1.8431-12.2344,5.5293c-3.2943,3.6863-4.941,8.1958-4.941,13.5287
					c-0.6279,11.2936-0.9418,19.6858-0.9418,25.1757c0,8.3142,0.235,16.7045,0.7058,25.1757c0,5.3329,1.6861,9.8425,5.0594,13.5287
					c3.3713,3.6862,7.489,5.5293,12.3519,5.5293c12.0775,0.6269,26.1165,0.9418,42.1161,0.9418s30.0387-0.3149,42.1161-0.9418
					c4.863,0,8.9797-1.8431,12.3529-5.5293c3.3723-3.6862,5.0585-8.1958,5.0585-13.5287
					c0.4709-8.4712,0.7058-16.8615,0.7058-25.1757c0-8.3142-0.2349-16.7055-0.7058-25.1757c0-5.3329-1.6862-9.8424-5.0585-13.5287
					c-3.3732-3.6862-7.4899-5.5293-12.3529-5.5293C165.6656,90.1384,152.3333,89.8245,137.1176,89.8245z M135,5
					c71.7966,0,130,58.2053,130,130c0,71.7995-58.2034,130-130,130S5,206.7995,5,135C5,63.2053,63.2034,5,135,5z"/>
			</defs>
			<clipPath id="SVGID_4_">
				<use xlink:href="#SVGID_3_"  overflow="visible"/>
			</clipPath>
			<g clip-path="url(#SVGID_4_)">
				<defs>
					<rect id="SVGID_5_" width="270" height="270"/>
				</defs>
				<clipPath id="SVGID_6_">
					<use xlink:href="#SVGID_5_"  overflow="visible"/>
				</clipPath>
				<rect clip-path="url(#SVGID_6_)" width="270" height="270"/>
			</g>
		</g>
	</g>
</g>
</svg>
