<?xml version="1.0" encoding="utf-8"?>
<!-- Generator: Adobe Illustrator 24.3.0, SVG Export Plug-In . SVG Version: 6.00 Build 0)  -->
<svg version="1.1" id="Layer_1" xmlns="http://www.w3.org/2000/svg" xmlns:xlink="http://www.w3.org/1999/xlink" x="0px" y="0px"
	 width="270px" height="270px" viewBox="0 0 270 270" enable-background="new 0 0 270 270" xml:space="preserve">
<g>
	<g>
		<defs>
			<rect id="SVGID_31_" width="270" height="270"/>
		</defs>
		<clipPath id="SVGID_2_">
			<use xlink:href="#SVGID_31_"  overflow="visible"/>
		</clipPath>
		<g clip-path="url(#SVGID_2_)">
			<defs>
				<path id="SVGID_33_" d="M146.7164,91.0388H88.1153c-10.9258,0-19.7879,8.8622-19.7879,19.7822v48.3629
					c0,10.9151,8.8622,19.7773,19.7879,19.7773h58.6011c10.9248,0,19.7879-8.8622,19.7879-19.7773v-11.4063l27.6784,27.6784
					c0.8311,0.8917,1.9221,1.3116,3.094,1.3116c0.5509,0,1.172-0.1396,1.7122-0.3496c1.5821-0.6818,2.6838-2.263,2.6838-4.056
					V97.6332c0-1.7882-1.1017-3.3646-2.6838-4.0512c-0.5402-0.2099-1.1613-0.3447-1.7122-0.3447
					c-1.1719,0-2.2629,0.4102-3.094,1.3057l-27.6784,27.614v-11.336C166.5043,99.901,157.6412,91.0388,146.7164,91.0388z M135,5
					c71.8043,0,130,58.2024,130,130c0,71.7947-58.1957,130-130,130C63.2034,265,5,206.7947,5,135C5,63.2024,63.2034,5,135,5z"/>
			</defs>
			<clipPath id="SVGID_4_">
				<use xlink:href="#SVGID_33_"  overflow="visible"/>
			</clipPath>
			<g clip-path="url(#SVGID_4_)">
				<defs>
					<rect id="SVGID_35_" width="270" height="270"/>
				</defs>
				<clipPath id="SVGID_6_">
					<use xlink:href="#SVGID_35_"  overflow="visible"/>
				</clipPath>
				<rect clip-path="url(#SVGID_6_)" width="270" height="270"/>
			</g>
		</g>
	</g>
</g>
</svg>
