<?xml version="1.0" encoding="utf-8"?>
<!-- Generator: Adobe Illustrator 24.3.0, SVG Export Plug-In . SVG Version: 6.00 Build 0)  -->
<svg version="1.1" id="Layer_1" xmlns="http://www.w3.org/2000/svg" xmlns:xlink="http://www.w3.org/1999/xlink" x="0px" y="0px"
	 width="270px" height="270px" viewBox="0 0 270 270" enable-background="new 0 0 270 270" xml:space="preserve">
<g>
	<g>
		<defs>
			<rect id="SVGID_115_" x="0" width="270" height="270"/>
		</defs>
		<clipPath id="SVGID_2_">
			<use xlink:href="#SVGID_115_"  overflow="visible"/>
		</clipPath>
		<g clip-path="url(#SVGID_2_)">
			<defs>
				<path id="SVGID_117_" d="M90.3224,68.7279h-4.7869c-0.8541,0.2331-1.7093,0.4661-2.5634,0.6991
					c-5.5197,1.5485-9.7548,4.6608-10.9248,10.4857c-1.143,5.7094,0.3033,10.7814,5.1451,14.5629
					c4.2852,3.3502,9.205,3.6169,14.248,2.9765c6.7581-0.8637,12.0389-6.5924,12.5272-13.3014
					c0.4882-6.7821-3.6622-12.6071-10.376-14.5638C92.5064,69.2672,91.4115,69.0149,90.3224,68.7279z M101.953,109.1849H73.3453
					l0.0007,2.0674c0.0004,0.6751,0.0009,1.3373,0.0012,1.9903l0.0004,2.8891c-0.0003,0.6338-0.001,1.2639-0.0023,1.8942
					c-0.0385,24.6065-0.0818,49.2189-0.1261,73.8313h28.7338V109.1849z M178.0271,107.9234
					c-12.5561-2.5682-23.9951-0.495-32.4422,10.3788c-0.3563,0.4565-0.883,0.7858-1.8932,1.6602v-10.8305h-28.0415
					c-0.0635,1.1941-0.1675,2.184-0.1629,3.1797c0.0387,16.7334,0.0994,33.462,0.134,50.2003
					c0.0241,9.7817,0.0068,19.5635,0.0097,29.3453h28.0463c0.0539-15.3747,0.0924-30.758,0.1675-46.1375
					c0.0366-7.8106,4.0435-13.9418,10.3885-16.0141c10.4808-3.4137,19.3738,3.1114,19.498,14.6409
					c0.1695,15.835,0.0434,31.6796,0.0463,47.5107h28.7338v-53.3559C202.5114,122.8455,189.8889,110.3501,178.0271,107.9234z M135,5
					c71.7966,0,130,58.2053,130,130s-58.2034,130-130,130C63.2005,265,5,206.7947,5,135S63.2005,5,135,5z"/>
			</defs>
			<clipPath id="SVGID_4_">
				<use xlink:href="#SVGID_117_"  overflow="visible"/>
			</clipPath>
			<g clip-path="url(#SVGID_4_)">
				<defs>
					<rect id="SVGID_119_" x="0" width="270" height="270"/>
				</defs>
				<clipPath id="SVGID_6_">
					<use xlink:href="#SVGID_119_"  overflow="visible"/>
				</clipPath>
				<rect x="0" clip-path="url(#SVGID_6_)" width="270" height="270"/>
			</g>
		</g>
	</g>
</g>
</svg>
