<?xml version="1.0" encoding="utf-8"?>
<!-- Generator: Adobe Illustrator 24.3.0, SVG Export Plug-In . SVG Version: 6.00 Build 0)  -->
<svg version="1.1" id="Layer_1" xmlns="http://www.w3.org/2000/svg" xmlns:xlink="http://www.w3.org/1999/xlink" x="0px" y="0px"
	 width="270px" height="270px" viewBox="0 0 270 270" enable-background="new 0 0 270 270" xml:space="preserve">
<g>
	<g>
		<defs>
			<rect id="SVGID_55_" x="0" width="270" height="270"/>
		</defs>
		<clipPath id="SVGID_2_">
			<use xlink:href="#SVGID_55_"  overflow="visible"/>
		</clipPath>
		<g clip-path="url(#SVGID_2_)">
			<defs>
				<path id="SVGID_57_" d="M119.1092,83.8888c-4.5019,0.1849-9.3841,0.3245-14.2576,0.6048
					c-3.4927,0.2003-6.9873,0.4785-10.4549,0.9234c-4.2785,0.5509-8.5415,1.2374-12.7881,1.9991
					c-4.6636,0.8369-9.256,2.0088-13.806,3.3415c-5.175,1.5148-7.9127,7.072-7.1259,11.3851
					c0.9822,5.3936,5.9954,9.1492,11.4246,8.3191c0.8888-0.1358,1.767-0.3688,2.6327-0.6173
					c8.0773-2.3149,16.3184-3.7719,24.6663-4.6251c3.2837-0.3361,6.5819-0.547,9.8771-0.7395
					c5.2453-0.3063,10.4944-0.3583,15.7483-0.2052c5.0248,0.1464,10.0447,0.4006,15.0386,0.9601
					c4.4826,0.5008,8.9575,1.118,13.4151,1.8162c6.8331,1.0698,13.5614,2.6404,20.1923,4.6087
					c7.6161,2.2601,15.0145,5.0719,22.0317,8.8275c1.5417,0.8252,3.0429,1.7285,4.5914,2.5393
					c2.7502,1.4396,5.5871,1.4579,8.4269,0.3062c5.3694-2.1791,7.3079-7.9935,5.7151-12.5763
					c-0.9302-2.677-2.754-4.5384-5.1614-5.9222c-4.5317-2.6058-9.204-4.9207-14.0208-6.9478
					c-12.9672-5.4561-26.4824-8.9401-40.3443-11.1607c-7.1933-1.1527-14.4319-1.9317-21.7052-2.3275
					C128.6396,84.1488,124.0656,84.0621,119.1092,83.8888z M117.2141,121.2778c-8.1438,0.0096-16.2423,0.5961-24.2927,1.8412
					c-6.2525,0.9677-12.4155,2.3294-18.485,4.1157c-1.0612,0.312-2.0569,0.779-2.9669,1.4155
					c-2.8167,1.9693-4.1234,5.3878-3.3752,8.6946c1.015,4.4865,5.642,7.6922,10.6908,6.2535
					c0.8676-0.2465,1.7198-0.5518,2.5904-0.7877c5.6709-1.535,11.4227-2.6578,17.2486-3.4205
					c4.9313-0.6461,9.8819-1.0409,14.8527-1.142c4.5173-0.0915,9.0374-0.0886,13.5441,0.3033
					c3.6535,0.3168,7.3127,0.6211,10.9479,1.0949c6.1312,0.8002,12.1805,2.0492,18.148,3.6747
					c10.6148,2.8908,20.7509,6.9314,30.2226,12.5686c0.4853,0.2888,0.9813,0.5604,1.4887,0.806
					c1.8557,0.9032,3.797,1.092,5.7653,0.493c3.2895-0.9996,5.3916-3.2134,5.9742-6.5915c0.5595-3.251-0.3659-6.1042-3.0689-8.1967
					c-0.6895-0.5335-1.4387-0.9957-2.1908-1.4416c-7.5236-4.4662-15.4613-8.033-23.7216-10.9007
					c-12.2682-4.2592-24.8926-6.8554-37.8088-8.062C127.6035,121.5118,122.4141,121.2614,117.2141,121.2778z M118.6681,156.5887
					c-3.3,0.1357-6.6049,0.1935-9.8982,0.4266c-3.9126,0.2783-7.8232,0.622-11.7164,1.09
					c-6.3902,0.7666-12.7092,1.9722-18.9964,3.3406c-3.4946,0.7597-5.9579,3.8383-5.6564,7.2713
					c0.3284,3.7488,3.691,6.6242,7.4225,6.1485c1.4204-0.181,2.8138-0.5816,4.2187-0.8821
					c4.9949-1.0708,10.0264-1.924,15.0954-2.5711c4.4547-0.5691,8.9228-0.9533,13.4083-1.1719
					c5.9906-0.2918,11.9706-0.1522,17.9391,0.3919c5.2886,0.4834,10.5252,1.3144,15.6982,2.5239
					c10.2363,2.392,19.941,6.1187,28.9505,11.5825c0.5296,0.3216,1.0766,0.6221,1.639,0.8811
					c1.4097,0.6481,2.8812,0.7607,4.3834,0.3804c3.8826-0.9832,6.0522-5.1836,4.6241-8.9276
					c-0.6336-1.6611-1.8103-2.8273-3.302-3.7286c-3.8932-2.3535-7.9136-4.4623-12.0698-6.3122
					c-12.3124-5.4812-25.2325-8.5761-38.6225-9.7991C127.4253,156.8342,123.0535,156.6262,118.6681,156.5887z M135,5
					c71.7966,0,130,58.2053,130,130c0,71.7995-58.2034,130-130,130S5,206.7995,5,135C5,63.2053,63.2034,5,135,5z"/>
			</defs>
			<clipPath id="SVGID_4_">
				<use xlink:href="#SVGID_57_"  overflow="visible"/>
			</clipPath>
			<g clip-path="url(#SVGID_4_)">
				<defs>
					<rect id="SVGID_59_" x="0" width="270" height="270"/>
				</defs>
				<clipPath id="SVGID_6_">
					<use xlink:href="#SVGID_59_"  overflow="visible"/>
				</clipPath>
				<rect x="0" clip-path="url(#SVGID_6_)" width="270" height="270"/>
			</g>
		</g>
	</g>
</g>
</svg>
