<?xml version="1.0" encoding="utf-8"?>
<!-- Generator: Adobe Illustrator 24.3.0, SVG Export Plug-In . SVG Version: 6.00 Build 0)  -->
<svg version="1.1" id="Layer_1" xmlns="http://www.w3.org/2000/svg" xmlns:xlink="http://www.w3.org/1999/xlink" x="0px" y="0px"
	 width="270px" height="270px" viewBox="0 0 270 270" enable-background="new 0 0 270 270" xml:space="preserve">
<g>
	<path d="M134.9998,265c71.7969,0,130-58.2053,130-130s-58.2031-130-130-130c-71.7993,0-130,58.2053-130,130
		S63.2005,265,134.9998,265z M101.953,191.8572H73.2191c0.0444-24.6124,0.0879-49.2248,0.1265-73.8313
		c0.001-0.6303,0.002-1.2604,0.002-1.8942v-2.8891c-0.0005-0.653-0.001-1.3152-0.0015-1.9903l-0.0005-2.0674h28.6074V191.8572z
		 M115.6502,109.1319h28.0415v10.8305c1.0103-0.8745,1.5366-1.2037,1.8931-1.6602c8.4473-10.8738,19.8862-12.947,32.4424-10.3788
		c11.8618,2.4267,24.4844,14.9221,24.4844,30.5779v53.3559h-28.7339c-0.0029-15.8311,0.123-31.6757-0.0464-47.5107
		c-0.124-11.5295-9.0171-18.0546-19.498-14.6409c-6.3447,2.0723-10.3521,8.2035-10.3887,16.0141
		c-0.0747,15.3795-0.1133,30.7628-0.167,46.1375h-28.0464c-0.0029-9.7818,0.0142-19.5635-0.0098-29.3453
		c-0.0347-16.7383-0.0952-33.4669-0.1343-50.2003C115.4828,111.3159,115.5868,110.326,115.6502,109.1319z M72.0472,79.9127
		c1.1699-5.8249,5.4053-8.9372,10.9248-10.4857c0.854-0.233,1.7095-0.466,2.5635-0.6991h4.7866
		c1.0894,0.287,2.1841,0.5392,3.2695,0.8589c6.7139,1.9567,10.8643,7.7817,10.376,14.5638
		c-0.4883,6.709-5.769,12.4377-12.5273,13.3014c-5.043,0.6404-9.9629,0.3737-14.248-2.9765
		C72.3504,90.6941,70.9041,85.6221,72.0472,79.9127z"/>
</g>
</svg>
