<?xml version="1.0" encoding="utf-8"?>
<!-- Generator: Adobe Illustrator 24.3.0, SVG Export Plug-In . SVG Version: 6.00 Build 0)  -->
<svg version="1.1" id="Layer_1" xmlns="http://www.w3.org/2000/svg" xmlns:xlink="http://www.w3.org/1999/xlink" x="0px" y="0px"
	 width="270px" height="270px" viewBox="0 0 270 270" enable-background="new 0 0 270 270" xml:space="preserve">
<g>
	<path fill="#0D0D0C" d="M135.0002,265c71.7964,0,130-58.2006,130-130c0-71.7947-58.2036-130-130-130
		c-71.7969,0-130,58.2053-130,130C5.0002,206.7995,63.2034,265,135.0002,265z M78.5061,77.5487
		c7.2949-7.2964,16.0957-10.9442,26.4004-10.9442c7.1123,0,13.7241,1.9153,19.834,5.746c3.2827-0.6385,6.9307-0.9582,10.9434-0.9582
		c17.7827,0,32.9668,6.293,45.5508,18.877c12.585,12.585,18.877,27.7227,18.877,45.4143c0,4.4691-0.5015,9.074-1.5039,13.8156
		c2.5527,5.3811,3.8296,10.8979,3.8296,16.5524c0,10.3046-3.6475,19.1042-10.9429,26.3996
		c-7.2959,7.2954-16.0962,10.9431-26.4009,10.9431c-6.2007,0-12.083-1.4589-17.645-4.3766
		c-4.1045,0.7289-8.0254,1.0939-11.7646,1.0939c-17.6919,0-32.8296-6.292-45.4146-18.877
		c-12.584-12.585-18.877-27.7681-18.877-45.5511c0-4.2861,0.4102-8.5723,1.2319-12.8584
		c-3.3745-5.9271-5.0615-12.2191-5.0615-18.877C67.5627,93.6436,71.2102,84.8441,78.5061,77.5487z"/>
	<path fill="#0D0D0C" d="M149.636,160.7169c-2.0972,1.8239-4.3994,3.0545-6.9072,3.693c-2.5073,0.6384-5.0845,0.9572-7.7285,0.9572
		c-3.4658,0-6.4067-0.4786-8.8228-1.4357c-2.417-0.9582-4.1729-2.1889-5.2666-3.694c-1.0947-1.5042-2.1206-3.0997-3.0776-4.7869
		c-0.958-1.6871-1.7783-3.2837-2.4624-4.7878c-0.6846-1.5051-1.71-2.7358-3.0776-3.6939c-1.3682-0.9572-3.0552-1.4358-5.061-1.4358
		c-2.5542,0-4.7646,0.7752-6.6348,2.3255c-1.8691,1.5504-2.8042,3.6015-2.8042,6.1553c0,3.7392,1.3682,7.6151,4.104,11.6268
		c6.4741,9.4842,17.6914,14.2268,33.6499,14.2268c4.5596,0,8.96-0.5017,13.2002-1.5051c4.2407-1.0034,8.2305-2.5528,11.9697-4.6511
		c3.7383-2.0974,6.7476-4.9921,9.0278-8.6859c2.2793-3.6931,3.4194-8.0022,3.4194-12.9268c0-5.2886-1.3452-9.7577-4.0352-13.4054
		c-2.6904-3.6477-6.0415-6.292-10.0542-7.9339c-4.0127-1.6409-8.3672-3.1229-13.0635-4.445
		c-4.6963-1.3222-9.0508-2.3708-13.0635-3.146s-7.3638-1.9606-10.0542-3.5572c-2.6895-1.5956-4.0352-3.6246-4.0352-6.0869
		c0-3.0093,1.6641-5.2433,4.9932-6.7022c3.3281-1.4599,6.7256-2.1888,10.1909-2.1888c3.6479,0,6.6572,0.57,9.0278,1.7092
		c2.3711,1.1402,4.104,2.5085,5.1982,4.1042c1.0938,1.5956,2.0518,3.1912,2.8726,4.7878c0.8203,1.5957,1.9375,2.9631,3.3511,4.1032
		c1.4136,1.1402,3.2144,1.7102,5.4033,1.7102c2.4619,0,4.6279-0.8666,6.498-2.5991c1.8691-1.7324,2.8037-3.8307,2.8037-6.292
		c0-2.4623-0.6836-4.9246-2.0518-7.3869c-2.7358-5.0161-7.0674-8.6638-12.9951-10.9431c-5.9272-2.2803-12.2202-3.4205-18.877-3.4205
		c-4.1948,0-8.2529,0.4103-12.1738,1.2317c-3.9224,0.8204-7.7065,2.1426-11.3545,3.9664c-3.6475,1.8239-6.5884,4.4008-8.8228,7.7288
		c-2.2339,3.3289-3.3511,7.2733-3.3511,11.8329c0,6.0185,1.8242,10.8747,5.4717,14.5677c3.6475,3.6929,8.0708,6.292,13.2686,7.7971
		c5.1982,1.5041,10.4185,2.8041,15.6626,3.8979c5.2437,1.0949,9.6895,2.6223,13.3374,4.5828
		c3.6475,1.9606,5.4712,4.628,5.4712,8.0022C152.783,156.658,151.7346,158.893,149.636,160.7169z"/>
</g>
</svg>
