<?xml version="1.0" encoding="utf-8"?>
<!-- Generator: Adobe Illustrator 24.3.0, SVG Export Plug-In . SVG Version: 6.00 Build 0)  -->
<svg version="1.1" id="Layer_1" xmlns="http://www.w3.org/2000/svg" xmlns:xlink="http://www.w3.org/1999/xlink" x="0px" y="0px"
	 width="270px" height="270px" viewBox="0 0 270 270" enable-background="new 0 0 270 270" xml:space="preserve">
<g>
	<path d="M135.0001,265c71.7993,0,130-58.2034,130-130s-58.2007-130-130-130c-71.7949,0-130,58.2034-130,130
		S63.2052,265,135.0001,265z M86.5119,98.6212c0,0,15.5547-4.7397,23.4937-16.8471c4.7739-7.2829,6.853-16.1965,7.6982-21.1939
		l0.0742-0.45c0.3442-2.1198,0.4512-3.4258,0.4512-3.4258h22.9004v39.4593h36.7783v24.8425h-36.7783v51.7419
		c0,9.9378,7.3105,15.0203,19.2456,15.0203c11.938,0,22.7324-7.7076,22.7324-7.7076v24.8994c0,0-16.8496,8.3354-31.9268,8.3354
		c-12.8511,0-47.1543-1.4261-47.1543-34.8747v-57.4147H86.5119V98.6212z"/>
</g>
</svg>
