<?xml version="1.0" encoding="utf-8"?>
<!-- Generator: Adobe Illustrator 24.3.0, SVG Export Plug-In . SVG Version: 6.00 Build 0)  -->
<svg version="1.1" id="Layer_1" xmlns="http://www.w3.org/2000/svg" xmlns:xlink="http://www.w3.org/1999/xlink" x="0px" y="0px"
	 width="270px" height="270px" viewBox="0 0 270 270" enable-background="new 0 0 270 270" xml:space="preserve">
<g>
	<path d="M102.7628,111.4382c-1.2749-4.6395,2.2246-9.3706,7.0444-9.3946c8.2397-0.0415,16.4829-0.0347,24.7285-0.002
		c4.0264,0.0164,7.311,3.3656,7.3506,7.4023c0.0439,4.0435-3.2578,7.489-7.3218,7.5381c-4.1494,0.052-8.2993,0.0096-12.4517,0.0096
		v0.0029l-8.062,0.0056l-4.0312-0.0085C106.5617,116.9743,103.6779,114.7499,102.7628,111.4382z M108.0075,166.5226
		c0.7539,0.1685,1.5503,0.2128,2.3262,0.2176c16.1519,0.0106,32.3037,0.0106,48.4477,0.0106c0.4844,0,0.9648-0.0298,1.4443-0.0944
		c3.02-0.386,5.1401-2.0222,6.1782-4.8446c1.0537-2.8321,0.4902-5.4668-1.5664-7.7065c-1.5024-1.6361-3.4312-2.3776-5.6401-2.3776
		h-24.6348c-8.1245,0-16.2432,0-24.3628,0.0058c-0.5361,0-1.0825,0.0289-1.6138,0.103c-3.6411,0.5489-6.2661,3.5149-6.3921,7.1924
		C102.0753,162.5687,104.505,165.7272,108.0075,166.5226z M5.0001,135c0-71.7947,58.2031-130,130-130c71.7944,0,130,58.2053,130,130
		c0,71.7995-58.2056,130-130,130C63.2033,265,5.0001,206.7995,5.0001,135z M65.9401,135.0539h0.0225
		c0,6.6493,0,13.3024,0.0029,19.9468c0,3.7912,0.2051,7.5824,0.647,11.3447c0.4976,4.2014,1.4585,8.2892,3.1196,12.1844
		c4.793,11.2407,12.9956,18.9126,24.4517,23.0755c4.0688,1.4829,8.3643,1.9818,12.6592,2.2244
		c4.3257,0.2369,8.6582,0.3207,12.9888,0.3755c5.4473,0.0848,10.8901,0.0848,16.3354,0.0848c7.4888,0,14.9878,0.0143,22.4717-0.0704
		c3.7612-0.0443,7.5034-0.4738,11.187-1.2606c3.8398-0.8108,7.582-1.9375,11.0923-3.7074
		c6.0601-3.0545,10.9585-7.4688,14.7603-13.0742c3.9893-5.8876,6.7773-12.2402,7.6514-19.3584
		c0.4751-3.9251,0.6973-7.8597,0.7119-11.7896c0.0449-9.6392,0.0298-19.2612,0.0249-28.8879c0-0.6866-0.0586-1.3867-0.1772-2.0607
		c-0.4902-2.7686-2.0415-4.6666-4.7705-5.4379c-1.1123-0.3168-2.2983-0.495-3.4609-0.5287
		c-2.5498-0.0799-5.1113-0.0394-7.6611-0.0202c-0.6577,0.0048-1.3252,0.052-1.9722,0.1705
		c-1.5176,0.2763-2.833-0.1339-3.8711-1.2163c-0.6626-0.6865-1.2212-1.4877-1.7056-2.3082c-0.855-1.4309-1.355-3.015-1.7891-4.6126
		c-0.1484-0.5402-0.2227-1.1189-0.2319-1.6852c-0.0254-1.9817,0-3.9712-0.0205-5.954c-0.0049-0.598-0.0298-1.2191-0.1733-1.7872
		c-0.6221-2.3525-1.1758-4.7301-1.9673-7.0296c-2.3823-6.9372-6.2583-12.9018-11.8828-17.6733
		c-3.0747-2.6106-6.501-4.6444-10.1094-6.3999c-3.1836-1.5445-6.4854-2.7213-9.9849-3.2894
		c-2.7388-0.442-5.4995-0.5855-8.2661-0.5884c-8.8774-0.0173-17.75-0.0154-26.626,0.0029c-1.7446,0.0048-3.4897,0.0539-5.228,0.182
		c-1.6753,0.1261-3.3525,0.3139-5.0103,0.5941c-4.4238,0.7415-8.5732,2.315-12.5674,4.3228
		c-5.1934,2.6067-9.4565,6.2631-12.5581,11.2204c-1.5552,2.4816-2.7559,5.1336-3.7451,7.8848
		c-1.5664,4.3651-2.8638,8.7985-3.5532,13.3967c-0.5913,3.9693-0.7666,7.9627-0.7866,11.9648
		C65.9162,121.8758,65.9401,128.4653,65.9401,135.0539z"/>
</g>
</svg>
