<?xml version="1.0" encoding="utf-8"?>
<!-- Generator: Adobe Illustrator 24.3.0, SVG Export Plug-In . SVG Version: 6.00 Build 0)  -->
<svg version="1.1" id="Layer_1" xmlns="http://www.w3.org/2000/svg" xmlns:xlink="http://www.w3.org/1999/xlink" x="0px" y="0px"
	 width="270px" height="270px" viewBox="0 0 270 270" enable-background="new 0 0 270 270" xml:space="preserve">
<g>
	<path d="M110.71,120.1444C110.71,106.8093,121.5206,96,134.8545,96C148.1895,96,159,106.8093,159,120.1444
		c0,13.3351-10.8105,24.1443-24.1455,24.1443C121.5206,144.2887,110.71,133.4795,110.71,120.1444z M5,135C5,63.2034,63.2032,5,135,5
		c71.7964,0,130,58.2034,130,130s-58.2036,130-130,130C63.2032,265,5,206.7966,5,135z M85.7022,141.9333
		c10.7573,31.045,27.7168,49.7621,49.2109,75.3788c13.999-15.9005,42.875-44.1981,51.1924-79.324
		c10.7051-45.2121-21.0117-71.4326-51.1924-71.4326C104.4385,66.5555,69.9883,96.5884,85.7022,141.9333z"/>
</g>
</svg>
