<?xml version="1.0" encoding="utf-8"?>
<!-- Generator: Adobe Illustrator 24.3.0, SVG Export Plug-In . SVG Version: 6.00 Build 0)  -->
<svg version="1.1" id="Layer_1" xmlns="http://www.w3.org/2000/svg" xmlns:xlink="http://www.w3.org/1999/xlink" x="0px" y="0px"
	 width="270px" height="270px" viewBox="0 0 270 270" enable-background="new 0 0 270 270" xml:space="preserve">
<g>
	<g>
		<defs>
			<rect id="SVGID_37_" x="0" width="270" height="270"/>
		</defs>
		<clipPath id="SVGID_2_">
			<use xlink:href="#SVGID_37_"  overflow="visible"/>
		</clipPath>
		<g clip-path="url(#SVGID_2_)">
			<defs>
				<path id="SVGID_39_" d="M135,5C63.2034,5,5,63.2034,5,135c0,71.7995,58.2034,130,130,130c71.7995,0,130-58.2005,130-130
					C265,63.2034,206.7995,5,135,5z M223.6764,133.855c-4.9863,3.3463-10.506,4.5876-16.4484,4.0551
					c-0.6644-0.0607-0.7174,0.2889-0.8349,0.7232c-1.9144,7.201-4.8312,13.9629-8.8284,20.2549
					c-2.7397,4.3131-5.9338,8.269-9.5594,11.8589c-5.4234,5.381-11.568,9.7885-18.3088,13.3688
					c-8.9353,4.7474-18.4215,7.9011-28.3284,9.8511c-5.2097,1.0255-10.4636,1.6678-15.7628,2.0135
					c-4.3997,0.2841-8.7976,0.2234-13.1829-0.1849c-15.5259-1.4579-29.6025-6.7879-42.2019-15.9861
					c-6.5048-4.7484-12.3009-10.2402-17.1667-16.6815c-0.1387-0.1906-0.2735-0.3861-0.4112-0.5768
					c0.0202-0.025,0.0433-0.0481,0.0636-0.0712c0.4218,0.338,0.8378,0.6885,1.2673,1.013
					c6.3344,4.8322,13.3813,8.1399,21.2189,9.6152c8.6378,1.6226,17.0146,0.6076,25.0987-2.8253
					c5.4821-2.3237,10.4-5.5429,14.9374-9.3716c0.2716-0.2282,0.546-0.4497,0.8147-0.6808
					c0.2485-0.2186,0.4902-0.4439,0.8965-0.8127c-0.9369,0-1.7092,0.0356-2.4777-0.0049c-3.0063-0.1646-5.8047-0.9552-8.0975-3.0063
					c-2.704-2.4248-2.8408-5.6623-0.4237-8.3836c1.1469-1.2855,2.5239-2.2774,4.0117-3.1258
					c0.1974-0.1146,0.3909-0.2417,0.5604-0.4805c-0.5864,0-1.17,0-1.7564-0.0019c-4.3825-0.0125-8.4857-1.0333-12.195-3.4253
					c-2.7859-1.7978-4.9843-4.1513-6.6117-7.0402c-0.2465-0.442-0.2109-0.7415,0.1396-1.0997
					c1.767-1.8161,3.9356-2.9149,6.3479-3.5216c1.3453-0.338,2.7367-0.4824,4.1051-0.7135c0.2109-0.0366,0.4247-0.0636,0.65-0.209
					c-1.0159-0.2889-2.0386-0.5527-3.042-0.8753c-4.3112-1.3867-8.2391-3.4253-11.3697-6.7841
					c-2.4478-2.6231-3.9992-5.6882-4.5606-9.2454c-0.0934-0.5884,0.0058-0.9341,0.701-1.0207c2.7627-0.34,5.512-0.729,8.2699-1.0997
					c0.2793-0.0405,0.5585-0.078,1.0285-0.1416c-0.4622-0.2821-0.7723-0.4747-1.0795-0.6625
					c-3.7883-2.3005-7.124-5.0931-9.6306-8.788c-2.3227-3.4224-3.6641-7.1779-3.6785-11.3572
					c-0.0029-0.3505,0.0481-0.6962,0.0809-1.1478c1.3125,0.5084,2.5316,0.9774,3.7527,1.4579
					c9.8771,3.8875,19.6829,7.9415,29.2548,12.5368c4.5375,2.1792,9.0624,4.4181,13.3967,6.9603
					c2.704,1.5841,5.0883,3.7324,7.5304,5.7354c1.587,1.3,3.0141,2.7887,4.5606,4.238c0.1011-0.2735,0.2051-0.5556,0.3043-0.8378
					c3.3107-9.1818,7.2771-18.0526,12.4569-26.3534c2.4295-3.8923,5.1518-7.5708,8.4115-10.8208
					c1.7063-1.7121,3.5677-3.2404,5.6448-4.4913c0.1849-0.1145,0.3833-0.2137,0.5759-0.3177
					c0.0636,0.0356,0.1242,0.0683,0.1878,0.104c-0.5961,1.3019-1.196,2.6019-1.8383,4.004
					c3.9433-2.7676,8.0494-4.992,12.8989-5.6546c0.051,0.8937-0.2716,1.5995-0.8128,2.0945
					c-1.0862,0.9928-2.2726,1.8816-3.4252,2.7984c-0.2485,0.1983-0.5489,0.338-0.7868,0.5739
					c1.4223-0.5036,2.8205-1.0939,4.2785-1.4801c1.8508-0.4901,3.7353-0.8657,5.6237-1.1815
					c0.6452-0.106,1.3741,0.0231,2.0155,0.2243c1.2595,0.3881,1.5802,1.6505,0.6731,2.6174
					c-0.4748,0.5084-1.0535,0.9523-1.6525,1.3048c-2.6,1.5157-5.4638,2.3458-8.3363,3.1489
					c-1.3126,0.3678-2.6405,0.6702-3.978,1.1218c0.337,0.0414,0.6808,0.1021,1.0255,0.1252
					c10.6234,0.7357,19.5809,4.8793,26.5133,13.0732c5.0526,5.9665,8.2362,12.87,9.9127,20.4774
					c0.1011,0.467,0.3573,0.6067,0.7405,0.6981c2.7175,0.6452,5.4668,1.0333,8.2574,1.1383
					c3.8567,0.1444,7.6219-0.2957,11.2455-1.6939c0.079-0.0337,0.1695-0.0462,0.2533-0.0607
					c0.0163-0.0028,0.0366,0.0203,0.1377,0.0935c-0.1676,0.3476-0.3226,0.7241-0.521,1.0765
					c-1.5937,2.836-4.133,4.5452-7.0296,5.8019c-2.8773,1.2441-5.9011,1.9365-9.0066,2.2822
					c-0.6779,0.0761-1.353,0.1454-2.0309,0.2186c-0.0125,0.0732-0.0289,0.1425-0.0433,0.2138
					c1.2181,0.3775,2.417,0.8098,3.6515,1.119c1.2788,0.3206,2.5837,0.5739,3.8942,0.7665
					c1.2846,0.1858,2.5875,0.3004,3.8846,0.3611c1.3251,0.0664,2.654,0.0635,3.9761,0.0183
					c1.2981-0.0414,2.5923-0.1656,3.9838-0.2619C226.3351,131.8367,225.0679,132.92,223.6764,133.855z"/>
			</defs>
			<clipPath id="SVGID_4_">
				<use xlink:href="#SVGID_39_"  overflow="visible"/>
			</clipPath>
			<g clip-path="url(#SVGID_4_)">
				<defs>
					<rect id="SVGID_41_" x="0" width="270" height="270"/>
				</defs>
				<clipPath id="SVGID_6_">
					<use xlink:href="#SVGID_41_"  overflow="visible"/>
				</clipPath>
				<rect x="0" clip-path="url(#SVGID_6_)" width="270" height="270"/>
			</g>
		</g>
	</g>
</g>
</svg>
