<?xml version="1.0" encoding="utf-8"?>
<!-- Generator: Adobe Illustrator 24.3.0, SVG Export Plug-In . SVG Version: 6.00 Build 0)  -->
<svg version="1.1" id="Layer_1" xmlns="http://www.w3.org/2000/svg" xmlns:xlink="http://www.w3.org/1999/xlink" x="0px" y="0px"
	 width="270px" height="270px" viewBox="0 0 270 270" enable-background="new 0 0 270 270" xml:space="preserve">
<g>
	<g>
		<defs>
			<rect id="SVGID_103_" width="270" height="270"/>
		</defs>
		<clipPath id="SVGID_2_">
			<use xlink:href="#SVGID_103_"  overflow="visible"/>
		</clipPath>
		<g clip-path="url(#SVGID_2_)">
			<defs>
				<path id="SVGID_105_" d="M186.4059,85.7945H83.5941c-7.4745,0-11.1752,5.8693-11.1752,12.7217
					c0,6.3585,7.0556,14.2557,12.0149,17.6126c10.8237,7.5506,21.7908,15.0964,32.6145,22.7182
					c4.5414,3.1431,12.2239,9.5729,17.8803,9.5729h0.1426c5.6564,0,13.3389-6.4298,17.8803-9.5729
					c10.8246-7.6218,21.7908-15.1676,32.6858-22.7182c6.1447-4.264,11.9436-11.3254,11.9436-19.1514
					C197.581,90.8279,192.485,85.7945,186.4059,85.7945z M197.581,117.5241c-2.0973,2.3092-4.47,4.3363-6.9843,6.0831
					c-11.6644,7.8972-23.4,15.8658-34.7842,24.1145c-5.8644,4.3304-13.129,9.645-20.7412,9.645h-0.1426
					c-7.6112,0-14.8768-5.3146-20.7412-9.645c-11.3842-8.32-23.1198-16.2173-34.7129-24.1145
					c-2.5855-1.7468-4.9583-3.7739-7.0556-6.0831v55.4985c0,6.1495,5.0296,11.1829,11.1752,11.1829h102.8118
					c6.1456,0,11.1751-5.0334,11.1751-11.1829V117.5241z M135,5c71.7995,0,130,58.2034,130,130c0,71.7976-58.2005,130-130,130
					C63.2053,265,5,206.7976,5,135C5,63.2034,63.2053,5,135,5z"/>
			</defs>
			<clipPath id="SVGID_4_">
				<use xlink:href="#SVGID_105_"  overflow="visible"/>
			</clipPath>
			<g clip-path="url(#SVGID_4_)">
				<defs>
					<rect id="SVGID_107_" width="270" height="270"/>
				</defs>
				<clipPath id="SVGID_6_">
					<use xlink:href="#SVGID_107_"  overflow="visible"/>
				</clipPath>
				<rect clip-path="url(#SVGID_6_)" width="270" height="270"/>
			</g>
		</g>
	</g>
</g>
</svg>
