<?xml version="1.0" encoding="utf-8"?>
<!-- Generator: Adobe Illustrator 24.3.0, SVG Export Plug-In . SVG Version: 6.00 Build 0)  -->
<svg version="1.1" id="Layer_1" xmlns="http://www.w3.org/2000/svg" xmlns:xlink="http://www.w3.org/1999/xlink" x="0px" y="0px"
	 width="270px" height="270px" viewBox="0 0 270 270" enable-background="new 0 0 270 270" xml:space="preserve">
<g>
	<g>
		<defs>
			<rect id="SVGID_151_" x="0" width="270" height="270"/>
		</defs>
		<clipPath id="SVGID_2_">
			<use xlink:href="#SVGID_151_"  overflow="visible"/>
		</clipPath>
		<g clip-path="url(#SVGID_2_)">
			<defs>
				<path id="SVGID_153_" d="M109.807,102.0436c8.24-0.0415,16.483-0.0347,24.7289-0.002c4.0261,0.0164,7.3108,3.3656,7.3502,7.4023
					c0.0443,4.0435-3.2577,7.489-7.3214,7.5381c-4.1494,0.052-8.2997,0.0096-12.452,0.0096v0.0029l-8.062,0.0056l-4.0309-0.0085
					c-3.458-0.0173-6.3421-2.2417-7.2569-5.5534C101.4879,106.7987,104.9873,102.0676,109.807,102.0436z M159.1973,151.7276
					c2.2091,0,4.1379,0.7415,5.6401,2.3776c2.0569,2.2398,2.6202,4.8745,1.5667,7.7066c-1.038,2.8224-3.1585,4.4585-6.1783,4.8446
					c-0.4796,0.0646-0.9601,0.0944-1.4445,0.0944c-16.144,0-32.2958,0-48.4476-0.0106c-0.7761-0.0048-1.5725-0.0491-2.3265-0.2176
					c-3.5023-0.7954-5.9319-3.9539-5.8134-7.4938c0.1261-3.6775,2.7512-6.6435,6.3921-7.1924
					c0.5316-0.0741,1.0776-0.103,1.614-0.103c8.1197-0.0058,16.2384-0.0058,24.3629-0.0058H159.1973z M136.0227,65.7206
					c-8.8776-0.0173-17.7503-0.0154-26.626,0.0029c-1.7448,0.0048-3.4897,0.0539-5.2279,0.182
					c-1.6755,0.1261-3.353,0.3139-5.0103,0.5941c-4.4239,0.7415-8.5733,2.315-12.5676,4.3228
					c-5.1933,2.6067-9.4563,6.2631-12.558,11.2204c-1.5552,2.4816-2.756,5.1336-3.745,7.8848
					c-1.5667,4.3651-2.8639,8.7985-3.5533,13.3967c-0.5913,3.9693-0.7665,7.9627-0.7867,11.9648
					c-0.0318,6.5867-0.0077,13.1762-0.0077,19.7648h0.0222c0,6.6493,0,13.3024,0.0029,19.9468
					c0,3.7912,0.2051,7.5824,0.6471,11.3447c0.4979,4.2014,1.4589,8.2892,3.12,12.1844
					c4.7927,11.2407,12.9952,18.9126,24.4516,23.0755c4.0685,1.483,8.3643,1.9818,12.6591,2.2244
					c4.3256,0.2369,8.658,0.3207,12.9884,0.3756c5.4475,0.0849,10.8902,0.0849,16.3357,0.0849
					c7.489,0,14.9876,0.0143,22.4717-0.0704c3.7613-0.0443,7.5034-0.4738,11.1868-1.2605
					c3.8403-0.8108,7.5823-1.9375,11.0923-3.7074c6.06-3.0545,10.9585-7.4687,14.7603-13.0741
					c3.9896-5.8876,6.7774-12.2402,7.6517-19.3584c0.4748-3.9251,0.6972-7.8597,0.7117-11.7896
					c0.0452-9.6392,0.0298-19.2612,0.025-28.8879c0-0.6866-0.0587-1.3867-0.1772-2.0607c-0.4901-2.7686-2.0415-4.6666-4.7705-5.4379
					c-1.1122-0.3168-2.2986-0.495-3.4609-0.5287c-2.5499-0.0799-5.1114-0.0394-7.6613-0.0202
					c-0.6577,0.0048-1.3251,0.052-1.9722,0.1705c-1.5176,0.2763-2.833-0.1339-3.8711-1.2163
					c-0.6625-0.6865-1.221-1.4877-1.7054-2.3082c-0.8551-1.4309-1.3549-3.015-1.7892-4.6126
					c-0.1483-0.5402-0.2224-1.1189-0.2321-1.6852c-0.025-1.9817,0-3.9712-0.0202-5.954c-0.0048-0.598-0.0298-1.2191-0.1733-1.7872
					c-0.6221-2.3525-1.1758-4.7301-1.9673-7.0296c-2.3824-6.9372-6.2583-12.9018-11.883-17.6733
					c-3.0748-2.6106-6.501-4.6444-10.1092-6.3999c-3.1836-1.5445-6.4856-2.7213-9.985-3.2894
					C141.5501,65.867,138.7893,65.7235,136.0227,65.7206z M135,5c71.7947,0,130,58.2053,130,130c0,71.7995-58.2053,130-130,130
					C63.2034,265,5,206.7995,5,135C5,63.2053,63.2034,5,135,5z"/>
			</defs>
			<clipPath id="SVGID_4_">
				<use xlink:href="#SVGID_153_"  overflow="visible"/>
			</clipPath>
			<g clip-path="url(#SVGID_4_)">
				<defs>
					<rect id="SVGID_155_" x="0" width="270" height="270"/>
				</defs>
				<clipPath id="SVGID_6_">
					<use xlink:href="#SVGID_155_"  overflow="visible"/>
				</clipPath>
				<rect x="0" clip-path="url(#SVGID_6_)" width="270" height="270"/>
			</g>
		</g>
	</g>
</g>
</svg>
