<?xml version="1.0" encoding="utf-8"?>
<!-- Generator: Adobe Illustrator 24.3.0, SVG Export Plug-In . SVG Version: 6.00 Build 0)  -->
<svg version="1.1" id="Layer_1" xmlns="http://www.w3.org/2000/svg" xmlns:xlink="http://www.w3.org/1999/xlink" x="0px" y="0px"
	 width="270px" height="270px" viewBox="0 0 270 270" enable-background="new 0 0 270 270" xml:space="preserve">
<g>
	<path d="M135,265c71.7993,0,130-58.2005,130-130c0-71.7966-58.2007-130-130-130C63.2032,5,5,63.2034,5,135
		C5,206.7995,63.2032,265,135,265z M52.7061,162.4801c0.4219,0.338,0.8379,0.6885,1.2676,1.013
		c6.334,4.8322,13.3809,8.14,21.2188,9.6152c8.6377,1.6226,17.0146,0.6076,25.0986-2.8254
		c5.4819-2.3236,10.3999-5.5428,14.9375-9.3715c0.2715-0.2282,0.5459-0.4497,0.8145-0.6808
		c0.2485-0.2186,0.4902-0.4439,0.8965-0.8127c-0.9365,0-1.709,0.0356-2.4775-0.0049c-3.0063-0.1646-5.8047-0.9552-8.0977-3.0063
		c-2.7041-2.4248-2.8408-5.6623-0.4238-8.3836c1.147-1.2855,2.5239-2.2774,4.0117-3.1258c0.1978-0.1146,0.3911-0.2417,0.5605-0.4805
		c-0.5864,0-1.1699,0-1.7563-0.0019c-4.3823-0.0125-8.4858-1.0333-12.1948-3.4253c-2.7861-1.7978-4.9844-4.1513-6.6118-7.0402
		c-0.2466-0.442-0.2109-0.7415,0.1396-1.0997c1.7671-1.8161,3.9355-2.9149,6.3477-3.5216c1.3452-0.338,2.7368-0.4824,4.105-0.7135
		c0.2109-0.0366,0.4248-0.0636,0.6504-0.209c-1.0161-0.2889-2.0386-0.5527-3.042-0.8753
		c-4.3115-1.3867-8.2393-3.4253-11.3696-6.7841c-2.4482-2.6231-3.9995-5.6882-4.561-9.2454
		c-0.0933-0.5884,0.0059-0.9341,0.7012-1.0207c2.7627-0.34,5.5122-0.729,8.27-1.0997c0.2793-0.0405,0.5586-0.078,1.0283-0.1416
		c-0.4619-0.2821-0.772-0.4747-1.0796-0.6625c-3.7881-2.3005-7.124-5.0931-9.6304-8.788
		c-2.3228-3.4224-3.6641-7.1779-3.6787-11.3572c-0.0024-0.3505,0.0483-0.6962,0.0811-1.1478
		c1.3125,0.5084,2.5317,0.9774,3.7524,1.4579c9.8774,3.8875,19.6831,7.9415,29.2549,12.5368
		c4.5376,2.1792,9.0625,4.4181,13.397,6.9603c2.7041,1.5841,5.0884,3.7324,7.5303,5.7354c1.5869,1.3,3.0142,2.7888,4.5605,4.238
		c0.1011-0.2735,0.2051-0.5556,0.3042-0.8378c3.311-9.1818,7.2773-18.0526,12.457-26.3534
		c2.4297-3.8923,5.1519-7.5708,8.4116-10.8208c1.7065-1.7121,3.5679-3.2404,5.645-4.4913c0.1846-0.1145,0.3828-0.2137,0.5757-0.3177
		c0.0635,0.0356,0.124,0.0683,0.188,0.104c-0.5962,1.3019-1.1963,2.6019-1.8384,4.004c3.9434-2.7676,8.0493-4.992,12.8989-5.6546
		c0.0508,0.8937-0.272,1.5995-0.813,2.0945c-1.0864,0.9928-2.2725,1.8817-3.4253,2.7984c-0.2485,0.1983-0.5488,0.338-0.7866,0.5739
		c1.4224-0.5036,2.8203-1.0939,4.2783-1.4801c1.8511-0.4901,3.7354-0.8657,5.624-1.1815c0.645-0.106,1.374,0.0231,2.0151,0.2242
		c1.2598,0.3881,1.5806,1.6505,0.6733,2.6174c-0.4751,0.5084-1.0537,0.9523-1.6528,1.3048
		c-2.5996,1.5157-5.4634,2.3458-8.3359,3.1489c-1.3125,0.3678-2.6406,0.6702-3.978,1.1218
		c0.3369,0.0414,0.6807,0.1021,1.0254,0.1252c10.6235,0.7357,19.5811,4.8793,26.5132,13.0732
		c5.0527,5.9666,8.2363,12.8701,9.9131,20.4774c0.1006,0.467,0.3569,0.6067,0.7402,0.6981
		c2.7178,0.6452,5.4668,1.0333,8.2573,1.1383c3.8569,0.1444,7.6221-0.2957,11.2456-1.6939
		c0.0791-0.0337,0.1694-0.0462,0.2534-0.0607c0.0161-0.0027,0.0366,0.0203,0.1377,0.0935c-0.1675,0.3476-0.3228,0.7241-0.521,1.0765
		c-1.5938,2.836-4.1333,4.5452-7.0298,5.8019c-2.8774,1.2441-5.9009,1.9365-9.0063,2.2822c-0.6782,0.076-1.353,0.1454-2.0312,0.2186
		c-0.0122,0.0732-0.0288,0.1425-0.043,0.2138c1.2178,0.3775,2.417,0.8098,3.6514,1.119c1.2788,0.3206,2.5835,0.5739,3.894,0.7665
		c1.2847,0.1858,2.5874,0.3004,3.8848,0.3611c1.3252,0.0664,2.6538,0.0635,3.9761,0.0183c1.2979-0.0414,2.5923-0.1656,3.9839-0.2619
		c-1.1577,1.3231-2.4248,2.4064-3.8164,3.3414c-4.9863,3.3463-10.5059,4.5876-16.4482,4.0551
		c-0.6646-0.0607-0.7173,0.2889-0.835,0.7232c-1.9146,7.201-4.8311,13.963-8.8286,20.2549
		c-2.7393,4.3131-5.9336,8.269-9.5591,11.8589c-5.4233,5.381-11.5679,9.7885-18.3091,13.3688
		c-8.9351,4.7474-18.4214,7.9011-28.3281,9.8511c-5.21,1.0256-10.4639,1.6678-15.7627,2.0135
		c-4.3999,0.2841-8.7979,0.2234-13.1831-0.1849c-15.5259-1.4579-29.6025-6.7879-42.2017-15.9861
		c-6.5049-4.7484-12.3013-10.2402-17.167-16.6815c-0.1387-0.1906-0.2734-0.3861-0.4111-0.5768
		C52.6626,162.5263,52.6861,162.5032,52.7061,162.4801z"/>
</g>
</svg>
