<?xml version="1.0" encoding="utf-8"?>
<!-- Generator: Adobe Illustrator 24.3.0, SVG Export Plug-In . SVG Version: 6.00 Build 0)  -->
<svg version="1.1" id="Layer_1" xmlns="http://www.w3.org/2000/svg" xmlns:xlink="http://www.w3.org/1999/xlink" x="0px" y="0px"
	 width="270px" height="270px" viewBox="0 0 270 270" enable-background="new 0 0 270 270" xml:space="preserve">
<g>
	<defs>
		<path id="SVGID_1_" d="M135,5C63.2034,5,5,63.2034,5,135s58.2034,130,130,130s130-58.2034,130-130S206.7966,5,135,5
			 M202.5018,125.1951l-1.2259,7.9339c-3.3703,21.8091-22.1414,37.9012-44.2086,37.9012h-10.3606
			c-2.9014,0-5.3762,2.1012-5.848,4.9641l-5.6257,34.1447c-0.5171,3.1383-3.2307,5.4417-6.4123,5.4417h-24.9408
			c-2.4661,0-4.3506-2.2023-3.9703-4.6396l2.3005-14.7218H71.091c-2.4199,0-4.265-2.1667-3.8798-4.5558l21.112-131.0332
			c0.5181-3.2163,3.2943-5.5804,6.551-5.5804h48.8607c35.9031,0,49.1766,17.4171,46.75,37.1656l-0.547,4.4508
			c-0.0241,0.1974-0.053,0.3929-0.079,0.5903C199.0496,103.1924,204.2573,113.837,202.5018,125.1951"/>
	</defs>
	<use xlink:href="#SVGID_1_"  overflow="visible" fill-rule="evenodd" clip-rule="evenodd"/>
	<clipPath id="SVGID_2_">
		<use xlink:href="#SVGID_1_"  overflow="visible"/>
	</clipPath>
	<g clip-path="url(#SVGID_2_)">
		<defs>
			<rect id="SVGID_3_" x="0" width="270" height="270"/>
		</defs>
		<use xlink:href="#SVGID_3_"  overflow="visible"/>
		<clipPath id="SVGID_4_">
			<use xlink:href="#SVGID_3_"  overflow="visible"/>
		</clipPath>
	</g>
</g>
<path opacity="0.3" fill="#242424" d="M189.8588,97.2566c-4.752-3.069-10.5674-4.8802-17.0376-4.8802l-54.3686-0.1079
	l-8.998,57.9386c-0.001,0.0116-0.0029,0.0241-0.0049,0.0356l-7.2397,45.9767l-2.3003,14.7217
	c-0.0327,0.21-0.0488,0.417-0.0488,0.6221c-0.0039,2.1772,1.7646,4.0175,4.019,4.0175h24.9409c3.1816,0,5.895-2.3035,6.4121-5.4417
	l5.626-34.1448c0.4717-2.8629,2.9463-4.9641,5.8477-4.9641h10.3608c22.0674,0,40.8384-16.0921,44.2085-37.9012l1.2261-7.9339
	c0.228-1.4752,0.3379-2.938,0.3379-4.3805C202.8369,111.1513,197.8564,102.422,189.8588,97.2566z"/>
<g>
	<path fill="none" d="M202.5019,125.1951l-1.2261,7.9339c-3.3701,21.8091-22.1411,37.9012-44.2085,37.9012h-10.3608
		c-2.9014,0-5.376,2.1012-5.8477,4.9641l-5.626,34.1448c-0.5171,3.1382-3.2305,5.4417-6.4121,5.4417h-24.9409
		c-2.2544,0-4.0229-1.8403-4.019-4.0175c0-0.2051,0.0161-0.4121,0.0488-0.6221l2.3003-14.7217l7.2397-45.9767
		c0.002-0.0115,0.0039-0.024,0.0049-0.0356c0.5835-3.7026,3.8193-6.4326,7.5708-6.4326h19.6616
		c26.9014,0,49.6064-19.916,53.1719-46.5178c7.9976,5.1653,12.978,13.8947,12.981,23.5579
		C202.8398,122.2571,202.7299,123.7199,202.5019,125.1951z"/>
	<path opacity="0.3" fill="#242424" d="M189.8588,97.2567c-3.5654,26.6018-26.2705,46.5178-53.1719,46.5178h-19.6616
		c-3.7515,0-6.9873,2.73-7.5708,6.4326c-0.001,0.0116-0.0029,0.0241-0.0049,0.0356l-7.2397,45.9767l-2.3003,14.7217
		c-0.0327,0.21-0.0488,0.417-0.0488,0.6221c-0.0039,2.1772,1.7646,4.0175,4.019,4.0175h24.9409c3.1816,0,5.895-2.3035,6.4121-5.4417
		l5.626-34.1448c0.4717-2.8629,2.9463-4.9641,5.8477-4.9641h10.3608c22.0674,0,40.8384-16.0921,44.2085-37.9012l1.2261-7.9339
		c0.228-1.4752,0.3379-2.938,0.3379-4.3805C202.8369,111.1513,197.8564,102.422,189.8588,97.2567z"/>
</g>
<g>
</g>
</svg>
