<?xml version="1.0" encoding="utf-8"?>
<!-- Generator: Adobe Illustrator 24.3.0, SVG Export Plug-In . SVG Version: 6.00 Build 0)  -->
<svg version="1.1" id="Layer_1" xmlns="http://www.w3.org/2000/svg" xmlns:xlink="http://www.w3.org/1999/xlink" x="0px" y="0px"
	 width="270px" height="270px" viewBox="0 0 270 270" enable-background="new 0 0 270 270" xml:space="preserve">
<g>
	<path d="M135.0001,265c71.7944,0,130-58.2005,130-130c0-71.7947-58.2056-130-130-130c-71.7969,0-130,58.2053-130,130
		C5.0001,206.7995,63.2033,265,135.0001,265z M218.7028,140.4273c4.7559,10.5733,4.4326,23.3056-0.9629,33.5881
		c-3.6279,7.383-9.6606,13.2494-16.2754,17.9775c1.7441,5.0382,3.3726,10.1159,4.8843,15.2292
		c-2.0869-0.9995-4.1172-2.1234-6.1387-3.2639l-2.02-1.142c-3.0308-1.7095-6.0767-3.3756-9.2998-4.6354
		c-10.1689,2.9631-20.9956,4.2101-31.4688,2.081c-14.46-2.6174-28.3584-10.7592-36.0561-23.5194
		c-5.1636-8.5029-7.2451-18.9954-4.9312-28.7377c2.8115-13.2407,12.6841-24.1212,24.5185-30.2004
		c17.0156-8.7986,38.2578-8.8641,55.3301-0.2032C205.9523,122.5036,214.2882,130.425,218.7028,140.4273z M55.1002,91.9257
		c7.1538-11.6596,18.7373-20.2184,31.5244-24.8242c19.4673-7.0335,42.0151-5.4966,60.1045,4.6896
		c13.6382,7.5487,24.5103,20.6334,27.6636,36.1025c-16.8755-1.1932-34.6128,3.7565-47.1216,15.4709
		c-7.4302,6.7436-12.8052,15.8398-14.5078,25.7766c-1.0659,7.1625-0.5103,14.5552,1.8306,21.4202
		c-8.9844,0.2889-17.9775-1.0256-26.5376-3.7651c-7.0957,3.7651-14.1362,7.6247-21.2612,11.3244
		c1.9702-6.2073,4.061-12.3683,6.1807-18.5322c-11.2705-7.4764-20.522-18.6632-23.6592-32.0137
		C46.1813,115.5472,48.6144,102.4355,55.1002,91.9257z M159.2838,144.2483c-1.499,4.7263-8.3931,6.1514-11.7046,2.5422
		c-3.6641-3.3212-2.2407-10.2883,2.5615-11.7684C155.4811,132.7746,161.6242,138.9173,159.2838,144.2483z M182.6329,146.9918
		c-3.6641-3.3213-2.2397-10.2883,2.5615-11.7694c5.3403-2.2475,11.4844,3.8962,9.1431,9.2262
		C192.8385,149.1758,185.9445,150.601,182.6329,146.9918z M130.193,89.3979c5.6909-2.2379,12.4258,2.5644,11.9819,8.6985
		c0.0552,6.9757-9.2349,11.3244-14.4614,6.5866C122.2916,100.8061,123.8278,91.3595,130.193,89.3979z M86.6149,89.3344
		c6.3286-2.4431,13.5278,3.9866,11.6221,10.5194c-1.2578,6.0609-9.3833,8.9844-14.1284,4.9226
		C78.612,100.8986,80.1496,91.268,86.6149,89.3344z"/>
</g>
</svg>
