<?xml version="1.0" encoding="utf-8"?>
<!-- Generator: Adobe Illustrator 24.3.0, SVG Export Plug-In . SVG Version: 6.00 Build 0)  -->
<svg version="1.1" id="Layer_1" xmlns="http://www.w3.org/2000/svg" xmlns:xlink="http://www.w3.org/1999/xlink" x="0px" y="0px"
	 width="270px" height="270px" viewBox="0 0 270 270" enable-background="new 0 0 270 270" xml:space="preserve">
<g>
	<path d="M135.0002,265c71.7964,0,130-58.2034,130-130c0-71.7976-58.2036-130-130-130c-71.7969,0-130,58.2024-130,130
		C5.0002,206.7966,63.2034,265,135.0002,265z M169.3855,124.9081c0-0.4381,0.3555-0.7934,0.7944-0.7934h18.5015v-18.5024
		c0-0.4382,0.3555-0.7935,0.7935-0.7935h12.5156c0.439,0,0.7944,0.3553,0.7944,0.7935v18.5024h18.5015
		c0.438,0,0.7935,0.3553,0.7935,0.7934v12.5157c0,0.4381-0.3555,0.7935-0.7935,0.7935h-18.5015v18.5023
		c0,0.4382-0.3555,0.7935-0.7944,0.7935h-12.5156c-0.438,0-0.7935-0.3553-0.7935-0.7935v-18.5023h-18.5015
		c-0.439,0-0.7944-0.3554-0.7944-0.7935V124.9081z M47.9509,130.6551c0.603-9.8367,3.5244-18.9309,9.021-27.1729
		c8.0054-12.0023,19.0283-19.7552,32.9536-23.3316c2.9487-0.7569,6.0332-1.0564,9.0762-1.3462
		c2.4785-0.2369,4.9966-0.3091,7.481-0.1657c6.7754,0.39,13.313,1.8133,19.5059,4.7205c4.7456,2.2273,9.123,4.9718,13.002,8.5029
		c0.4375,0.3978,0.9033,0.7646,1.5024,1.2692c-0.5488,0.4844-1.021,0.858-1.4429,1.2798
		c-4.6826,4.6752-9.3696,9.3465-14.0215,14.0516c-0.5845,0.5912-0.9263,0.5845-1.5225,0.0356
		c-4.2661-3.9241-9.3271-6.2939-15.0117-7.1876c-8.8081-1.3857-16.8999,0.547-24.0796,5.8674
		c-7.3389,5.4388-11.7803,12.7284-13.1484,21.7629c-1.439,9.49,0.9062,18.0826,6.8359,25.5975
		c5.3677,6.8024,12.3701,11.0404,21.0312,12.0621c8.3452,0.9841,16.2886-0.3746,23.2939-5.3435
		c5.4888-3.8932,8.8457-9.2396,10.2183-15.8282c0.0171-0.0819,0.002-0.1705,0.002-0.3274c-0.3516,0-0.6924,0.0009-1.0337,0
		c-9.1489-0.0019-18.2969-0.0048-27.4453-0.0077c-1.1265,0-1.1294-0.001-1.1313-1.1527c-0.0059-6.7321,0.002-13.4641-0.0308-20.1962
		c-0.0049-0.7983,0.2378-1.0159,1.0273-1.015c16.7432,0.0202,33.4863,0.0212,50.229-0.0038c0.7783-0.001,1.0747,0.2542,1.1479,0.987
		c0.2505,2.5095,0.5874,5.0113,0.7793,7.5236c0.146,1.9154,0.209,3.8452,0.1577,5.7653
		c-0.3003,11.2436-3.1094,21.7437-9.6025,31.0556c-6.5557,9.4023-15.4614,15.5749-26.4316,18.8259
		c-6.4468,1.9105-13.0361,2.7088-19.73,2.3486c-11.0518-0.5961-21.1035-4.1031-30.0664-10.6715
		c-6.9922-5.124-12.4897-11.5267-16.4756-19.1996c-2.9312-5.6439-4.8438-11.6239-5.6509-17.9698
		C47.9358,137.8119,47.7327,134.2306,47.9509,130.6551z"/>
</g>
</svg>
