<?xml version="1.0" encoding="utf-8"?>
<!-- Generator: Adobe Illustrator 24.3.0, SVG Export Plug-In . SVG Version: 6.00 Build 0)  -->
<svg version="1.1" id="Layer_1" xmlns="http://www.w3.org/2000/svg" xmlns:xlink="http://www.w3.org/1999/xlink" x="0px" y="0px"
	 width="270px" height="270px" viewBox="0 0 270 270" enable-background="new 0 0 270 270" xml:space="preserve">
<g>
	<g>
		<defs>
			<rect id="SVGID_19_" x="0" width="270" height="270"/>
		</defs>
		<clipPath id="SVGID_2_">
			<use xlink:href="#SVGID_19_"  overflow="visible"/>
		</clipPath>
		<g clip-path="url(#SVGID_2_)">
			<defs>
				<path id="SVGID_21_" d="M86.615,89.3344c6.3286-2.4431,13.5277,3.9866,11.622,10.5194
					c-1.2576,6.0609-9.3831,8.9844-14.1286,4.9226C78.6118,100.8986,80.1496,91.268,86.615,89.3344z M130.1929,89.3979
					c5.6911-2.2379,12.4261,2.5644,11.9821,8.6985c0.0549,6.9757-9.2348,11.3244-14.4617,6.5866
					C122.2918,100.8061,123.8277,91.3595,130.1929,89.3979z M150.1407,135.0221c5.3406-2.2475,11.4833,3.8952,9.1433,9.2262
					c-1.4993,4.7262-8.3932,6.1514-11.7048,2.5422C143.9151,143.4693,145.3384,136.5022,150.1407,135.0221z M185.1944,135.2224
					c5.3406-2.2475,11.4843,3.8962,9.1434,9.2262c-1.4994,4.7272-8.3932,6.1524-11.7048,2.5432
					C178.9689,143.6705,180.3931,136.7035,185.1944,135.2224z M146.7289,71.7911c-18.0893-10.1862-40.637-11.7231-60.1043-4.6896
					c-12.7872,4.6058-24.3707,13.1646-31.5245,24.8242c-6.4855,10.5098-8.919,23.6215-5.7836,35.6489
					c3.1373,13.3505,12.3885,24.5373,23.659,32.0137c-2.1195,6.1639-4.2101,12.325-6.1803,18.5322
					c7.125-3.6997,14.1652-7.5593,21.2613-11.3244c8.5598,2.7396,17.5529,4.0541,26.5374,3.7652
					c-2.341-6.865-2.8966-14.2577-1.8306-21.4202c1.7025-9.9368,7.0777-19.033,14.508-25.7766
					c12.5088-11.7144,30.2457-16.6641,47.1216-15.4709C171.2392,92.4245,160.3673,79.3398,146.7289,71.7911z M196.283,117.6012
					c-17.0724-8.6609-38.3144-8.5954-55.33,0.2032c-11.8348,6.0792-21.7071,16.9597-24.5189,30.2004
					c-2.314,9.7423-0.2321,20.2348,4.9313,28.7377c7.6979,12.7602,21.5964,20.9021,36.0562,23.5194
					c10.4732,2.1291,21.2998,0.8821,31.4687-2.081c3.223,1.2597,6.2692,2.9259,9.2999,4.6353l2.02,1.142
					c2.0212,1.1405,4.0515,2.2643,6.1386,3.2639c-1.5118-5.1133-3.1402-10.191-4.8841-15.2293
					c6.6146-4.7281,12.6475-10.5945,16.275-17.9775c5.3955-10.2825,5.719-23.0148,0.963-33.5881
					C214.2884,130.425,205.9521,122.5036,196.283,117.6012z M135,5c71.7947,0,130,58.2053,130,130c0,71.7995-58.2053,130-130,130
					C63.2034,265,5,206.7995,5,135C5,63.2053,63.2034,5,135,5z"/>
			</defs>
			<clipPath id="SVGID_4_">
				<use xlink:href="#SVGID_21_"  overflow="visible"/>
			</clipPath>
			<g clip-path="url(#SVGID_4_)">
				<defs>
					<rect id="SVGID_23_" x="0" width="270" height="270"/>
				</defs>
				<clipPath id="SVGID_6_">
					<use xlink:href="#SVGID_23_"  overflow="visible"/>
				</clipPath>
				<rect x="0" clip-path="url(#SVGID_6_)" width="270" height="270"/>
			</g>
		</g>
	</g>
</g>
</svg>
