<?xml version="1.0" encoding="utf-8"?>
<!-- Generator: Adobe Illustrator 24.3.0, SVG Export Plug-In . SVG Version: 6.00 Build 0)  -->
<svg version="1.1" id="Layer_1" xmlns="http://www.w3.org/2000/svg" xmlns:xlink="http://www.w3.org/1999/xlink" x="0px" y="0px"
	 width="270px" height="270px" viewBox="0 0 270 270" enable-background="new 0 0 270 270" xml:space="preserve">
<g>
	<g>
		<defs>
			<rect id="SVGID_163_" width="270" height="270"/>
		</defs>
		<clipPath id="SVGID_2_">
			<use xlink:href="#SVGID_163_"  overflow="visible"/>
		</clipPath>
		<g clip-path="url(#SVGID_2_)">
			<defs>
				<path id="SVGID_165_" d="M144.3032,115.8756c1.4627-0.1416,2.158,0.2994,2.0289,1.8999
					c-0.1203,1.4724-0.026,2.9553-0.026,4.4373c-0.0683,5.2771-0.0683,10.5782-2.2263,15.5393
					c-2.3487,5.3936-5.6016,9.9436-11.5199,11.8936c-7.7818,2.5586-14.8383-1.5648-16.2067-9.6441
					c-2.1705-12.8324,4.7609-21.0128,17.2476-23.1409C137.1224,116.2617,140.7354,116.2164,144.3032,115.8756z M145.3085,58.3202
					c-2.3236-0.4169-19.8967-1.7921-30.9255,2.3159c-12.9336,4.3671-21.3229,13.0559-23.9817,26.756
					c-0.4439,2.286,0.7993,3.7382,3.3896,4.0329c5.5534,0.6394,11.1029,1.2788,16.6409,2.0106
					c3.4937,0.4623,4.5192-0.2946,5.6497-3.6409c0.7107-2.107,1.6351-4.3324,3.0671-5.9771
					c4.2861-4.9304,9.9435-6.6117,16.2904-5.4995c5.8654,1.0207,9.6354,4.4989,10.3827,10.5569
					c0.4285,3.4946,0.3322,7.0537,0.4718,10.583c0.0385,0.9909-0.6297,1.0053-1.3683,1.0766
					c-5.8732,0.599-11.754,1.1575-17.6136,1.8691c-7.4726,0.9042-14.7064,2.7165-21.5078,6.0532
					c-8.2545,4.0473-14.2143,10.2064-17.081,19.0224c-2.4093,7.409-2.5008,14.975-0.3756,22.4553
					c2.3843,8.4095,7.7441,14.2692,15.8966,17.5047c4.5452,1.8027,9.2984,2.1686,14.1431,2.1492
					c10.0263-0.047,19.0483-2.7635,26.5864-9.6295c1.6322-1.4877,3.25-2.9909,5.017-4.6164
					c0.6577,0.884,1.2798,1.6611,1.8355,2.4787c2.4584,3.6005,5.2972,6.8505,8.656,9.6383c2.0974,1.741,4.1976,1.818,6.2901,0.0712
					c4.9044-4.0984,9.7741-8.2372,14.6419-12.3808c1.4117-1.2037,1.7294-2.7416,0.8685-4.4027
					c-0.4314-0.8329-1.0255-1.6052-1.6447-2.3101c-4.5731-5.2-6.605-11.2282-6.5106-18.1653
					c0.1522-10.8315,0.0838-21.6677,0.0231-32.5049c-0.026-4.5346-0.0462-9.0894-0.4574-13.5989
					c-0.7029-7.7288-4.0194-14.1373-10.4433-18.7489C157.8588,61.5606,151.7623,59.4729,145.3085,58.3202z M204.2736,166.4744
					c-0.188,0.0155-0.376,0.0306-0.5639,0.0454l-1.1264,0.0875c-3.7508,0.2904-7.4539,0.6062-10.9139,2.1118
					c-2.4912,1.0862-4.8726,2.4825-7.1423,3.9857c-1.2393,0.8176-1.7064,2.2755-1.0467,3.8037
					c0.6278,1.4521,1.8335,2.001,3.3415,1.8383c2.1454-0.2234,4.2784-0.65,6.4287-0.7617c3.3578-0.1772,6.7244-0.183,10.0861-0.2138
					c1.3529-0.0096,1.7314,0.8638,1.5032,2.0319c-0.3766,1.9095-0.6886,3.849-1.2673,5.6978
					c-1.039,3.3155-2.3285,6.5501-3.3694,9.8665c-0.6548,2.0867,0.8638,4.0926,3.016,3.9106
					c1.1199-0.0915,2.4382-0.5845,3.2327-1.3462c6.9651-6.7032,10.009-15.0867,10.0602-24.6191
					c0.0143-2.9804-1.2039-4.4932-4.1515-5.1788C209.7124,167.1139,206.9719,166.8808,204.2736,166.4744z M64.5053,173.1622
					c-2.0155-1.0458-4.1744-0.5585-5.2279,1.0101c-1.0313,1.5436-0.624,3.5697,1.1142,5.0584
					c8.4866,7.2463,17.2284,14.1527,26.8638,19.8553c13.7492,8.1351,28.4402,13.0096,44.6016,13.1521
					c4.3564-0.3967,8.7312-0.6452,13.0655-1.2085c14.2191-1.8489,27.6688-6.1851,40.2489-13.0558
					c3.9289-2.1378,7.6411-4.6974,11.3601-7.201c1.8412-1.2393,2.3593-3.224,1.6939-5.0064
					c-0.7059-1.8893-2.4152-3.0266-4.6242-2.859c-1.0275,0.0761-2.0761,0.391-3.0314,0.7915
					c-15.1522,6.4037-30.809,10.7765-47.2391,12.3654c-10.7274,1.0362-21.2796,0.4112-31.7306-2.1734
					c-12.5503-3.0921-24.1444-8.5261-35.5064-14.5282C72.2196,177.3164,68.3928,175.1835,64.5053,173.1622z M135,5
					c71.7966,0,130,58.2053,130,130c0,71.7995-58.2034,130-130,130S5,206.7995,5,135C5,63.2053,63.2034,5,135,5z"/>
			</defs>
			<clipPath id="SVGID_4_">
				<use xlink:href="#SVGID_165_"  overflow="visible"/>
			</clipPath>
			<g clip-path="url(#SVGID_4_)">
				<defs>
					<rect id="SVGID_167_" width="270" height="270"/>
				</defs>
				<clipPath id="SVGID_6_">
					<use xlink:href="#SVGID_167_"  overflow="visible"/>
				</clipPath>
				<rect clip-path="url(#SVGID_6_)" width="270" height="270"/>
			</g>
		</g>
	</g>
</g>
</svg>
