<?xml version="1.0" encoding="utf-8"?>
<!-- Generator: Adobe Illustrator 24.3.0, SVG Export Plug-In . SVG Version: 6.00 Build 0)  -->
<svg version="1.1" id="Layer_1" xmlns="http://www.w3.org/2000/svg" xmlns:xlink="http://www.w3.org/1999/xlink" x="0px" y="0px"
	 width="270px" height="270px" viewBox="0 0 270 270" enable-background="new 0 0 270 270" xml:space="preserve">
<g>
	<path d="M135.0002,265c71.8042,0,130-58.2053,130-130c0-71.7976-58.1958-130-130-130c-71.7969,0-130,58.2024-130,130
		C5.0002,206.7946,63.2034,265,135.0002,265z M68.3274,110.821c0-10.92,8.8623-19.7822,19.7881-19.7822h58.6011
		c10.9248,0,19.7876,8.8622,19.7876,19.7822v11.336l27.6787-27.614c0.8311-0.8955,1.9219-1.3057,3.0938-1.3057
		c0.5508,0,1.1719,0.1348,1.7124,0.3447c1.582,0.6866,2.6836,2.263,2.6836,4.0512v74.7288c0,1.7931-1.1016,3.3743-2.6836,4.056
		c-0.5405,0.2099-1.1616,0.3495-1.7124,0.3495c-1.1719,0-2.2627-0.4199-3.0938-1.3115l-27.6787-27.6784v11.4062
		c0,10.9152-8.8628,19.7773-19.7876,19.7773H88.1155c-10.9258,0-19.7881-8.8622-19.7881-19.7773V110.821z"/>
</g>
</svg>
