<?xml version="1.0" encoding="utf-8"?>
<!-- Generator: Adobe Illustrator 24.3.0, SVG Export Plug-In . SVG Version: 6.00 Build 0)  -->
<svg version="1.1" id="Layer_1" xmlns="http://www.w3.org/2000/svg" xmlns:xlink="http://www.w3.org/1999/xlink" x="0px" y="0px"
	 width="270px" height="270px" viewBox="0 0 270 270" enable-background="new 0 0 270 270" xml:space="preserve">
<g>
	<path d="M116.3533,140.0016c-2.1704-12.8324,4.7607-21.0128,17.2476-23.1409c3.5215-0.599,7.1348-0.6443,10.7021-0.9851
		c1.4629-0.1416,2.1582,0.2994,2.0293,1.8999c-0.1206,1.4724-0.0264,2.9553-0.0264,4.4373
		c-0.0684,5.2771-0.0684,10.5782-2.2261,15.5393c-2.3486,5.3936-5.6016,9.9435-11.52,11.8936
		C124.7781,152.2043,117.7214,148.0809,116.3533,140.0016z M5.0002,135c0-71.7947,58.2031-130,130-130
		c71.7964,0,130,58.2053,130,130c0,71.7995-58.2036,130-130,130C63.2034,265,5.0002,206.7995,5.0002,135z M183.4802,176.5085
		c0.6279,1.4521,1.8335,2.001,3.3418,1.8383c2.1455-0.2234,4.2783-0.65,6.4287-0.7617c3.3579-0.1772,6.7241-0.183,10.0859-0.2138
		c1.353-0.0096,1.7314,0.8638,1.5034,2.0319c-0.377,1.9095-0.689,3.8489-1.2676,5.6979c-1.0391,3.3154-2.3281,6.55-3.3691,9.8665
		c-0.6548,2.0867,0.8638,4.0926,3.0156,3.9106c1.1201-0.0915,2.4385-0.5845,3.2329-1.3463
		c6.9653-6.7032,10.0093-15.0867,10.0601-24.6191c0.0146-2.9804-1.2036-4.4932-4.1514-5.1788
		c-2.6484-0.6201-5.3887-0.8532-8.0869-1.2596c-0.188,0.0155-0.376,0.0306-0.564,0.0453l-1.1265,0.0875
		c-3.751,0.2904-7.4541,0.6062-10.9141,2.1118c-2.4912,1.0862-4.8726,2.4825-7.1421,3.9857
		C183.2878,173.5224,182.8206,174.9803,183.4802,176.5085z M88.3474,149.9346c2.3843,8.4095,7.7441,14.2692,15.8965,17.5047
		c4.5454,1.8027,9.2983,2.1686,14.1431,2.1492c10.0264-0.047,19.0483-2.7635,26.5864-9.6295
		c1.6323-1.4877,3.25-2.9909,5.0171-4.6164c0.6577,0.884,1.2798,1.6611,1.8354,2.4787c2.4585,3.6005,5.2974,6.8505,8.6558,9.6383
		c2.0977,1.741,4.1978,1.818,6.2905,0.0712c4.9043-4.0984,9.7739-8.2372,14.6416-12.3808c1.4116-1.2037,1.7295-2.7416,0.8687-4.4027
		c-0.4316-0.8329-1.0254-1.6052-1.6445-2.3101c-4.5732-5.2-6.6055-11.2282-6.5107-18.1653
		c0.1523-10.8315,0.084-21.6677,0.0229-32.5049c-0.0259-4.5346-0.0464-9.0894-0.4575-13.5989
		c-0.7026-7.7288-4.019-14.1373-10.4434-18.7489c-5.3906-3.8586-11.4868-5.9463-17.9409-7.099
		c-2.3232-0.4169-19.8965-1.7921-30.9253,2.3159c-12.9336,4.3671-21.3232,13.0559-23.9814,26.756
		c-0.4443,2.286,0.7988,3.7382,3.3892,4.0329c5.5537,0.6394,11.103,1.2788,16.6411,2.0106c3.4937,0.4623,4.519-0.2946,5.6499-3.6409
		c0.7104-2.107,1.6348-4.3324,3.0669-5.9771c4.2861-4.9304,9.9434-6.6117,16.2905-5.4995
		c5.8652,1.0207,9.6353,4.4989,10.3828,10.5569c0.4282,3.4946,0.332,7.0537,0.4717,10.583
		c0.0386,0.9909-0.6299,1.0053-1.3687,1.0766c-5.873,0.599-11.7539,1.1575-17.6133,1.8691
		c-7.4727,0.9042-14.7065,2.7165-21.5078,6.0532c-8.2544,4.0473-14.2144,10.2064-17.0811,19.0224
		C86.3137,134.8883,86.2219,142.4543,88.3474,149.9346z M60.3918,179.2308c8.4863,7.2463,17.228,14.1526,26.8633,19.8553
		c13.7495,8.1351,28.4404,13.0096,44.6016,13.1521c4.3564-0.3967,8.7314-0.6451,13.0659-1.2085
		c14.2188-1.8489,27.6685-6.1851,40.2485-13.0558c3.9292-2.1378,7.6411-4.6973,11.3604-7.201
		c1.8413-1.2393,2.3594-3.224,1.6938-5.0065c-0.7061-1.8893-2.415-3.0266-4.624-2.859c-1.0278,0.076-2.0762,0.391-3.0317,0.7916
		c-15.1519,6.4037-30.8086,10.7765-47.2388,12.3654c-10.7275,1.0361-21.2798,0.4112-31.731-2.1734
		c-12.5503-3.0921-24.144-8.5261-35.5063-14.5283c-3.874-2.0463-7.7007-4.1793-11.5884-6.2005
		c-2.0151-1.0458-4.1743-0.5585-5.2275,1.0101C58.2463,175.716,58.6536,177.7421,60.3918,179.2308z"/>
</g>
</svg>
