<?xml version="1.0" encoding="utf-8"?>
<!-- Generator: Adobe Illustrator 24.3.0, SVG Export Plug-In . SVG Version: 6.00 Build 0)  -->
<svg version="1.1" id="Layer_1" xmlns="http://www.w3.org/2000/svg" xmlns:xlink="http://www.w3.org/1999/xlink" x="0px" y="0px"
	 width="270px" height="270px" viewBox="0 0 270 270" enable-background="new 0 0 270 270" xml:space="preserve">
<g>
	<g>
		<defs>
			<rect id="SVGID_43_" x="0" width="270" height="270"/>
		</defs>
		<clipPath id="SVGID_2_">
			<use xlink:href="#SVGID_43_"  overflow="visible"/>
		</clipPath>
		<g clip-path="url(#SVGID_2_)">
			<defs>
				<path id="SVGID_45_" d="M134.9846,112.0901H123.587v34.2642h11.3976V112.0901z M166.4051,112.0901h-11.3543v34.2719h11.3543
					V112.0901z M186.4627,89.2371l0.0067,62.3191l-20.5602,20.541l-31.0132,0.0712l-16.4879,16.5254l-0.519,0.4921v-17.0878H92.1462
					v-82.861H186.4627z M197.8757,77.7172H80.7139l-8.6156,23.4048l-0.0003,2.4453c0,0.1315,0,0.268-0.0001,0.4093l-0.001,9.3256
					c0,0.2664-0.0001,0.5363-0.0001,0.8096l-0.0009,9.1292c0,0.3323-0.0001,0.6671-0.0001,1.0043l-0.0009,9.6243
					c0,0.3733-0.0001,0.7481-0.0001,1.1245l-0.0009,10.4616c0,0.3962-0.0001,0.793-0.0001,1.1904l-0.0009,12.0134
					c0,0.4004-0.0001,0.8006-0.0001,1.2003l-0.0009,15.1935c0,0.3743,0,0.7471,0,1.1181l-0.0004,15.9352h31.4263v17.185h17.7628
					l17.2303-17.1754l25.0014-0.0087l34.396-34.477l-0.0004-2.8972c0-0.1327,0-0.2697,0-0.4107l-0.001-6.7128
					c0-0.2281,0-0.4593-0.0001-0.6936l-0.0008-6.171c-0.0001-0.2783-0.0001-0.559-0.0001-0.842l-0.0009-6.2624
					c0-0.3121-0.0001-0.6259-0.0001-0.9415l-0.0009-6.8516c-0.0001-0.3357-0.0001-0.6725-0.0001-1.0104l-0.001-7.2266
					c0-0.3491-0.0001-0.6987-0.0001-1.0487l-0.0008-6.3305c0-0.3524-0.0001-0.7047-0.0001-1.057l-0.001-8.3906
					c0-0.3452-0.0001-0.6897-0.0001-1.0334L197.9,91.7039c0-0.3252,0-0.6489-0.0001-0.9711l-0.0009-9.9618
					c0-0.2783,0-0.5543-0.0001-0.8277l-0.0009-1.685c-0.0005-0.027-0.0012-0.0557-0.0021-0.0853l-0.0067-0.1809
					c-0.0026-0.0592-0.0052-0.115-0.0075-0.1607l-0.0052-0.0998L197.8757,77.7172z M135,5c71.7966,0,130,58.2053,130,130
					c0,71.7995-58.2034,130-130,130S5,206.7995,5,135C5,63.2053,63.2034,5,135,5z"/>
			</defs>
			<clipPath id="SVGID_4_">
				<use xlink:href="#SVGID_45_"  overflow="visible"/>
			</clipPath>
			<g clip-path="url(#SVGID_4_)">
				<defs>
					<rect id="SVGID_47_" x="0" width="270" height="270"/>
				</defs>
				<clipPath id="SVGID_6_">
					<use xlink:href="#SVGID_47_"  overflow="visible"/>
				</clipPath>
				<rect x="0" clip-path="url(#SVGID_6_)" width="270" height="270"/>
			</g>
		</g>
	</g>
</g>
</svg>
