<?xml version="1.0" encoding="utf-8"?>
<!-- Generator: Adobe Illustrator 24.3.0, SVG Export Plug-In . SVG Version: 6.00 Build 0)  -->
<svg version="1.1" id="Layer_1" xmlns="http://www.w3.org/2000/svg" xmlns:xlink="http://www.w3.org/1999/xlink" x="0px" y="0px"
	 width="270px" height="270px" viewBox="0 0 270 270" enable-background="new 0 0 270 270" xml:space="preserve">
<g>
	<g>
		<defs>
			<rect id="SVGID_127_" x="0" width="270" height="270"/>
		</defs>
		<clipPath id="SVGID_2_">
			<use xlink:href="#SVGID_127_"  overflow="visible"/>
		</clipPath>
		<g clip-path="url(#SVGID_2_)">
			<defs>
				<path id="SVGID_129_" d="M175.2549,87.0545c-4.4176,0-7.9997,3.5816-7.9997,7.9998c0,4.4187,3.5821,8.0002,7.9997,8.0002
					c4.4182,0,8.0003-3.5815,8.0003-8.0002C183.2552,90.6361,179.6731,87.0545,175.2549,87.0545z M135.2552,109.0545
					c13.7848,0,25,11.2152,25,25c0,13.7849-11.2152,25-25,25c-13.7848,0-25-11.2151-25-25
					C110.2552,120.2697,121.4704,109.0545,135.2552,109.0545z M135.2552,96.0545c-20.9532,0-38,17.0469-38,38
					c0,20.9532,17.0468,38,38,38c20.9531,0,38-17.0468,38-38C173.2552,113.1014,156.2083,96.0545,135.2552,96.0545z M155.4912,75
					c16.2008,0,26.5065,2.7805,32.4312,8.7506C193.4336,89.3029,196,98.7037,196,113.3367v44.3266
					c0,14.633-2.5664,24.0344-8.0776,29.5867c-5.9247,5.9695-16.2304,8.75-32.4312,8.75h-39.9824
					c-16.2008,0-26.5059-2.7805-32.4312-8.75C77.5664,181.6977,75,172.2963,75,157.6633v-44.3266
					c0-14.633,2.5664-24.0338,8.0776-29.5861C89.0029,77.7805,99.308,75,115.5088,75H155.4912z M154.9699,61h-39.9398
					C76.6533,61,61,76.0268,61,112.8656v44.2688C61,193.9732,76.6533,209,115.0301,209h39.9398
					C193.3467,209,209,193.9732,209,157.1344v-44.2688C209,76.0268,193.3467,61,154.9699,61z M135,5c71.7966,0,130,58.2053,130,130
					s-58.2034,130-130,130S5,206.7947,5,135S63.2034,5,135,5z"/>
			</defs>
			<clipPath id="SVGID_4_">
				<use xlink:href="#SVGID_129_"  overflow="visible"/>
			</clipPath>
			<g clip-path="url(#SVGID_4_)">
				<defs>
					<rect id="SVGID_131_" x="0" width="270" height="270"/>
				</defs>
				<clipPath id="SVGID_6_">
					<use xlink:href="#SVGID_131_"  overflow="visible"/>
				</clipPath>
				<rect x="0" clip-path="url(#SVGID_6_)" width="270" height="270"/>
			</g>
		</g>
	</g>
</g>
</svg>
