<?xml version="1.0" encoding="utf-8"?>
<!-- Generator: Adobe Illustrator 24.3.0, SVG Export Plug-In . SVG Version: 6.00 Build 0)  -->
<svg version="1.1" id="Layer_1" xmlns="http://www.w3.org/2000/svg" xmlns:xlink="http://www.w3.org/1999/xlink" x="0px" y="0px"
	 width="270px" height="270px" viewBox="0 0 270 270" enable-background="new 0 0 270 270" xml:space="preserve">
<g>
	<g>
		<defs>
			<rect id="SVGID_13_" x="0" width="270" height="270"/>
		</defs>
		<clipPath id="SVGID_2_">
			<use xlink:href="#SVGID_13_"  overflow="visible"/>
		</clipPath>
		<g clip-path="url(#SVGID_2_)">
			<defs>
				<path id="SVGID_15_" d="M112.6612,100.5452c-1.8739-0.026-3.5668,0.4969-4.9362,1.8104
					c-4.2803,4.0983-6.576,9.074-6.5455,15.0568c0.0205,4.3209,1.3484,8.2815,3.2936,12.0708
					c2.315,4.5269,5.3849,8.5511,8.528,12.5089c4.6068,5.8047,9.8752,10.918,15.9785,15.1589
					c5.2404,3.641,11.0788,5.9617,17.0598,7.9772c3.1595,1.0612,6.3527,1.976,10.2787,2.0819
					c0.7357-0.0962,2.0309-0.1771,3.2808-0.4564c4.3112-0.9543,7.9926-3.0873,10.7351-6.525
					c2.0107-2.5095,2.2649-5.668,2.4122-8.7803c0.0607-1.3-0.5383-2.1022-1.6659-2.6405c-1.925-0.9244-3.8239-1.9095-5.7537-2.8243
					l-2.8782-1.3564c-1.9198-0.9013-3.8449-1.7887-5.7952-2.6149c-1.7728-0.7463-2.4989-0.365-3.6612,1.1276
					c-1.7266,2.2245-3.4994,4.4133-5.3117,6.5713c-1.0467,1.2489-1.9346,1.4271-3.3309,0.884
					c-10.4664-4.0878-18.4773-11.0558-24.2002-20.6989c-1.0641-1.7873-0.9399-2.262,0.3755-3.875
					c1.5157-1.8585,2.9477-3.795,4.3189-5.7652c0.7309-1.0516,0.6096-2.2476,0.1117-3.4157
					c-1.0255-2.4016-2.0212-4.8215-3.0314-7.2337c-0.9851-2.3458-1.9403-4.7099-2.9813-7.0326
					c-0.4516-1.014-1.1594-1.872-2.4122-1.9297C115.241,100.5827,113.9506,100.5654,112.6612,100.5452z M131.6306,73.6304
					c9.1279-0.7588,17.939,0.6355,26.4295,3.9587c6.2053,2.4248,11.8473,5.8423,16.9096,10.2122
					c10.2421,8.8314,17.0117,19.7812,19.7494,33.0258c3.6968,17.8851-0.0106,34.2468-11.0404,48.8059
					c-8.4548,11.1713-19.6415,18.3829-33.2164,21.7899c-9.1096,2.2851-18.2809,2.3265-27.457,0.2542
					c-6.7792-1.534-13.0886-4.1744-18.9386-7.9117c-0.6124-0.3958-1.1247-0.4574-1.7901-0.2436
					c-6.9035,2.2292-13.8128,4.4383-20.721,6.6473c-0.3438,0.1117-0.6982,0.1772-1.273,0.3245
					c1.1893-3.5293,2.2957-6.8351,3.405-10.141c1.2518-3.7218,2.5239-7.4447,3.7247-11.1868
					c0.1406-0.4266,0.0385-1.092-0.2176-1.4627c-4.6646-6.7032-7.9194-14.0208-9.5873-22.0191
					c-2.3496-11.2551-1.5513-22.2878,2.417-33.0807c2.5952-7.0566,6.4239-13.3784,11.441-18.9848
					c8.0639-9.0037,17.915-15.0877,29.6102-18.1981C124.5441,74.5019,128.058,73.9308,131.6306,73.6304z M139.3998,61.2399h-6.5279
					c-0.2389,0.0713-0.4719,0.1955-0.7136,0.2061c-5.6844,0.2388-11.2301,1.2519-16.6756,2.8716
					c-7.2136,2.1425-13.912,5.3521-20.0942,9.6305c-6.2082,4.2987-11.6172,9.44-16.2221,15.4402
					c-6.3864,8.3123-10.7303,17.5702-13.0559,27.767c-1.7073,7.4697-2.1686,15.0261-1.4608,22.6817
					c0.9851,10.6311,4.1667,20.5284,9.5093,29.7603c0.2494,0.4315,0.3197,1.1219,0.1627,1.5899
					c-4.0685,12.2075-8.1765,24.4005-12.272,36.5926c-0.1059,0.3149-0.1242,0.6548-0.1849,0.9803h0.6144
					c2.3053-0.7723,4.6039-1.5696,6.916-2.3111c8.4481-2.7165,16.9058-5.4186,25.3587-8.1197
					c1.9365-0.6192,3.8913-1.1883,5.8009-1.8739c0.7463-0.2744,1.2923-0.0915,1.9076,0.2485
					c5.7326,3.093,11.7983,5.3271,18.1567,6.7186c7.4851,1.6399,15.0482,2.0723,22.6932,1.3154
					c11.4872-1.1373,22.1058-4.7782,31.7691-11.075c14.7825-9.6229,24.8936-22.8925,29.9308-39.7878
					c4.966-16.6756,3.9867-33.1625-2.8186-49.217c-2.9909-7.0431-7.0835-13.4064-12.1622-19.1418
					c-5.4533-6.1572-11.7607-11.2252-18.9415-15.2321c-6.6926-3.7325-13.8175-6.3219-21.3431-7.7182
					c-3.2047-0.5941-6.4894-0.754-9.7375-1.1199C139.8061,61.4229,139.6059,61.3112,139.3998,61.2399z M135,5
					c71.7947,0,130,58.2053,130,130c0,71.7995-58.2053,130-130,130C63.2034,265,5,206.7995,5,135C5,63.2053,63.2034,5,135,5z"/>
			</defs>
			<clipPath id="SVGID_4_">
				<use xlink:href="#SVGID_15_"  overflow="visible"/>
			</clipPath>
			<g clip-path="url(#SVGID_4_)">
				<defs>
					<rect id="SVGID_17_" x="0" width="270" height="270"/>
				</defs>
				<clipPath id="SVGID_6_">
					<use xlink:href="#SVGID_17_"  overflow="visible"/>
				</clipPath>
				<rect x="0" clip-path="url(#SVGID_6_)" width="270" height="270"/>
			</g>
		</g>
	</g>
</g>
</svg>
